<svg width="97" height="93" viewBox="0 0 97 93" fill="none" xmlns="http://www.w3.org/2000/svg">
<path d="M67.0209 26.4968V16.2166C67.0209 15.4352 66.3834 14.8016 65.5972 14.8016C64.811 14.8016 64.1735 15.4352 64.1735 16.2166V26.4977C62.1363 27.1081 60.6479 28.9904 60.6479 31.2127C60.6479 32.2302 60.9598 33.1765 61.4935 33.9622L57.5888 38.3183C57.1141 38.8479 57.1135 39.6728 57.5898 40.2019C58.1488 40.8228 59.1569 40.823 59.7149 40.2005L63.6966 35.7582C64.2826 36.0017 64.925 36.1367 65.5987 36.1367C68.3287 36.1367 70.5497 33.9277 70.5497 31.2127C70.5501 28.9891 69.06 27.1061 67.0209 26.4968ZM65.5991 33.307C64.4391 33.307 63.4954 32.3674 63.4954 31.2127C63.4954 30.058 64.4391 29.1186 65.5991 29.1186C66.7591 29.1186 67.7028 30.058 67.7028 31.2127C67.7028 32.3674 66.7591 33.307 65.5991 33.307Z" fill="#F4B434"/>
<path d="M65.6546 0C51.8671 0 40.1305 8.90143 35.9461 21.2305C35.2447 21.2351 34.547 21.4602 33.9741 21.9027L31.162 24.0742C30.6906 23.8558 30.21 23.6573 29.7227 23.4801L29.2777 19.966C29.0737 18.3547 27.6882 17.1397 26.0549 17.1397H20.9056C19.2725 17.1397 17.887 18.3547 17.683 19.966L17.238 23.4801C16.7509 23.6573 16.27 23.8558 15.7989 24.0742L12.9868 21.9027C11.6963 20.9061 9.85213 21.0213 8.69722 22.1702L5.05594 25.7926C3.90198 26.9406 3.78622 28.7735 4.7871 30.0559L6.97093 32.8549C6.75078 33.3245 6.5511 33.8035 6.37282 34.2889L2.8418 34.7317C1.22178 34.9347 0 36.3123 0 37.9363V43.059C0 44.6828 1.22178 46.0605 2.8418 46.2636L6.37282 46.7063C6.5511 47.1918 6.75097 47.6706 6.97093 48.1402L4.7871 50.9392C3.78641 52.2216 3.90198 54.0545 5.05594 55.2025L8.69722 58.8249C9.85232 59.974 11.6965 60.089 12.9866 59.0924L15.7987 56.921C16.27 57.1394 16.7507 57.3378 17.2378 57.515L17.6828 61.0291C17.8868 62.6404 19.2723 63.8554 20.9054 63.8554H24.1079C24.0975 63.9642 24.0916 64.0742 24.0916 64.1855V69.9136C24.0916 71.6452 25.3945 73.1144 27.1221 73.3309L31.1724 73.8387C31.3903 74.4416 31.6381 75.0356 31.9139 75.6166L29.409 78.8272C28.3418 80.1949 28.4651 82.1495 29.6958 83.3737L33.7672 87.424C34.9988 88.6492 36.9653 88.7717 38.3411 87.7094L41.5668 85.2187C42.1501 85.4926 42.7465 85.7389 43.3518 85.9554L43.8622 89.9862C44.0799 91.7042 45.5574 93 47.2987 93H53.0563C54.7978 93 56.2752 91.7042 56.4928 89.9862L57.0032 85.9554C57.6087 85.7389 58.2049 85.4928 58.7884 85.2187L62.0141 87.7094C63.3899 88.7717 65.356 88.6492 66.588 87.424L70.6594 83.3737C71.8901 82.1493 72.0132 80.1947 70.9462 78.8272L68.4411 75.6166C68.7169 75.0358 68.9647 74.4416 69.1826 73.8387L73.2329 73.3309C74.9605 73.1144 76.2634 71.6454 76.2634 69.9136V64.1855C76.2634 62.8733 75.5145 61.7131 74.4005 61.1332C79.7827 59.5823 84.6776 56.6071 88.5777 52.4485C94.0093 46.6582 97 39.1057 97 31.1824C97 13.9884 82.9384 0 65.6546 0ZM20.5081 60.6757L19.9515 56.2812C19.8816 55.7293 19.4928 55.2693 18.9578 55.1055C18.0441 54.8259 17.1495 54.4567 16.299 54.0082C15.804 53.7471 15.2008 53.7989 14.7582 54.1408L11.2397 56.8577C11.0809 56.9805 10.854 56.9661 10.7117 56.8246L7.07039 53.2022C6.92716 53.0598 6.91277 52.8322 7.03705 52.6729L9.7682 49.1724C10.1111 48.7329 10.1632 48.1346 9.9012 47.6432C9.4503 46.7972 9.07916 45.907 8.79782 44.9974C8.63338 44.4657 8.17054 44.079 7.61507 44.0095L3.19778 43.4558C2.99772 43.4307 2.84691 43.2599 2.84691 43.0587V37.9359C2.84691 37.7346 2.99772 37.564 3.19778 37.5388L7.61507 36.9851C8.17054 36.9154 8.63338 36.5288 8.79782 35.9969C9.07897 35.0875 9.4503 34.1973 9.9012 33.3512C10.163 32.8598 10.1109 32.2614 9.7682 31.8222L7.03705 28.3218C6.91277 28.1625 6.92697 27.9351 7.07039 27.7925L10.7117 24.17C10.854 24.0286 11.0807 24.0145 11.2397 24.137L14.7582 26.854C15.2006 27.1957 15.8036 27.2475 16.299 26.9865C17.1495 26.538 18.0441 26.1688 18.958 25.889C19.4928 25.7254 19.8816 25.2654 19.9515 24.7136L20.5081 20.3191C20.5333 20.1195 20.7042 19.969 20.9056 19.969H26.0549C26.2563 19.969 26.4274 20.1195 26.4526 20.3191L27.009 24.7136C27.0789 25.2654 27.4677 25.7254 28.0025 25.8892C28.9162 26.1688 29.811 26.5382 30.6617 26.9867C31.1567 27.2478 31.7601 27.1959 32.2025 26.8541L34.9922 24.7C34.5458 26.7918 34.309 28.9599 34.309 31.1822C34.309 36.5014 35.6901 41.7262 38.2612 46.3333C36.8897 45.335 34.9759 45.473 33.7677 46.675L29.6964 50.7253C28.6201 51.7961 28.3909 53.4255 29.0644 54.7322C28.7131 54.8692 28.3592 54.9963 28.0029 55.1053C27.4681 55.2692 27.0793 55.7291 27.0094 56.281L26.453 60.6755C26.4278 60.8749 26.2569 61.0253 26.0555 61.0253H20.906C20.7044 61.0255 20.5335 60.8751 20.5081 60.6757ZM29.7229 57.5144C30.0907 57.3804 30.4557 57.2337 30.8164 57.075L31.9145 58.4822C31.6387 59.0634 31.3907 59.6575 31.1728 60.2603L29.3461 60.4893L29.7229 57.5144ZM73.4173 69.9136C73.4173 70.2225 73.1854 70.4848 72.8779 70.5234L67.9388 71.1425C67.3834 71.2122 66.9207 71.5987 66.7561 72.1306C66.4384 73.1575 66.0193 74.1627 65.5102 75.1181C65.2484 75.6095 65.3005 76.2078 65.6432 76.6471L68.697 80.5613C68.8878 80.8057 68.8658 81.155 68.6459 81.3737L64.5745 85.4241C64.3555 85.6417 64.0064 85.6636 63.762 85.4751L59.8276 82.437C59.3848 82.0953 58.782 82.0433 58.2868 82.3044C57.3266 82.8107 56.3165 83.2276 55.2845 83.5435C54.7497 83.7071 54.3607 84.1673 54.2908 84.7192L53.6687 89.6328C53.6298 89.9393 53.3671 90.1703 53.0573 90.1703H47.2996C46.9899 90.1703 46.7269 89.9391 46.6881 89.6328L46.0657 84.719C45.9958 84.1671 45.6071 83.7071 45.0722 83.5433C44.0403 83.2276 43.0301 82.8107 42.0698 82.3042C41.58 82.0459 40.9668 82.0986 40.5289 82.4368L36.5948 85.4749C36.3502 85.6638 36.001 85.6417 35.7822 85.4239L31.7109 81.3736C31.4909 81.155 31.4689 80.8055 31.6597 80.5611L34.7135 76.6471C35.0562 76.2077 35.1083 75.6095 34.8465 75.1181C34.3374 74.1623 33.9182 73.1573 33.6007 72.1308C33.4362 71.5989 32.9734 71.2123 32.4179 71.1427L27.4788 70.5236C27.1714 70.485 26.9395 70.2229 26.9395 69.9138V64.1856C26.9395 63.8765 27.1714 63.6144 27.4788 63.5758L32.4179 62.9567C32.9734 62.8871 33.4362 62.5005 33.6007 61.9686C33.9182 60.9421 34.3372 59.9369 34.8465 58.981C35.1083 58.4895 35.0562 57.8914 34.7133 57.4519L31.6595 53.5381C31.4689 53.2937 31.4909 52.9442 31.7107 52.7257L35.782 48.6753C36.0008 48.4577 36.3502 48.4358 36.5946 48.6245L40.5288 51.6624C40.9713 52.0042 41.5745 52.0559 42.0696 51.795C43.0297 51.2887 44.0399 50.8716 45.072 50.5559C45.6069 50.3923 45.9956 49.9321 46.0655 49.3802L46.6879 44.4666C46.7267 44.1601 46.9895 43.9291 47.2994 43.9291H53.0571C53.3669 43.9291 53.6296 44.1603 53.6685 44.4666L54.2906 49.3804C54.3605 49.9323 54.7493 50.3923 55.2843 50.5561C56.3165 50.872 57.3266 51.2889 58.2866 51.7952C58.7816 52.0561 59.385 52.0043 59.8276 51.6626L63.762 48.6245C64.0066 48.4358 64.3557 48.4577 64.5745 48.6755L68.6459 52.7258C68.8656 52.9444 68.8876 53.2939 68.697 53.5383L65.6432 57.4521C65.3003 57.8916 65.2482 58.4897 65.51 58.9811C66.0191 59.9367 66.4384 60.9419 66.7559 61.9688C66.9203 62.5005 67.3832 62.8872 67.9387 62.9569L72.8779 63.576C73.1854 63.6146 73.4173 63.8767 73.4173 64.1858V69.9136ZM86.4962 50.5192C81.825 55.5 75.5859 58.6127 68.8325 59.3581C68.7095 59.0634 68.5794 58.7714 68.4422 58.4826L70.3923 55.9831C75.5675 55.0071 80.3994 52.3943 84.0494 48.5761C84.591 48.0096 84.5679 47.1139 83.9978 46.5758C83.4278 46.0377 82.5267 46.0606 81.9851 46.627C79.1683 49.5736 75.5596 51.7106 71.6485 52.7893C71.5661 52.0314 71.2361 51.2983 70.6603 50.7255L66.589 46.6752C65.3572 45.45 63.3908 45.3271 62.015 46.3898L58.7894 48.8805C58.2061 48.6066 57.6097 48.3603 57.0042 48.1438L56.4938 44.113C56.2761 42.395 54.7987 41.0992 53.0573 41.0992H47.2996C46.7085 41.0992 46.1496 41.2513 45.6584 41.5157C43.9961 38.3369 43.122 34.8008 43.122 31.1824C43.122 18.8211 53.2301 8.76454 65.6544 8.76454C78.0788 8.76454 88.187 18.8211 88.187 31.1824C88.187 35.1073 87.153 38.9688 85.1967 42.349C84.8047 43.0265 85.0394 43.8913 85.7211 44.281C86.4027 44.6706 87.2731 44.4373 87.6651 43.7598C89.8694 39.9509 91.0345 35.6017 91.0345 31.1824C91.0345 17.2608 79.6491 5.93485 65.6546 5.93485C51.6601 5.93485 40.2747 17.2608 40.2747 31.1824C40.2747 35.7573 41.5152 40.2164 43.862 44.1206L43.3526 48.1438C43.2135 48.1935 43.0748 48.2453 42.9367 48.2982C39.2028 43.3944 37.1565 37.3582 37.1565 31.1824C37.1565 15.5487 49.9406 2.82988 65.6546 2.82988C81.3684 2.82988 94.1527 15.5487 94.1527 31.1824C94.1527 38.3872 91.4335 45.2544 86.4962 50.5192Z" fill="#F4B434"/>
<path d="M50.1784 56.3757C44.2616 56.3757 39.4479 61.1639 39.4479 67.0494C39.4479 69.7355 40.4547 72.3023 42.2823 74.2772C42.8147 74.8524 43.7154 74.8899 44.2939 74.3608C44.8727 73.8317 44.9102 72.9366 44.3781 72.3616C43.0348 70.9103 42.2952 69.0237 42.2952 67.0494C42.2952 62.7242 45.8316 59.2054 50.1784 59.2054C54.5252 59.2054 58.0615 62.7242 58.0615 67.0494C58.0615 71.3746 54.5252 74.8933 50.1784 74.8933C49.6426 74.8933 49.1076 74.8396 48.5885 74.734C47.8183 74.5775 47.0658 75.0706 46.908 75.8362C46.7502 76.6017 47.2468 77.3494 48.0169 77.5062C48.7237 77.6503 49.4511 77.7231 50.1782 77.7231C56.095 77.7231 60.9086 72.9349 60.9086 67.0494C60.909 61.1639 56.0952 56.3757 50.1784 56.3757Z" fill="#F4B434"/>
<path d="M33.2276 40.4975C33.2276 35.1514 28.855 30.8021 23.4804 30.8021C22.6942 30.8021 22.0567 31.4356 22.0567 32.217C22.0567 32.9984 22.694 33.6319 23.4804 33.6319C27.285 33.6319 30.3803 36.7119 30.3803 40.4977C30.3803 44.2834 27.285 47.3634 23.4804 47.3634C19.6758 47.3634 16.5807 44.2834 16.5807 40.4977C16.5807 38.4704 17.4748 36.5571 19.0334 35.248C19.634 34.7436 19.7094 33.8509 19.2018 33.2541C18.6943 32.6572 17.7961 32.5823 17.1955 33.0867C14.9952 34.9347 13.7333 37.6358 13.7333 40.4977C13.7333 45.8437 18.1058 50.1931 23.4804 50.1931C28.855 50.1931 33.2276 45.8436 33.2276 40.4975Z" fill="#F4B434"/>
</svg>
