<svg width="64" height="53" viewBox="0 0 64 53" fill="none" xmlns="http://www.w3.org/2000/svg">
<path d="M9.21925 42.7089C7.26238 42.7089 5.67025 44.3205 5.67025 46.3014C5.67025 48.2823 7.26225 49.8939 9.21925 49.8939C11.1763 49.8939 12.7684 48.2823 12.7684 46.3014C12.7684 44.3205 11.1761 42.7089 9.21925 42.7089ZM9.21925 47.9966C8.29625 47.9966 7.54525 47.236 7.54525 46.3014C7.54525 45.3668 8.29625 44.6062 9.21925 44.6062C10.1424 44.6062 10.8934 45.3668 10.8934 46.3014C10.8934 47.236 10.1424 47.9966 9.21925 47.9966Z" fill="#F0C73E"/>
<path d="M48.706 49.8941C50.6629 49.8941 52.255 48.2825 52.255 46.3015C52.255 44.3206 50.663 42.709 48.706 42.709C46.749 42.709 45.1569 44.3206 45.1569 46.3015C45.1569 48.2823 46.749 49.8941 48.706 49.8941ZM48.706 44.6062C49.629 44.6062 50.38 45.3668 50.38 46.3014C50.38 47.236 49.629 47.9966 48.706 47.9966C47.7829 47.9966 47.0319 47.236 47.0319 46.3014C47.0319 45.3668 47.7829 44.6062 48.706 44.6062Z" fill="#F0C73E"/>
<path d="M13.327 44.0929C13.1504 44.3356 13.0983 44.649 13.1866 44.937C13.3215 45.3769 13.39 45.8358 13.39 46.3014C13.39 46.7669 13.3215 47.226 13.1865 47.666C13.0983 47.9539 13.1504 48.2672 13.3271 48.5099C13.5038 48.7526 13.7839 48.8959 14.0819 48.8959H43.8431C44.1411 48.8959 44.4213 48.7526 44.5979 48.5099C44.7746 48.2672 44.8268 47.9539 44.7385 47.666C44.6035 47.2259 44.535 46.7669 44.535 46.3014C44.535 45.8358 44.6035 45.3768 44.7385 44.937C44.8268 44.6491 44.7746 44.3356 44.598 44.0929C44.4213 43.8502 44.1411 43.7069 43.8431 43.7069H14.0819C13.7841 43.7069 13.5038 43.8502 13.327 44.0929ZM15.2285 45.6042H42.6969C42.6725 45.835 42.6601 46.0677 42.6601 46.3014C42.6601 46.5352 42.6725 46.7678 42.6969 46.9986H15.2284C15.2528 46.7678 15.2651 46.5352 15.2651 46.3014C15.2651 46.0677 15.2529 45.835 15.2285 45.6042Z" fill="#F0C73E"/>
<path d="M25.0665 29.818C24.5486 29.818 24.129 30.2426 24.129 30.7667C24.129 31.2907 24.5486 31.7153 25.0665 31.7153H27.2483C27.7661 31.7153 28.1858 31.2907 28.1858 30.7667C28.1858 30.2426 27.7661 29.818 27.2483 29.818H25.0665Z" fill="#F0C73E"/>
<path d="M5.33563 33.2051C5.68263 33.2051 6.01625 33.0092 6.17875 32.6725L8.39213 28.086C8.61925 27.6152 8.42625 27.0471 7.96113 26.8173C7.49575 26.5872 6.93438 26.7828 6.70738 27.2534L4.494 31.8399C4.26688 32.3107 4.45988 32.8788 4.925 33.1086C5.05738 33.1741 5.1975 33.2051 5.33563 33.2051Z" fill="#F0C73E"/>
<path d="M9.7695 33.2051C10.1165 33.2051 10.4501 33.0093 10.6126 32.6725L12.8261 28.086C13.0533 27.6152 12.8604 27.0471 12.3951 26.8173C11.9296 26.5872 11.3684 26.7827 11.1414 27.2534L8.92788 31.8399C8.70075 32.3107 8.89363 32.8788 9.35888 33.1086C9.49138 33.1741 9.6315 33.2051 9.7695 33.2051Z" fill="#F0C73E"/>
<path d="M14.2038 33.2051C14.5508 33.2051 14.8844 33.0093 15.0469 32.6725L17.2604 28.086C17.4875 27.6152 17.2946 27.0471 16.8294 26.8173C16.364 26.5872 15.8028 26.7827 15.5756 27.2534L13.3621 31.8399C13.135 32.3107 13.3279 32.8788 13.7931 33.1086C13.9255 33.1741 14.0656 33.2051 14.2038 33.2051Z" fill="#F0C73E"/>
<path d="M63.6575 27.8005L61.3476 22.3864C61.3358 22.3586 61.3225 22.3315 61.3081 22.3051L57.3558 12.7502C57.1559 12.2669 56.6063 12.0391 56.1291 12.2415C55.6515 12.4437 55.4264 12.9995 55.6264 13.4827L59.2595 22.2657L58.0179 22.8088L49.7151 6.67826L49.715 6.67813L48.4328 4.18655C48.4318 4.18453 48.431 4.18238 48.43 4.18036C48.4039 4.12913 48.381 4.07701 48.3608 4.02427C48.3541 4.00681 48.3491 3.98898 48.3431 3.9714C48.3299 3.93282 48.3173 3.89411 48.3071 3.85477C48.3024 3.83618 48.2988 3.81746 48.2946 3.79874C48.2858 3.75826 48.278 3.71766 48.2724 3.67655C48.2701 3.66036 48.2684 3.64417 48.2668 3.62785C48.262 3.58232 48.2591 3.5364 48.2584 3.49023C48.2553 3.30075 48.2849 3.11001 48.3516 2.92483C48.5025 2.50678 48.8095 2.18335 49.216 2.01398C49.9994 1.68777 50.9033 2.0661 51.2306 2.85728L54.1649 9.95065C54.3649 10.4341 54.9146 10.6619 55.3915 10.4594C55.8691 10.2571 56.0943 9.70134 55.8943 9.21815L52.96 2.12466C52.236 0.374306 50.2363 -0.462544 48.5024 0.259455C47.6159 0.628423 46.919 1.36282 46.5901 2.27404C46.5271 2.44847 46.4789 2.62695 46.4448 2.80719L32.1884 8.74268C31.9454 8.7079 31.6975 8.68867 31.4451 8.68867H27.6503C26.3101 8.68867 25.2199 9.79229 25.2199 11.1488V15.2237H22.7028C21.5074 15.2237 20.5348 16.2081 20.5348 17.4182V22.8063C20.5348 22.9702 20.4033 23.1035 20.2418 23.1035H2.168C0.9725 23.1036 0 24.0879 0 25.2979V27.5995C0 28.1236 0.419625 28.5482 0.9375 28.5482C1.45538 28.5482 1.875 28.1236 1.875 27.5995V25.2979C1.875 25.1341 2.0065 25.0008 2.168 25.0008H20.2419C21.4373 25.0008 22.4099 24.0165 22.4099 22.8063V17.4182C22.4099 17.2544 22.5414 17.1211 22.7029 17.1211H36.4303C36.5673 17.1211 36.6896 17.1985 36.7499 17.3233L39.6001 23.2331C39.6815 23.4022 39.7246 23.5908 39.7246 23.7788V35.2718C39.7246 35.4707 39.5651 35.6326 39.3689 35.6326H2.168C2.0065 35.6326 1.875 35.4993 1.875 35.3354V31.4219C1.875 30.8978 1.45538 30.4732 0.9375 30.4732C0.419625 30.4732 0 30.8978 0 31.4219V35.3354C0 36.5454 0.9725 37.5299 2.168 37.5299H18.6744V39.6026H8.33775C4.68838 39.6026 1.71925 42.6069 1.71925 46.3027C1.71925 49.9955 4.68825 53 8.33775 53H49.5875C53.2369 53 56.206 49.9956 56.206 46.2998C56.206 42.607 53.237 39.6026 49.5875 39.6026H38.1755V37.5299H39.3689C40.5989 37.5299 41.5996 36.517 41.5996 35.2718V23.7788C41.5996 23.3042 41.4909 22.8279 41.2851 22.4011L38.4349 16.4911C38.1065 15.8101 37.453 15.3431 36.7209 15.244V14.7586L48.4895 8.4042L56.2918 23.5634L47.491 27.4121C46.8953 27.6728 46.5219 28.2425 46.5165 28.8993C46.5111 29.5462 46.884 30.1363 47.4666 30.4028L55.94 34.2779C56.4844 34.5269 57.0634 34.6532 57.6609 34.6532C58.2343 34.6532 58.7919 34.5364 59.3184 34.3063L61.4781 33.3618C63.5935 32.437 64.5711 29.942 63.6575 27.8005ZM20.5494 37.53H36.3005V39.6027H20.5494V37.53ZM49.5874 41.5001C52.2029 41.5001 54.331 43.6532 54.331 46.3029C54.331 48.9496 52.2031 51.1029 49.5875 51.1029H8.33775C5.72225 51.1029 3.59425 48.9497 3.59425 46.3C3.59425 43.6534 5.72213 41.5001 8.33775 41.5001H49.5874ZM34.8454 14.0294V15.2241H27.095V11.149C27.095 10.8387 27.3441 10.5863 27.6504 10.5863H31.4453C31.6766 10.5863 31.9026 10.61 32.1211 10.6548C32.2061 10.6721 32.2894 10.6936 32.3718 10.7173C32.391 10.7229 32.4103 10.7281 32.4294 10.7339C32.5046 10.7569 32.5784 10.7828 32.6511 10.8108C32.6759 10.8203 32.7005 10.8301 32.7249 10.8402C32.7935 10.8686 32.8611 10.8986 32.9274 10.9312C32.9529 10.9437 32.9778 10.9572 33.0029 10.9704C33.0574 10.9989 33.1109 11.0287 33.1635 11.0601C33.1939 11.0782 33.2239 11.0968 33.2536 11.1157C33.3048 11.1484 33.3549 11.1824 33.404 11.2177C33.4264 11.2338 33.449 11.2493 33.4709 11.2659C33.5298 11.3103 33.5869 11.357 33.6428 11.405C33.6619 11.4215 33.6809 11.438 33.6995 11.4549C33.7571 11.5067 33.8133 11.5602 33.8671 11.6159C33.8794 11.6285 33.8913 11.6416 33.9034 11.6545C33.9619 11.7167 34.019 11.7803 34.0728 11.8468C34.0734 11.8477 34.074 11.8486 34.0748 11.8494C34.134 11.9227 34.1904 11.9986 34.2435 12.0768C34.2445 12.0782 34.2455 12.0797 34.2465 12.0811C34.2995 12.1591 34.3493 12.2396 34.3959 12.3221C34.3974 12.3247 34.3989 12.3273 34.4003 12.3298C34.587 12.6618 34.7199 13.0271 34.7895 13.4123C34.7913 13.4221 34.793 13.432 34.7948 13.442C34.81 13.531 34.8219 13.6211 34.8303 13.7121C34.8314 13.7242 34.832 13.7363 34.833 13.7486C34.8405 13.8413 34.8453 13.9348 34.8453 14.0292V14.0294H34.8454ZM36.5549 12.6979C36.3705 11.9731 36.0381 11.3084 35.5941 10.7364C35.583 10.7221 35.5721 10.7078 35.5609 10.6935C35.5275 10.6514 35.4935 10.61 35.459 10.5691C35.4405 10.547 35.4219 10.5253 35.403 10.5037C35.3726 10.4689 35.3421 10.4342 35.311 10.4002C35.2845 10.3712 35.2574 10.3428 35.2303 10.3144C35.2045 10.2875 35.1789 10.2604 35.1525 10.234C35.111 10.1922 35.0684 10.1516 35.0255 10.1114C35.0119 10.0986 34.9988 10.0855 34.985 10.0728C34.8724 9.96925 34.7554 9.87021 34.6339 9.77648L46.6391 4.77814C46.6424 4.78624 46.6468 4.79395 46.6501 4.80205C46.6866 4.89034 46.7258 4.97774 46.7698 5.06312L47.6234 6.72164L36.5549 12.6979ZM60.7343 31.6205L58.5745 32.565C57.982 32.8239 57.3008 32.8183 56.7125 32.5494L48.7735 28.9187L57.8869 24.9334C57.9128 24.9247 57.9385 24.9154 57.964 24.9043L59.9984 24.0113L61.9361 28.5527C62.4401 29.7338 61.9009 31.1101 60.7343 31.6205Z" fill="#F0C73E"/>
<path d="M36.928 28.5535C37.593 28.5535 38.134 28.0058 38.134 27.3329V24.0561C38.134 23.8726 38.0921 23.6881 38.0118 23.5208L35.8449 19.0277C35.6441 18.6115 35.2186 18.3426 34.761 18.3426H25.1848C24.5198 18.3426 23.9788 18.8901 23.9788 19.563V24.0263C23.9788 24.3499 24.1091 24.6661 24.3371 24.8946L27.6441 28.2014C27.8713 28.4284 28.1724 28.5535 28.4916 28.5535H36.928ZM25.8538 23.7436V20.2398H34.3431L36.259 24.2123V26.656H28.7665L25.8538 23.7436Z" fill="#F0C73E"/>
</svg>
