<svg width="48" height="27" viewBox="0 0 48 27" fill="none" xmlns="http://www.w3.org/2000/svg">
<path d="M13.9606 18.0849C13.5838 18.1821 13.357 18.5668 13.4539 18.9441C13.502 19.1312 13.5263 19.3253 13.5263 19.5209C13.5263 20.7918 12.4939 21.8258 11.225 21.8258C9.95602 21.8258 8.92369 20.7918 8.92369 19.5209C8.92369 18.25 9.95611 17.216 11.2251 17.216C11.4204 17.216 11.6143 17.2405 11.8012 17.2887C12.1776 17.3856 12.562 17.1586 12.659 16.7812C12.7561 16.4039 12.5292 16.0192 12.1525 15.922C11.8508 15.8442 11.5388 15.8048 11.225 15.8048C9.17919 15.8049 7.51469 17.4719 7.51469 19.5209C7.51469 21.5699 9.17919 23.2369 11.2251 23.2369C13.2709 23.2369 14.9354 21.5699 14.9354 19.5209C14.9354 19.2067 14.8961 18.8943 14.8185 18.5923C14.7214 18.2149 14.3373 17.9877 13.9606 18.0849Z" fill="#EBBC2D"/>
<path d="M37.2561 18.0849C36.8793 18.1821 36.6525 18.5668 36.7494 18.9441C36.7975 19.1312 36.8218 19.3253 36.8218 19.5209C36.8218 20.7918 35.7894 21.8258 34.5205 21.8258C33.2515 21.8258 32.2192 20.7918 32.2192 19.5209C32.2192 18.25 33.2516 17.216 34.5206 17.216C34.7159 17.216 34.9098 17.2405 35.0966 17.2887C35.4733 17.3856 35.8575 17.1586 35.9545 16.7812C36.0516 16.4039 35.8247 16.0192 35.448 15.922C35.1463 15.8442 34.8343 15.8048 34.5205 15.8048C32.4746 15.8048 30.8101 17.4718 30.8101 19.5208C30.8101 21.5698 32.4746 23.2368 34.5205 23.2368C36.5663 23.2368 38.2308 21.5698 38.2308 19.5208C38.2308 19.2066 38.1915 18.8942 38.1139 18.5922C38.0169 18.2149 37.6328 17.9877 37.2561 18.0849Z" fill="#EBBC2D"/>
<path d="M47.2955 0H36.7752C36.775 0 36.775 0 36.7748 0H11.7187C10.7276 0 9.79577 0.386467 9.09502 1.08837L0.206385 9.99066C0.00489741 10.1925 -0.0554079 10.4959 0.0536489 10.7595C0.162706 11.0232 0.41952 11.1951 0.704514 11.1951H6.01175V11.2422C6.01175 12.1015 6.50406 12.8472 7.22068 13.2129C5.14071 14.542 3.75735 16.872 3.75735 19.5209C3.75735 23.6449 7.10739 27 11.2251 27C15.1051 27 18.3023 24.0207 18.6586 20.2265H27.087C27.4433 24.0207 30.6405 27 34.5206 27C37.5875 27 40.2274 25.1381 41.3756 22.4843H45.7926C46.5954 22.4843 47.2485 21.8302 47.2485 21.0261V11.2422C47.2485 10.4381 46.5954 9.78397 45.7926 9.78397H43.4912V6.72648C43.4912 5.50744 42.5009 4.51568 41.2838 4.51568H35.272C34.8829 4.51568 34.5675 4.83159 34.5675 5.22125V9.78397H28.7066L37.0667 1.41115H47.2955C47.6846 1.41115 48 1.09524 48 0.705575C48 0.315909 47.6846 0 47.2955 0ZM11.2251 25.5889C7.88432 25.5889 5.16635 22.8668 5.16635 19.5209C5.16635 16.175 7.88432 13.453 11.2251 13.453C14.5658 13.453 17.2838 16.1751 17.2838 19.5209C17.2838 22.8667 14.5659 25.5889 11.2251 25.5889ZM34.5206 25.5889C31.1798 25.5889 28.4618 22.8667 28.4618 19.5209C28.4618 16.1751 31.1798 13.453 34.5206 13.453C37.8613 13.453 40.5793 16.1751 40.5793 19.5209C40.5793 22.8667 37.8614 25.5889 34.5206 25.5889ZM45.8395 11.2422V21.0261C45.8395 21.052 45.8185 21.0732 45.7926 21.0732H41.8255C41.9315 20.5721 41.9883 20.0531 41.9883 19.5209C41.9883 15.397 38.6382 12.0418 34.5206 12.0418C30.6405 12.0418 27.4433 15.0211 27.087 18.8153H18.6586C18.3023 15.0211 15.1051 12.0418 11.2251 12.0418H8.21919C7.77892 12.0418 7.42075 11.6831 7.42075 11.2422V11.1951H45.7926C45.8185 11.1951 45.8395 11.2163 45.8395 11.2422ZM35.9765 5.92683H41.2838C41.724 5.92683 42.0822 6.28554 42.0822 6.72648V6.77352H37.5264C37.1373 6.77352 36.8219 7.08943 36.8219 7.47909C36.8219 7.86876 37.1373 8.18467 37.5264 8.18467H42.0822V9.78397H35.9765V5.92683ZM26.7141 9.78397H2.40537L10.0914 2.08624C10.526 1.65095 11.104 1.41115 11.7187 1.41115H35.0742L26.7141 9.78397Z" fill="#EBBC2D"/>
<path d="M25.0048 8.7306C25.1423 8.86832 25.3227 8.93728 25.5029 8.93728C25.6832 8.93728 25.8636 8.86842 26.0011 8.7306L31.2613 3.4623C31.5365 3.18675 31.5365 2.74008 31.2613 2.46453C30.9862 2.18898 30.5401 2.18898 30.2651 2.46453L25.0048 7.73282C24.7297 8.00837 24.7297 8.45505 25.0048 8.7306Z" fill="#EBBC2D"/>
<path d="M21.2475 8.7306C21.385 8.86832 21.5653 8.93728 21.7456 8.93728C21.9259 8.93728 22.1062 8.86842 22.2437 8.7306L27.504 3.4623C27.7791 3.18675 27.7791 2.74008 27.504 2.46453C27.2289 2.18898 26.7828 2.18898 26.5077 2.46453L21.2475 7.73282C20.9723 8.00837 20.9723 8.45505 21.2475 8.7306Z" fill="#EBBC2D"/>
<path d="M17.4901 8.7306C17.6277 8.86832 17.808 8.93728 17.9883 8.93728C18.1685 8.93728 18.3489 8.86842 18.4864 8.7306L23.7467 3.4623C24.0218 3.18675 24.0218 2.74008 23.7467 2.46453C23.4715 2.18898 23.0254 2.18898 22.7504 2.46453L17.4901 7.73282C17.215 8.00837 17.215 8.45505 17.4901 8.7306Z" fill="#EBBC2D"/>
<path d="M13.7328 8.7306C13.8703 8.86832 14.0507 8.93728 14.2309 8.93728C14.4112 8.93728 14.5915 8.86842 14.7291 8.7306L19.9893 3.4623C20.2645 3.18675 20.2645 2.74008 19.9893 2.46453C19.7142 2.18898 19.2681 2.18898 18.9931 2.46453L13.7328 7.73282C13.4577 8.00837 13.4577 8.45505 13.7328 8.7306Z" fill="#EBBC2D"/>
<path d="M9.97546 8.7306C10.113 8.86832 10.2933 8.93728 10.4736 8.93728C10.6538 8.93728 10.8342 8.86842 10.9717 8.7306L16.232 3.4623C16.5071 3.18675 16.5071 2.74008 16.232 2.46453C15.9569 2.18898 15.5108 2.18898 15.2357 2.46453L9.97546 7.73282C9.70033 8.00837 9.70033 8.45505 9.97546 8.7306Z" fill="#EBBC2D"/>
<path d="M6.21812 7.73282C5.94299 8.00837 5.94299 8.45505 6.21812 8.7306C6.35564 8.86842 6.536 8.93728 6.71625 8.93728C6.89651 8.93728 7.07686 8.86842 7.21438 8.7306L12.4747 3.4623C12.7498 3.18675 12.7498 2.74008 12.4747 2.46453C12.1995 2.18898 11.7534 2.18898 11.4784 2.46453L6.21812 7.73282Z" fill="#EBBC2D"/>
<path d="M26.2544 15.0523H19.4912C19.1021 15.0523 18.7867 15.3682 18.7867 15.7578C18.7867 16.1475 19.1021 16.4634 19.4912 16.4634H26.2544C26.6435 16.4634 26.9589 16.1475 26.9589 15.7578C26.9589 15.3682 26.6435 15.0523 26.2544 15.0523Z" fill="#EBBC2D"/>
</svg>
