<svg width="102" height="83" viewBox="0 0 102 83" fill="none" xmlns="http://www.w3.org/2000/svg">
<path d="M24.6944 51.9914L47.9478 64.9619C48.9034 65.4951 49.9517 65.7616 51 65.7616C52.0483 65.7616 53.0968 65.4949 54.0522 64.9619L77.3056 51.9914C79.2996 50.8791 80.5384 48.7655 80.5384 46.4751V19.2861C80.5384 16.9957 79.2996 14.8821 77.3056 13.77L54.0522 0.799576C52.1409 -0.266525 49.8589 -0.266525 47.9476 0.799576L24.6944 13.77C22.7002 14.8821 21.4614 16.9957 21.4614 19.2861V46.4751C21.4616 48.7653 22.7004 50.8791 24.6944 51.9914ZM77.5501 46.4751C77.5501 47.6764 76.9002 48.7851 75.8543 49.3686L52.6009 62.339C51.5985 62.8983 50.4013 62.8983 49.3989 62.339L26.1457 49.3686C25.0998 48.7851 24.4499 47.6764 24.4499 46.4751V19.2861C24.4499 19.1941 24.4549 19.1029 24.4625 19.0123L49.5059 32.9812V56.8311C49.5059 57.6596 50.1748 58.3313 51 58.3313C51.8252 58.3313 52.4941 57.6596 52.4941 56.8311V32.9812L77.5375 19.0123C77.5451 19.1029 77.5501 19.1941 77.5501 19.2861V46.4751ZM49.3991 3.42222C49.9003 3.1426 50.4502 3.00279 51 3.00279C51.5498 3.00279 52.0999 3.1426 52.6009 3.42222L75.8543 16.3927C75.8916 16.4135 75.927 16.4363 75.9631 16.4583L51 30.3826L26.0367 16.4585C26.073 16.4365 26.1084 16.4135 26.1455 16.3929L49.3991 3.42222Z" fill="#F4B434"/>
<path d="M86.6566 35.3679C85.9137 35.0066 85.0202 35.3189 84.6608 36.0647C84.3014 36.8106 84.6122 37.7075 85.3549 38.0685C94.1617 42.3469 99.0117 47.9071 99.0117 53.7246C99.0117 59.379 94.4588 63.7022 90.6392 66.3332C89.9586 66.8021 89.7855 67.7358 90.2525 68.419C90.5421 68.8429 91.0099 69.0705 91.4858 69.0705C91.7771 69.0705 92.0713 68.9853 92.3297 68.8072C98.6561 64.4494 102 59.2339 102 53.7246C102 46.694 96.551 40.1747 86.6566 35.3679Z" fill="#F4B434"/>
<path d="M84.5887 70.2978L69.1582 68.8559C68.3362 68.779 67.6085 69.3855 67.532 70.2104C67.4555 71.0353 68.0595 71.7663 68.8811 71.8431L77.0582 72.6074C69.2976 75.011 60.3876 76.2752 51 76.2752C37.9974 76.2752 25.7964 73.8267 16.6449 69.3807C7.83826 65.1023 2.98828 59.5422 2.98828 53.7246C2.98828 47.9385 7.79384 42.4001 16.5194 38.1297C17.2613 37.7667 17.5695 36.8686 17.2079 36.1239C16.8463 35.3791 15.9514 35.0696 15.2102 35.4327C5.40162 40.2331 0 46.7292 0 53.7246C0 60.7553 5.44903 67.2747 15.3432 72.0814C24.8926 76.7206 37.5557 79.2754 51 79.2754C60.3695 79.2754 69.3016 78.0515 77.1614 75.7145L71.4072 80.3273C70.7623 80.8442 70.6569 81.7881 71.1719 82.4357C71.4669 82.8068 71.9016 83 72.3405 83C72.6674 83 72.9965 82.8928 73.2719 82.672L85.3826 72.9638C85.8589 72.582 86.0563 71.9481 85.8818 71.3619C85.7071 70.7756 85.1953 70.3546 84.5887 70.2978Z" fill="#F4B434"/>
</svg>
