<svg width="32" height="32" viewBox="0 0 32 32" fill="none" xmlns="http://www.w3.org/2000/svg">
<g id="file" clip-path="url(#clip0_15_8243)">
<g id="Group">
<g id="Group_2">
<path id="Vector" d="M19.6875 5.6875H12.1875C11.6697 5.6875 11.25 6.10725 11.25 6.625C11.25 7.14275 11.6697 7.5625 12.1875 7.5625H19.6875C20.2052 7.5625 20.625 7.14275 20.625 6.625C20.625 6.10725 20.2052 5.6875 19.6875 5.6875Z" fill="#F3C538"/>
</g>
</g>
<g id="Group_3">
<g id="Group_4">
<path id="Vector_2" d="M19.6875 9.4375H12.1875C11.6697 9.4375 11.25 9.85725 11.25 10.375C11.25 10.8928 11.6697 11.3125 12.1875 11.3125H19.6875C20.2052 11.3125 20.625 10.8928 20.625 10.375C20.625 9.85725 20.2052 9.4375 19.6875 9.4375Z" fill="#F3C538"/>
</g>
</g>
<g id="Group_5">
<g id="Group_6">
<path id="Vector_3" d="M19.6875 13.1875H4.6875C4.16975 13.1875 3.75 13.6072 3.75 14.125C3.75 14.6428 4.16975 15.0625 4.6875 15.0625H19.6875C20.2052 15.0625 20.625 14.6428 20.625 14.125C20.625 13.6072 20.2052 13.1875 19.6875 13.1875Z" fill="#F3C538"/>
</g>
</g>
<g id="Group_7">
<g id="Group_8">
<path id="Vector_4" d="M16.2889 16.9375H4.6875C4.16975 16.9375 3.75 17.3572 3.75 17.875C3.75 18.3928 4.16975 18.8125 4.6875 18.8125H16.2889C16.8066 18.8125 17.2264 18.3928 17.2264 17.875C17.2264 17.3572 16.8066 16.9375 16.2889 16.9375Z" fill="#F3C538"/>
</g>
</g>
<g id="Group_9">
<g id="Group_10">
<path id="Vector_5" d="M24.4375 16.9375V2.8125C24.4375 1.258 23.119 0 21.5625 0H8.43738C8.19969 0 7.95519 0.094 7.77187 0.277375L0.271875 7.83988C0.0995625 8.01356 0 8.25513 0 8.5V29.1875C0 30.7383 1.26169 32 2.8125 32C4.79037 32 5.44712 32 5.44431 32C8.3195 32 13.9771 32 24.4375 32C28.5771 32 32 28.5916 32 24.4375C32 20.302 28.6075 16.9375 24.4375 16.9375ZM7.5 3.21419V7.5625H3.18762L7.5 3.21419ZM2.8125 30.125C2.29556 30.125 1.875 29.7044 1.875 29.1875V9.4375H8.4375C8.95525 9.4375 9.375 9.01775 9.375 8.5V1.875H21.5625C22.0952 1.875 22.5625 2.31306 22.5625 2.8125V17.1709C20.5726 17.6762 18.8964 18.9662 17.8902 20.6875H4.6875C4.16975 20.6875 3.75 21.1073 3.75 21.625C3.75 22.1427 4.16975 22.5625 4.6875 22.5625H17.1143C16.9581 23.162 16.875 23.7903 16.875 24.4375H4.6875C4.16975 24.4375 3.75 24.8573 3.75 25.375C3.75 25.8927 4.16975 26.3125 4.6875 26.3125H17.1128C17.4917 27.7786 18.3111 29.0999 19.4804 30.125H2.8125ZM24.4375 30.125C21.3546 30.125 18.75 27.5204 18.75 24.4375C18.75 21.3359 21.3014 18.8125 24.4375 18.8125C27.5736 18.8125 30.125 21.3359 30.125 24.4375C30.125 27.5204 27.5204 30.125 24.4375 30.125Z" fill="#F3C538"/>
</g>
</g>
<g id="Group_11">
<g id="Group_12">
<path id="Vector_6" d="M27.9811 22.8426C27.6181 22.4735 27.0245 22.4685 26.6553 22.8316L23.4949 25.9402L22.2147 24.7013C21.8426 24.3412 21.2491 24.351 20.889 24.723C20.529 25.0951 20.5387 25.6886 20.9108 26.0487L22.8483 27.9237C23.2137 28.2774 23.7948 28.2752 24.1577 27.9184L27.9702 24.1684C28.3393 23.8053 28.3442 23.2117 27.9811 22.8426Z" fill="#F3C538"/>
</g>
</g>
</g>
<defs>
<clipPath id="clip0_15_8243">
<rect width="32" height="32" fill="white"/>
</clipPath>
</defs>
</svg>
