<svg width="18" height="25" viewBox="0 0 18 25" fill="none" xmlns="http://www.w3.org/2000/svg">
<path d="M8.66667 0.885986C3.88784 0.885986 0 4.78515 0 9.57784C0 15.5257 7.75582 24.2576 8.08603 24.6264C8.39619 24.9728 8.93771 24.9722 9.24731 24.6264C9.57752 24.2576 17.3333 15.5257 17.3333 9.57784C17.3332 4.78515 13.4454 0.885986 8.66667 0.885986ZM8.66667 13.951C6.26232 13.951 4.30629 11.9892 4.30629 9.57784C4.30629 7.16649 6.26237 5.20477 8.66667 5.20477C11.071 5.20477 13.027 7.16654 13.027 9.57789C13.027 11.9892 11.071 13.951 8.66667 13.951Z" fill="#F4B434"/>
</svg>
