<svg width="75" height="84" viewBox="0 0 75 84" fill="none" xmlns="http://www.w3.org/2000/svg">
<path d="M27.0159 42.0739H10.4247C9.74301 42.0739 9.19062 42.6248 9.19062 43.3044C9.19062 43.9839 9.74301 44.5349 10.4247 44.5349H27.0159C27.6976 44.5349 28.25 43.9839 28.25 43.3044C28.25 42.6248 27.6976 42.0739 27.0159 42.0739Z" fill="#F4B434"/>
<path d="M27.0159 52.8059H10.4247C9.74301 52.8059 9.19062 53.3568 9.19062 54.0364C9.19062 54.7159 9.74301 55.2669 10.4247 55.2669H27.0159C27.6976 55.2669 28.25 54.7159 28.25 54.0364C28.25 53.3568 27.6976 52.8059 27.0159 52.8059Z" fill="#F4B434"/>
<path d="M27.0159 63.5381H10.4247C9.74301 63.5381 9.19062 64.089 9.19062 64.7686C9.19062 65.4481 9.74301 65.999 10.4247 65.999H27.0159C27.6976 65.999 28.25 65.4481 28.25 64.7686C28.25 64.089 27.6976 63.5381 27.0159 63.5381Z" fill="#F4B434"/>
<path d="M40.8561 51.2731H43.4754C44.1571 51.2731 44.7095 50.7222 44.7095 50.0426C44.7095 49.3631 44.1571 48.8121 43.4754 48.8121H40.8561C40.1744 48.8121 39.622 49.3631 39.622 50.0426C39.622 50.7222 40.1745 51.2731 40.8561 51.2731Z" fill="#F4B434"/>
<path d="M51.4322 48.8121H48.813C48.1312 48.8121 47.5789 49.3631 47.5789 50.0426C47.5789 50.7222 48.1312 51.2731 48.813 51.2731H51.4322C52.1139 51.2731 52.6663 50.7222 52.6663 50.0426C52.6663 49.3631 52.1138 48.8121 51.4322 48.8121Z" fill="#F4B434"/>
<path d="M59.3889 48.8121H56.7696C56.0879 48.8121 55.5355 49.3631 55.5355 50.0426C55.5355 50.7222 56.0879 51.2731 56.7696 51.2731H59.3889C60.0706 51.2731 60.623 50.7222 60.623 50.0426C60.623 49.3631 60.0706 48.8121 59.3889 48.8121Z" fill="#F4B434"/>
<path d="M67.3458 48.8121H64.7267C64.0449 48.8121 63.4925 49.3631 63.4925 50.0426C63.4925 50.7222 64.0449 51.2731 64.7267 51.2731H67.3458C68.0275 51.2731 68.5799 50.7222 68.5799 50.0426C68.5799 49.3631 68.0273 48.8121 67.3458 48.8121Z" fill="#F4B434"/>
<path d="M40.8561 57.6715H43.4754C44.1571 57.6715 44.7095 57.1206 44.7095 56.4411C44.7095 55.7615 44.1571 55.2106 43.4754 55.2106H40.8561C40.1744 55.2106 39.622 55.7615 39.622 56.4411C39.622 57.1206 40.1745 57.6715 40.8561 57.6715Z" fill="#F4B434"/>
<path d="M51.4322 55.2106H48.813C48.1312 55.2106 47.5789 55.7615 47.5789 56.4411C47.5789 57.1206 48.1312 57.6715 48.813 57.6715H51.4322C52.1139 57.6715 52.6663 57.1206 52.6663 56.4411C52.6663 55.7615 52.1138 55.2106 51.4322 55.2106Z" fill="#F4B434"/>
<path d="M59.3889 55.2106H56.7696C56.0879 55.2106 55.5355 55.7615 55.5355 56.4411C55.5355 57.1206 56.0879 57.6715 56.7696 57.6715H59.3889C60.0706 57.6715 60.623 57.1206 60.623 56.4411C60.623 55.7615 60.0706 55.2106 59.3889 55.2106Z" fill="#F4B434"/>
<path d="M67.3458 55.2106H64.7267C64.0449 55.2106 63.4925 55.7615 63.4925 56.4411C63.4925 57.1206 64.0449 57.6715 64.7267 57.6715H67.3458C68.0275 57.6715 68.5799 57.1206 68.5799 56.4411C68.5799 55.7615 68.0273 55.2106 67.3458 55.2106Z" fill="#F4B434"/>
<path d="M40.8561 64.07H43.4754C44.1571 64.07 44.7095 63.5191 44.7095 62.8395C44.7095 62.16 44.1571 61.609 43.4754 61.609H40.8561C40.1744 61.609 39.622 62.16 39.622 62.8395C39.622 63.5191 40.1745 64.07 40.8561 64.07Z" fill="#F4B434"/>
<path d="M51.4322 61.609H48.813C48.1312 61.609 47.5789 62.16 47.5789 62.8395C47.5789 63.5191 48.1312 64.07 48.813 64.07H51.4322C52.1139 64.07 52.6663 63.5191 52.6663 62.8395C52.6663 62.16 52.1138 61.609 51.4322 61.609Z" fill="#F4B434"/>
<path d="M59.3889 61.609H56.7696C56.0879 61.609 55.5355 62.16 55.5355 62.8395C55.5355 63.5191 56.0879 64.07 56.7696 64.07H59.3889C60.0706 64.07 60.623 63.5191 60.623 62.8395C60.623 62.16 60.0706 61.609 59.3889 61.609Z" fill="#F4B434"/>
<path d="M67.3458 61.609H64.7267C64.0449 61.609 63.4925 62.16 63.4925 62.8395C63.4925 63.5191 64.0449 64.07 64.7267 64.07H67.3458C68.0275 64.07 68.5799 63.5191 68.5799 62.8395C68.5799 62.16 68.0273 61.609 67.3458 61.609Z" fill="#F4B434"/>
<path d="M64.6454 76.7591C63.9636 76.7591 63.4113 77.31 63.4113 77.9896V78.8694C63.4113 80.3416 62.2101 81.5392 60.7336 81.5392H5.14589C3.66924 81.5392 2.46821 80.3416 2.46821 78.8694V5.13074C2.46821 3.6586 3.66924 2.46094 5.14589 2.46094H48.3244C48.4549 2.46094 48.5834 2.47358 48.7108 2.49211V12.781C48.7108 15.1725 50.6621 17.1181 53.0607 17.1181H63.38C63.3986 17.2451 63.4113 17.3731 63.4113 17.5032V23.3773C63.4113 24.0569 63.9636 24.6078 64.6454 24.6078C65.3271 24.6078 65.8795 24.0569 65.8795 23.3773V17.5032C65.8795 16.0967 65.204 14.7008 64.3984 13.9025C63.8919 13.3974 51.9765 1.51594 51.9632 1.50282L51.9351 1.47509L51.9318 1.47197C51.9285 1.46869 51.9245 1.46492 51.9209 1.46147C50.9935 0.558142 49.7145 0 48.3244 0H5.14589C2.30843 0 0 2.30164 0 5.13074V78.8693C0 81.6984 2.30843 84 5.14589 84H60.7334C63.5709 84 65.8793 81.6984 65.8793 78.8693V77.9894C65.8795 77.31 65.3269 76.7591 64.6454 76.7591ZM51.179 4.20132C52.0983 5.11794 60.4244 13.4192 61.6659 14.6572H53.0606C52.0229 14.6572 51.1788 13.8156 51.1788 12.781L51.179 4.20132Z" fill="#F4B434"/>
<path d="M70.7158 27.9199H37.4862C35.1239 27.9199 33.2019 29.8361 33.2019 32.1916V36.3311C33.2019 37.0106 33.7542 37.5615 34.436 37.5615C35.1177 37.5615 35.6701 37.0106 35.6701 36.3311V32.1916C35.6701 31.1933 36.4847 30.3808 37.4862 30.3808H70.7158C71.7171 30.3808 72.5318 31.1931 72.5318 32.1916V69.203C72.5318 70.2013 71.7171 71.0138 70.7158 71.0138H37.4862C36.4847 71.0138 35.6701 70.2015 35.6701 69.203V42.0836C35.6701 41.404 35.1177 40.8531 34.436 40.8531C33.7542 40.8531 33.2019 41.404 33.2019 42.0836V69.203C33.2019 71.5583 35.1239 73.4747 37.4862 73.4747H70.7158C73.0781 73.4747 75 71.5585 75 69.203V32.1914C75 29.8361 73.0783 27.9199 70.7158 27.9199Z" fill="#F4B434"/>
<path d="M68.5799 36.0607C68.5799 34.8604 67.6005 33.8839 66.3966 33.8839H41.8054C40.6016 33.8839 39.622 34.8604 39.622 36.0607V42.3581C39.622 43.5584 40.6014 44.5349 41.8054 44.5349H66.3966C67.6003 44.5349 68.5799 43.5584 68.5799 42.3581V36.0607ZM66.1116 42.0739H42.0902V36.3448H66.1115L66.1116 42.0739Z" fill="#F4B434"/>
</svg>
