<svg width="98" height="29" viewBox="0 0 98 29" fill="none" xmlns="http://www.w3.org/2000/svg">
<path d="M5.76632 28.6907H0V0H5.76632V14.732L12.1862 7.84933H19.4517L11.5711 16.2787L19.7593 28.6907H12.9166L7.64999 20.7253L5.76632 22.6973V28.6907Z" fill="white"/>
<path d="M33.7417 12.992C32.0246 12.992 30.7432 13.6107 29.8975 14.848C29.0517 16.0596 28.6289 17.6707 28.6289 19.6813V28.6907H22.8626V7.888H28.6289V10.6333C29.3721 9.78267 30.2947 9.06089 31.3967 8.468C32.5244 7.87511 33.6648 7.56578 34.8181 7.54L34.8565 12.992H33.7417Z" fill="white"/>
<path d="M52.0068 19.1013V7.888H57.8116V28.6907H52.0068V25.9453C50.5716 27.9818 48.7136 29 46.4327 29C44.1774 29 42.2809 28.2911 40.7433 26.8733C39.2056 25.4298 38.4367 23.3031 38.4367 20.4933V7.888H44.2415V19.2173C44.2415 22.4138 45.4076 24.012 47.7397 24.012C48.893 24.012 49.8925 23.5996 50.7382 22.7747C51.5839 21.924 52.0068 20.6996 52.0068 19.1013Z" fill="white"/>
<path d="M74.0206 28.6907H68.0621L61.0272 7.888H66.9857L71.0222 20.4547L75.0586 7.888H80.6327L84.6691 20.4547L92.003 0H98L87.6676 28.6907H81.6706L77.8648 17.3613L74.0206 28.6907Z" fill="white"/>
</svg>
