<svg width="7" height="7" viewBox="0 0 7 7" fill="none" xmlns="http://www.w3.org/2000/svg">
<path d="M6.88811 3.60577L4.36017 1.00115C4.288 0.926796 4.19183 0.885986 4.08928 0.885986C3.98661 0.885986 3.89049 0.926855 3.81833 1.00115L3.58881 1.23768C3.5167 1.31191 3.47698 1.41106 3.47698 1.51678C3.47698 1.62244 3.5167 1.72494 3.58881 1.79917L5.06358 3.32198L0.378168 3.32198C0.166917 3.32198 0 3.49237 0 3.71008L0 4.04448C0 4.26219 0.166917 4.44976 0.378168 4.44976H5.08031L3.58886 5.98107C3.51676 6.05542 3.47704 6.15188 3.47704 6.2576C3.47704 6.3632 3.51676 6.46106 3.58886 6.53535L3.81838 6.77112C3.89054 6.84547 3.98667 6.88599 4.08933 6.88599C4.19188 6.88599 4.28806 6.84494 4.36022 6.77059L6.88817 4.16603C6.9605 4.09144 7.00028 3.99188 7 3.88605C7.00023 3.77986 6.9605 3.68024 6.88811 3.60577Z" fill="#F4B434"/>
</svg>
