<svg width="11" height="9" viewBox="0 0 11 9" fill="none" xmlns="http://www.w3.org/2000/svg">
<path d="M10.8242 4.07968L6.85169 0.172739C6.73829 0.0612149 6.58716 0 6.426 0C6.26467 0 6.11362 0.0613029 6.00023 0.172739L5.63955 0.527539C5.52625 0.638887 5.46382 0.787614 5.46382 0.946193C5.46382 1.10468 5.52625 1.25842 5.63955 1.36977L7.95705 3.65399L0.594263 3.65399C0.262299 3.65399 0 3.90958 0 4.23614L0 4.73774C0 5.0643 0.262299 5.34566 0.594263 5.34566H7.98334L5.63964 7.64263C5.52634 7.75415 5.46391 7.89884 5.46391 8.05741C5.46391 8.21582 5.52634 8.36261 5.63964 8.47404L6.00032 8.8277C6.11371 8.93923 6.26476 9 6.42609 9C6.58725 9 6.73838 8.93843 6.85178 8.82691L10.8243 4.92006C10.9379 4.80819 11.0004 4.65884 11 4.50009C11.0004 4.34081 10.9379 4.19138 10.8242 4.07968Z" fill="#353E41"/>
</svg>
