<svg width="23" height="17" viewBox="0 0 23 17" fill="none" xmlns="http://www.w3.org/2000/svg">
<path d="M22.7974 1.2146L15.822 8.5L22.7974 15.7854C22.9235 15.5083 23 15.2021 23 14.875V2.125C23 1.79789 22.9235 1.49166 22.7974 1.2146Z" fill="#F3C538"/>
<path d="M20.9785 0H2.02148C1.71031 0 1.41899 0.0804196 1.15544 0.212972L10.0708 9.53761C10.8591 10.3663 12.1409 10.3663 12.9292 9.53761L21.8446 0.212972C21.581 0.0804196 21.2897 0 20.9785 0Z" fill="#F3C538"/>
<path d="M0.202598 1.2146C0.076502 1.49166 0 1.79789 0 2.125V14.875C0 15.2021 0.076502 15.5084 0.202598 15.7854L7.17802 8.5L0.202598 1.2146Z" fill="#F3C538"/>
<path d="M14.8691 9.50163L13.8821 10.5392C12.5686 11.92 10.4314 11.92 9.11788 10.5392L8.13086 9.50163L1.15544 16.787C1.41899 16.9196 1.71031 17 2.02148 17H20.9785C21.2897 17 21.581 16.9196 21.8446 16.787L14.8691 9.50163Z" fill="#F3C538"/>
</svg>
