<svg width="53" height="64" viewBox="0 0 53 64" fill="none" xmlns="http://www.w3.org/2000/svg">
<path d="M35.7234 5.04643C35.5107 4.89506 35.245 4.84135 34.9918 4.89897C34.7382 4.95658 34.5206 5.11967 34.3916 5.34818C34.3853 5.35941 34.3776 5.36967 34.3709 5.37992C34.0744 5.80961 33.4886 5.9141 33.0651 5.61381C32.6468 5.31693 32.0707 5.41947 31.778 5.84379L30.4313 7.79545C30.1387 8.21977 30.2402 8.80424 30.658 9.10111C30.8197 9.21586 31.0046 9.27104 31.1875 9.27104C31.4787 9.27104 31.7655 9.13139 31.9451 8.87113L32.8523 7.55619C33.7043 7.79691 34.6299 7.61137 35.3278 7.05375L36.6909 8.02201C37.1091 8.31889 37.6848 8.21586 37.9779 7.79203C38.2705 7.36772 38.169 6.78324 37.7507 6.48637L35.7234 5.04643Z" fill="#F0C73E"/>
<path d="M45.9432 16.8555L45.0359 18.17C44.7433 18.5943 44.8449 19.1787 45.2626 19.4756C45.4244 19.5904 45.6092 19.6451 45.7921 19.6451C46.0833 19.6451 46.3702 19.5059 46.5497 19.2451L47.8969 17.294C48.1895 16.8697 48.088 16.2852 47.6702 15.9883C47.2466 15.6875 47.1432 15.0933 47.4401 14.6631C47.4473 14.6529 47.4541 14.6426 47.4623 14.6333C47.6298 14.4317 47.7063 14.1685 47.6726 13.9073C47.6394 13.646 47.4993 13.4107 47.2866 13.2598L45.2593 11.8199C44.841 11.523 44.2649 11.626 43.9722 12.0503C43.6791 12.4742 43.7811 13.0591 44.1989 13.356L45.562 14.3238C45.2838 15.1802 45.4287 16.1255 45.9432 16.8555Z" fill="#F0C73E"/>
<path d="M41.0391 37.9175C41.478 37.9175 41.8857 38.0957 42.187 38.4199C42.5374 38.7959 43.1222 38.813 43.4933 38.4575C43.8649 38.1021 43.8813 37.5088 43.5309 37.1323C42.8864 36.4399 41.9781 36.0425 41.0391 36.0425C39.1494 36.0425 37.6126 37.6021 37.6126 39.5191C37.6126 41.4356 39.1494 42.9951 41.0391 42.9951C41.9545 42.9951 42.8151 42.6338 43.462 41.9771C43.823 41.6108 43.823 41.0171 43.462 40.6514C43.1015 40.2852 42.5162 40.2852 42.1553 40.6514C41.8573 40.9536 41.4607 41.1201 41.0391 41.1201C40.1689 41.1201 39.4608 40.4019 39.4608 39.5191C39.4608 38.6357 40.1689 37.9175 41.0391 37.9175Z" fill="#F0C73E"/>
<path d="M49.2673 32.9151V25.4063C49.2673 22.857 47.2226 20.7828 44.7097 20.7828H39.8055C40.0924 18.2691 39.2833 16.0582 37.5765 14.8457C36.1306 13.8189 34.2573 13.6348 32.3013 14.3272C30.4525 14.982 28.7328 16.358 27.4602 18.2017C26.8965 19.0176 26.448 19.8829 26.1226 20.7828H20.1061L33.0382 2.04692L50.9832 14.7935L48.2493 18.7549C47.9566 19.1792 48.0582 19.7637 48.476 20.0606C48.8942 20.3575 49.4704 20.2544 49.763 19.8301L52.7433 15.5123C53.1924 14.8633 53.0369 13.9644 52.3963 13.5083L33.7467 0.261275C33.4367 0.0405723 33.0603 -0.0443887 32.6873 0.0220176C32.3143 0.0889122 31.9894 0.298385 31.7713 0.613326L27.4939 6.81108V3.07378C27.4939 2.28032 26.8576 1.63481 26.0754 1.63481H3.90975C3.12761 1.63481 2.4913 2.28032 2.4913 3.07378V8.2061C2.4913 8.72417 2.90524 9.1436 3.41543 9.1436C3.92611 9.1436 4.33957 8.72417 4.33957 8.2061V3.5103H7.01714V20.7823H4.5576C4.48492 20.7823 4.41224 20.7842 4.33957 20.7876V11.9561C4.33957 11.4385 3.92611 11.0186 3.41543 11.0186C2.90524 11.0186 2.4913 11.4385 2.4913 11.9561V21.2857C1.01414 22.0513 0 23.6109 0 25.4063V53.6314C0 56.1807 2.04464 58.2549 4.5576 58.2549H11.4578C11.9685 58.2549 12.3819 57.8355 12.3819 57.3174C12.3819 56.7999 11.9685 56.3799 11.4578 56.3799H4.5576C3.06359 56.3799 1.84826 55.147 1.84826 53.6314V25.4063C1.84826 24.2051 2.61163 23.1817 3.6715 22.8086C3.69508 22.8018 3.71866 22.794 3.74129 22.7852C3.99927 22.7022 4.27362 22.6573 4.55808 22.6573H44.7097C46.2037 22.6573 47.4195 23.8907 47.4195 25.4063V32.7852H40.8033C37.1433 32.7852 34.1654 35.8057 34.1654 39.5191C34.1654 43.232 37.1433 46.2525 40.8033 46.2525H47.4195V53.6314C47.4195 55.147 46.2037 56.3799 44.7097 56.3799H37.6482C37.1376 56.3799 36.7241 56.7999 36.7241 57.3174C36.7241 57.8355 37.1376 58.2549 37.6482 58.2549H44.7097C47.2226 58.2549 49.2677 56.1807 49.2677 53.6314V46.1226C51.3586 45.6192 52.9185 43.709 52.9185 41.4366V37.6016C52.9181 35.3287 51.3581 33.4185 49.2673 32.9151ZM28.9739 19.2779C31.0816 16.2242 34.4653 14.9253 36.5167 16.3819C37.6983 17.2212 38.2186 18.8682 37.9418 20.7823H28.1201C28.3545 20.2647 28.6394 19.7613 28.9739 19.2779ZM25.6456 9.48881L17.8502 20.7828H13.2964V3.50981H25.6456V9.48881ZM8.8654 3.50981H11.4482V20.7823H8.8654V3.50981ZM51.0698 41.4361C51.0698 43.0582 49.7693 44.3775 48.1703 44.3775H40.8033C38.1623 44.3775 36.0137 42.1978 36.0137 39.5186C36.0137 36.8399 38.1623 34.6602 40.8033 34.6602H48.1703C49.7693 34.6602 51.0698 35.9795 51.0698 37.6016V41.4361Z" fill="#F0C73E"/>
<path d="M24.6334 41.3472C18.4773 41.3472 13.4687 46.4282 13.4687 52.6738C13.4687 58.9189 18.4773 64 24.6334 64C30.7899 64 35.7985 58.9189 35.7985 52.6738C35.7985 46.4282 30.7899 41.3472 24.6334 41.3472ZM24.6334 62.125C19.4963 62.125 15.317 57.8853 15.317 52.6738C15.317 47.4619 19.4963 43.2222 24.6334 43.2222C29.771 43.2222 33.9502 47.4619 33.9502 52.6738C33.9502 57.8853 29.771 62.125 24.6334 62.125Z" fill="#F0C73E"/>
</svg>
