<svg width="82" height="83" viewBox="0 0 82 83" fill="none" xmlns="http://www.w3.org/2000/svg">
<path d="M26.8762 29.8582H54.0788C54.3673 29.8582 54.6441 29.7436 54.8482 29.5395C55.0522 29.3354 55.1669 29.0586 55.1669 28.77C55.1669 28.4814 55.0522 28.2046 54.8482 28.0005C54.6441 27.7964 54.3673 27.6818 54.0788 27.6818H26.8762C26.5876 27.6818 26.3108 27.7964 26.1068 28.0005C25.9027 28.2046 25.7881 28.4814 25.7881 28.77C25.7881 29.0586 25.9027 29.3354 26.1068 29.5395C26.3108 29.7436 26.5876 29.8582 26.8762 29.8582Z" fill="#FECB2F"/>
<path d="M15.8889 28.5685L13.4713 30.8801L12.4907 29.8994C12.3902 29.7961 12.2701 29.7138 12.1375 29.6573C12.0049 29.6008 11.8624 29.5712 11.7183 29.5702C11.5742 29.5693 11.4313 29.5969 11.2979 29.6517C11.1646 29.7064 11.0434 29.787 10.9415 29.889C10.8396 29.9909 10.759 30.1121 10.7043 30.2455C10.6496 30.3788 10.6219 30.5217 10.6229 30.6659C10.6239 30.81 10.6535 30.9525 10.71 31.0851C10.7665 31.2178 10.8488 31.3378 10.9521 31.4383L12.6849 33.1715C12.886 33.3726 13.1578 33.487 13.4421 33.4902C13.7265 33.4934 14.0008 33.3851 14.2063 33.1886L17.3928 30.1415C17.4971 30.043 17.5808 29.9249 17.6393 29.7938C17.6977 29.6628 17.7297 29.5215 17.7333 29.3781C17.737 29.2347 17.7122 29.092 17.6605 28.9582C17.6088 28.8244 17.5311 28.7021 17.432 28.5984C17.3329 28.4947 17.2142 28.4117 17.0829 28.354C16.9515 28.2964 16.8101 28.2653 16.6667 28.2625C16.5232 28.2597 16.3807 28.2853 16.2472 28.3378C16.1137 28.3903 15.9919 28.4687 15.8889 28.5685Z" fill="#FECB2F"/>
<path d="M14.1816 23.4921C12.721 23.4921 11.2932 23.9253 10.0787 24.7369C8.86428 25.5484 7.91774 26.7019 7.35879 28.0515C6.79985 29.4011 6.65361 30.8862 6.93858 32.3189C7.22354 33.7516 7.92691 35.0676 8.95973 36.1005C9.99255 37.1334 11.3084 37.8368 12.741 38.1218C14.1736 38.4068 15.6584 38.2605 17.0078 37.7014C18.3573 37.1424 19.5106 36.1957 20.3221 34.9811C21.1335 33.7665 21.5666 32.3385 21.5666 30.8777C21.5644 28.9196 20.7856 27.0423 19.4011 25.6577C18.0166 24.2731 16.1395 23.4943 14.1816 23.4921ZM14.1816 36.0871C13.1514 36.0871 12.1444 35.7815 11.2878 35.2091C10.4312 34.6367 9.7636 33.8231 9.36936 32.8713C8.97512 31.9194 8.87197 30.8719 9.07295 29.8614C9.27394 28.8509 9.77002 27.9227 10.4985 27.1942C11.2269 26.4656 12.155 25.9695 13.1654 25.7685C14.1758 25.5675 15.2231 25.6706 16.1749 26.0649C17.1267 26.4592 17.9402 27.1269 18.5125 27.9836C19.0849 28.8402 19.3904 29.8474 19.3904 30.8777C19.389 32.259 18.8398 33.5833 17.8633 34.5601C16.8868 35.5368 15.5627 36.0855 14.1816 36.0871Z" fill="#FECB2F"/>
<path d="M26.8762 47.9954H54.0788C54.3673 47.9954 54.6441 47.8807 54.8482 47.6766C55.0522 47.4725 55.1669 47.1957 55.1669 46.9071C55.1669 46.6185 55.0522 46.3417 54.8482 46.1376C54.6441 45.9336 54.3673 45.8189 54.0788 45.8189H26.8762C26.5876 45.8189 26.3108 45.9336 26.1068 46.1376C25.9027 46.3417 25.7881 46.6185 25.7881 46.9071C25.7881 47.1957 25.9027 47.4725 26.1068 47.6766C26.3108 47.8807 26.5876 47.9954 26.8762 47.9954Z" fill="#FECB2F"/>
<path d="M15.8889 46.7056L13.4713 49.0172L12.4907 48.0365C12.3902 47.9332 12.2701 47.8509 12.1375 47.7944C12.0049 47.7379 11.8624 47.7083 11.7183 47.7074C11.5742 47.7064 11.4313 47.7341 11.2979 47.7888C11.1646 47.8435 11.0434 47.9242 10.9415 48.0261C10.8396 48.128 10.759 48.2492 10.7043 48.3826C10.6496 48.5159 10.6219 48.6589 10.6229 48.803C10.6239 48.9472 10.6535 49.0897 10.71 49.2223C10.7665 49.3549 10.8488 49.4749 10.9521 49.5755L12.6849 51.3086C12.886 51.5097 13.1578 51.6241 13.4421 51.6273C13.7265 51.6305 14.0008 51.5222 14.2063 51.3257L17.3928 48.2787C17.4971 48.1801 17.5808 48.062 17.6393 47.931C17.6977 47.7999 17.7297 47.6587 17.7333 47.5153C17.737 47.3718 17.7122 47.2291 17.6605 47.0953C17.6088 46.9615 17.5311 46.8392 17.432 46.7355C17.3329 46.6319 17.2142 46.5488 17.0829 46.4911C16.9515 46.4335 16.8101 46.4024 16.6667 46.3996C16.5232 46.3968 16.3807 46.4224 16.2472 46.4749C16.1137 46.5275 15.9919 46.6059 15.8889 46.7056Z" fill="#FECB2F"/>
<path d="M14.1816 41.6292C12.721 41.6292 11.2932 42.0624 10.0787 42.874C8.86428 43.6855 7.91774 44.8391 7.35879 46.1886C6.79985 47.5382 6.65361 49.0233 6.93858 50.456C7.22354 51.8887 7.92691 53.2047 8.95973 54.2376C9.99255 55.2706 11.3084 55.974 12.741 56.2589C14.1736 56.5439 15.6584 56.3976 17.0078 55.8386C18.3573 55.2795 19.5106 54.3328 20.3221 53.1182C21.1335 51.9036 21.5666 50.4756 21.5666 49.0148C21.5644 47.0567 20.7856 45.1794 19.4011 43.7948C18.0166 42.4102 16.1395 41.6314 14.1816 41.6292ZM14.1816 54.2242C13.1514 54.2242 12.1444 53.9187 11.2878 53.3463C10.4312 52.7738 9.7636 51.9603 9.36936 51.0084C8.97512 50.0565 8.87197 49.0091 9.07295 47.9986C9.27394 46.988 9.77002 46.0598 10.4985 45.3313C11.2269 44.6027 12.155 44.1066 13.1654 43.9056C14.1758 43.7046 15.2231 43.8078 16.1749 44.202C17.1267 44.5963 17.9402 45.264 18.5125 46.1207C19.0849 46.9774 19.3904 47.9845 19.3904 49.0148C19.389 50.3961 18.8398 51.7204 17.8633 52.6972C16.8868 53.6739 15.5627 54.2226 14.1816 54.2242Z" fill="#FECB2F"/>
<path d="M15.8889 64.8428L13.4713 67.1543L12.4907 66.1736C12.3902 66.0703 12.2701 65.9881 12.1375 65.9315C12.0049 65.875 11.8624 65.8454 11.7183 65.8445C11.5742 65.8435 11.4313 65.8712 11.2979 65.9259C11.1646 65.9806 11.0434 66.0613 10.9415 66.1632C10.8396 66.2652 10.759 66.3863 10.7043 66.5197C10.6496 66.6531 10.6219 66.796 10.6229 66.9401C10.6239 67.0843 10.6535 67.2268 10.71 67.3594C10.7665 67.492 10.8488 67.6121 10.9521 67.7126L12.6849 69.4458C12.886 69.6469 13.1578 69.7612 13.4421 69.7644C13.7265 69.7676 14.0008 69.6593 14.2063 69.4628L17.3928 66.4158C17.4971 66.3173 17.5808 66.1991 17.6393 66.0681C17.6977 65.9371 17.7297 65.7958 17.7333 65.6524C17.737 65.509 17.7122 65.3663 17.6605 65.2324C17.6088 65.0986 17.5311 64.9764 17.432 64.8727C17.3329 64.769 17.2142 64.6859 17.0829 64.6283C16.9515 64.5706 16.8101 64.5395 16.6667 64.5367C16.5232 64.5339 16.3807 64.5595 16.2472 64.6121C16.1137 64.6646 15.9919 64.743 15.8889 64.8428Z" fill="#FECB2F"/>
<path d="M14.1816 59.7663C12.721 59.7663 11.2932 60.1995 10.0787 61.0111C8.86428 61.8227 7.91774 62.9762 7.35879 64.3258C6.79985 65.6754 6.65361 67.1604 6.93858 68.5931C7.22354 70.0258 7.92691 71.3418 8.95973 72.3748C9.99255 73.4077 11.3084 74.1111 12.741 74.396C14.1736 74.681 15.6584 74.5347 17.0078 73.9757C18.3573 73.4166 19.5106 72.47 20.3221 71.2553C21.1335 70.0407 21.5666 68.6128 21.5666 67.152C21.5644 65.1938 20.7856 63.3165 19.4011 61.9319C18.0166 60.5473 16.1395 59.7685 14.1816 59.7663ZM14.1816 72.3613C13.1514 72.3613 12.1444 72.0558 11.2878 71.4834C10.4312 70.911 9.7636 70.0974 9.36936 69.1455C8.97512 68.1936 8.87197 67.1462 9.07295 66.1357C9.27394 65.1252 9.77002 64.1969 10.4985 63.4684C11.2269 62.7399 12.155 62.2437 13.1654 62.0427C14.1758 61.8417 15.2231 61.9449 16.1749 62.3392C17.1267 62.7334 17.9402 63.4011 18.5125 64.2578C19.0849 65.1145 19.3904 66.1217 19.3904 67.152C19.389 68.5332 18.8398 69.8575 17.8633 70.8343C16.8868 71.8111 15.5627 72.3598 14.1816 72.3613Z" fill="#FECB2F"/>
<path d="M26.8762 33.4857H41.3842C41.6728 33.4857 41.9496 33.371 42.1536 33.1669C42.3577 32.9628 42.4723 32.6861 42.4723 32.3974C42.4723 32.1088 42.3577 31.832 42.1536 31.6279C41.9496 31.4239 41.6728 31.3092 41.3842 31.3092H26.8762C26.5876 31.3092 26.3108 31.4239 26.1068 31.6279C25.9027 31.832 25.7881 32.1088 25.7881 32.3974C25.7881 32.6861 25.9027 32.9628 26.1068 33.1669C26.3108 33.371 26.5876 33.4857 26.8762 33.4857Z" fill="#FECB2F"/>
<path d="M26.8762 51.6228H41.3842C41.6728 51.6228 41.9496 51.5081 42.1536 51.304C42.3577 51.1 42.4723 50.8232 42.4723 50.5346C42.4723 50.2459 42.3577 49.9691 42.1536 49.7651C41.9496 49.561 41.6728 49.4463 41.3842 49.4463H26.8762C26.5876 49.4463 26.3108 49.561 26.1068 49.7651C25.9027 49.9691 25.7881 50.2459 25.7881 50.5346C25.7881 50.8232 25.9027 51.1 26.1068 51.304C26.3108 51.5081 26.5876 51.6228 26.8762 51.6228Z" fill="#FECB2F"/>
<path d="M5.25917 12.102C4.97059 12.102 4.69383 12.2166 4.48977 12.4207C4.28571 12.6248 4.17107 12.9016 4.17107 13.1902V14.3329C4.17107 14.6215 4.28571 14.8983 4.48977 15.1024C4.69383 15.3064 4.97059 15.4211 5.25917 15.4211C5.54775 15.4211 5.82452 15.3064 6.02858 15.1024C6.23264 14.8983 6.34728 14.6215 6.34728 14.3329V13.1902C6.34728 12.9016 6.23264 12.6248 6.02858 12.4207C5.82452 12.2166 5.54775 12.102 5.25917 12.102Z" fill="#FECB2F"/>
<path d="M5.25917 16.6891C4.97059 16.6891 4.69383 16.8037 4.48977 17.0078C4.28571 17.2119 4.17107 17.4887 4.17107 17.7773V28.2968C4.17107 28.5854 4.28571 28.8622 4.48977 29.0663C4.69383 29.2704 4.97059 29.385 5.25917 29.385C5.54775 29.385 5.82452 29.2704 6.02858 29.0663C6.23264 28.8622 6.34728 28.5854 6.34728 28.2968V17.7773C6.34728 17.6344 6.31913 17.4929 6.26445 17.3608C6.20977 17.2288 6.12962 17.1088 6.02858 17.0078C5.92754 16.9067 5.80759 16.8266 5.67557 16.7719C5.54356 16.7172 5.40206 16.6891 5.25917 16.6891Z" fill="#FECB2F"/>
<path d="M77.4859 43.588C76.7579 43.4353 76.0069 43.4285 75.2762 43.568C74.5456 43.7074 73.8499 43.9904 73.2294 44.4006L62.0219 51.7617V10.9276C62.0219 7.3274 59.0635 4.46627 55.4635 4.46627H48.602V1.08823C48.602 0.799611 48.4873 0.522816 48.2833 0.318734C48.0792 0.114652 47.8024 0 47.5139 0C47.2253 0 46.9485 0.114652 46.7445 0.318734C46.5404 0.522816 46.4258 0.799611 46.4258 1.08823V4.46627H37.1769V1.08823C37.1769 0.799611 37.0622 0.522816 36.8582 0.318734C36.6541 0.114652 36.3774 0 36.0888 0C35.8002 0 35.5234 0.114652 35.3194 0.318734C35.1153 0.522816 35.0007 0.799611 35.0007 1.08823V4.46627H25.9331V1.08823C25.9331 0.799611 25.8185 0.522816 25.6144 0.318734C25.4104 0.114652 25.1336 0 24.845 0C24.5565 0 24.2797 0.114652 24.0756 0.318734C23.8716 0.522816 23.7569 0.799611 23.7569 1.08823V4.46627H14.5081V1.08823C14.5081 0.799611 14.3934 0.522816 14.1894 0.318734C13.9853 0.114652 13.7085 0 13.4199 0C13.1314 0 12.8546 0.114652 12.6505 0.318734C12.4465 0.522816 12.3318 0.799611 12.3318 1.08823V4.46627H6.49888C5.64696 4.46018 4.80227 4.62288 4.01354 4.94496C3.22482 5.26705 2.50767 5.74215 1.90348 6.34285C1.29929 6.94355 0.820016 7.65796 0.493315 8.44486C0.166615 9.23176 -0.00104635 10.0756 4.91318e-06 10.9276V76.4026C4.91318e-06 80.003 2.89889 83 6.49888 83H55.4635C59.0635 83 62.0219 80.003 62.0219 76.4026V65.3091L79.4472 53.8645C80.383 53.2496 81.1155 52.371 81.5521 51.3398C81.9886 50.3085 82.1095 49.1709 81.8996 48.0709C81.6897 46.9709 81.1583 45.9579 80.3726 45.1599C79.587 44.362 78.5824 43.8149 77.4859 43.588ZM47.4524 11.2811C47.8329 11.2811 48.2049 11.394 48.5214 11.6054C48.8378 11.8169 49.0844 12.1174 49.23 12.469C49.3757 12.8207 49.4138 13.2076 49.3395 13.5809C49.2653 13.9542 49.082 14.2971 48.8129 14.5662C48.5439 14.8353 48.201 15.0186 47.8278 15.0928C47.4545 15.1671 47.0676 15.129 46.7161 14.9833C46.3645 14.8377 46.064 14.591 45.8525 14.2746C45.6411 13.9581 45.5283 13.5861 45.5283 13.2055C45.5288 12.6952 45.7317 12.2061 46.0924 11.8453C46.4531 11.4845 46.9422 11.2816 47.4524 11.2811ZM36.1138 11.2811C36.4943 11.2811 36.8663 11.394 37.1827 11.6055C37.4991 11.817 37.7457 12.1175 37.8913 12.4692C38.0369 12.8208 38.075 13.2077 38.0008 13.581C37.9265 13.9543 37.7432 14.2971 37.4741 14.5662C37.205 14.8353 36.8622 15.0186 36.4889 15.0928C36.1157 15.1671 35.7288 15.129 35.3772 14.9833C35.0257 14.8377 34.7252 14.591 34.5137 14.2745C34.3023 13.9581 34.1895 13.586 34.1895 13.2055C34.1901 12.6952 34.393 12.2061 34.7538 11.8453C35.1145 11.4845 35.6036 11.2816 36.1138 11.2811ZM24.7749 11.2811C25.1554 11.2812 25.5273 11.3942 25.8437 11.6057C26.16 11.8172 26.4066 12.1178 26.5521 12.4694C26.6977 12.8211 26.7357 13.208 26.6614 13.5812C26.5871 13.9545 26.4038 14.2973 26.1347 14.5664C25.8656 14.8354 25.5227 15.0187 25.1495 15.0929C24.7763 15.1671 24.3894 15.1289 24.0379 14.9833C23.6863 14.8376 23.3858 14.591 23.1744 14.2745C22.963 13.9581 22.8502 13.586 22.8502 13.2055C22.8508 12.6952 23.0537 12.206 23.4146 11.8452C23.7754 11.4844 24.2646 11.2815 24.7749 11.2811ZM13.4363 11.2811C13.8168 11.2811 14.1888 11.394 14.5052 11.6055C14.8216 11.817 15.0682 12.1175 15.2138 12.4692C15.3594 12.8208 15.3975 13.2077 15.3232 13.581C15.249 13.9543 15.0657 14.2971 14.7966 14.5662C14.5275 14.8353 14.1846 15.0186 13.8114 15.0928C13.4382 15.1671 13.0513 15.129 12.6997 14.9833C12.3481 14.8377 12.0476 14.591 11.8362 14.2745C11.6248 13.9581 11.512 13.586 11.512 13.2055C11.5125 12.6952 11.7155 12.2061 12.0762 11.8453C12.437 11.4845 12.9261 11.2816 13.4363 11.2811ZM59.8457 76.4026C59.8403 77.5669 59.3781 78.6824 58.5585 79.5092C57.7389 80.3361 56.6276 80.808 55.4635 80.8235H6.49888C4.09853 80.8235 2.17621 78.8029 2.17621 76.4026V10.9276C2.17485 10.3613 2.28602 9.80037 2.50325 9.27738C2.72048 8.7544 3.03944 8.27979 3.44162 7.88113C3.84379 7.48248 4.32116 7.16771 4.846 6.95511C5.37083 6.74251 5.93267 6.63633 6.49888 6.64272H12.3318V9.25229C10.6997 9.73038 9.32777 11.321 9.32777 13.2062C9.32777 13.7446 9.43381 14.2777 9.63982 14.7751C9.84584 15.2726 10.1478 15.7245 10.5285 16.1052C10.9091 16.486 11.3611 16.788 11.8584 16.994C12.3558 17.2 12.8889 17.3061 13.4272 17.3061C13.9655 17.3061 14.4986 17.2 14.996 16.994C15.4934 16.788 15.9453 16.486 16.3259 16.1052C16.7066 15.7245 17.0086 15.2726 17.2146 14.7751C17.4206 14.2777 17.5266 13.7446 17.5266 13.2062C17.5395 12.3041 17.2489 11.4239 16.7015 10.7068C16.1541 9.98974 15.3816 9.47749 14.5081 9.25229V6.64272H23.7569V9.25229C22.8804 9.47614 22.1041 9.98717 21.5519 10.7038C20.9997 11.4205 20.7033 12.3014 20.7102 13.2062C20.7102 14.2949 21.1427 15.3391 21.9125 16.109C22.6823 16.8788 23.7263 17.3113 24.8149 17.3113C25.9036 17.3113 26.9476 16.8788 27.7174 16.109C28.4872 15.3391 28.9196 14.2949 28.9196 13.2062C28.9042 12.3159 28.6067 11.4534 28.07 10.7429C27.5334 10.0325 26.7852 9.51053 25.9331 9.25229V6.64272H35.0007V9.25229C33.3685 9.73038 32.0009 11.321 32.0009 13.2062C32.0009 14.2933 32.4328 15.3359 33.2014 16.1046C33.97 16.8733 35.0125 17.3052 36.0995 17.3052C37.1865 17.3052 38.2289 16.8733 38.9976 16.1046C39.7662 15.3359 40.198 14.2933 40.198 13.2062C40.2103 12.3039 39.9191 11.4236 39.3713 10.7066C38.8234 9.9896 38.0506 9.47744 37.1769 9.25229V6.64272H46.4258V9.25229C45.5495 9.47618 44.7737 9.98733 44.2221 10.7041C43.6705 11.4208 43.375 12.3018 43.3829 13.2062C43.3829 14.2948 43.8153 15.3388 44.5849 16.1086C45.3546 16.8783 46.3985 17.3108 47.487 17.3108C48.5755 17.3108 49.6194 16.8783 50.3891 16.1086C51.1588 15.3388 51.5912 14.2948 51.5912 13.2062C51.5912 11.3217 50.2341 9.73111 48.602 9.25229V6.64272H55.4635C57.8634 6.64272 59.8457 8.52753 59.8457 10.9276V53.1909L55.7586 55.8752C55.6331 55.9577 55.526 56.0653 55.4441 56.1913C55.3622 56.3173 55.3072 56.4588 55.2827 56.607C55.2582 56.7553 55.2646 56.907 55.3016 57.0526C55.3386 57.1982 55.4053 57.3346 55.4976 57.4531C55.6657 57.6688 55.9087 57.8132 56.1784 57.8578C56.4481 57.9024 56.7247 57.8439 56.9532 57.6938L73.1329 47.0675L74.449 49.0709L47.0365 67.0756L45.7201 65.072L50.8705 61.69C50.9899 61.6115 51.0928 61.5103 51.1731 61.3921C51.2534 61.2739 51.3097 61.1411 51.3387 61.0011C51.3677 60.8612 51.3688 60.7169 51.3421 60.5765C51.3153 60.4362 51.2612 60.3024 51.1828 60.183C51.1043 60.0635 51.0031 59.9607 50.885 59.8803C50.7668 59.8 50.6339 59.7437 50.494 59.7147C50.3541 59.6857 50.2098 59.6845 50.0695 59.7113C49.9291 59.738 49.7954 59.7922 49.6759 59.8706L43.6208 63.8472C43.6097 63.8546 43.5996 63.8639 43.5883 63.8717C43.5608 63.8913 43.5339 63.9109 43.5075 63.933C43.4988 63.9402 43.4911 63.9486 43.483 63.9562H26.8762C26.5876 63.9562 26.3108 64.0709 26.1068 64.2749C25.9027 64.479 25.7881 64.7558 25.7881 65.0444C25.7881 65.333 25.9027 65.6098 26.1068 65.8139C26.3108 66.018 26.5876 66.1327 26.8762 66.1327H42.2565L41.4859 67.5887C41.4524 67.5856 41.4187 67.5836 41.3842 67.5836H26.8762C26.5876 67.5836 26.3108 67.6983 26.1068 67.9024C25.9027 68.1064 25.7881 68.3832 25.7881 68.6719C25.7881 68.9605 25.9027 69.2373 26.1068 69.4414C26.3108 69.6454 26.5876 69.7601 26.8762 69.7601H40.3369L39.0789 72.1369C38.9911 72.3027 38.9477 72.4884 38.9529 72.6759C38.958 72.8634 39.0115 73.0464 39.1083 73.2072C39.205 73.3679 39.3416 73.5009 39.5049 73.5933C39.6681 73.6856 39.8525 73.7342 40.04 73.7343C40.0497 73.7343 40.0593 73.7343 40.0687 73.7343L49.2644 73.4932C49.2867 73.4932 49.3087 73.4889 49.3308 73.4871C49.3529 73.4853 49.3781 73.484 49.4017 73.4804C49.4306 73.476 49.4585 73.4686 49.4864 73.4622C49.5071 73.4573 49.5279 73.4539 49.5486 73.4477C49.5961 73.4335 49.6426 73.416 49.6877 73.3953C49.6988 73.3904 49.7091 73.3835 49.72 73.3772C49.7552 73.36 49.7895 73.341 49.8226 73.3202C49.8263 73.3179 49.8301 73.3166 49.8333 73.3142L59.8457 66.7384V76.4026ZM47.2529 71.3683L41.8728 71.5092L44.3141 66.8955L47.2529 71.3683ZM49.5479 70.898L48.2311 68.8949L75.6435 50.8911L76.9598 52.8944L49.5479 70.898ZM78.7477 51.6509L74.9836 45.9216C75.4474 45.7265 75.9476 45.6334 76.4505 45.6485C76.9534 45.6637 77.4472 45.7867 77.8984 46.0093C78.1598 46.1352 78.4023 46.2969 78.6189 46.4898C78.9856 46.8083 79.2819 47.1998 79.4889 47.6392C79.6959 48.0786 79.8091 48.5564 79.8212 49.042C79.8333 49.5275 79.7441 50.0103 79.5593 50.4595C79.3744 50.9087 79.098 51.3145 78.7477 51.6509Z" fill="#FECB2F"/>
</svg>
