<svg width="85" height="96" viewBox="0 0 85 96" fill="none" xmlns="http://www.w3.org/2000/svg">
<mask id="path-1-outside-1_15_8141" maskUnits="userSpaceOnUse" x="0" y="0" width="85" height="97" fill="black">
<rect fill="white" width="85" height="97"/>
<path d="M54.8869 30.3393H14.9432C14.2655 30.3393 13.7162 30.886 13.7162 31.5603C13.7162 32.2347 14.2655 32.7813 14.9432 32.7813H54.887C55.5647 32.7813 56.1141 32.2347 56.1141 31.5603C56.1141 30.886 55.5646 30.3393 54.8869 30.3393Z"/>
<path d="M14.9432 24.3116H34.9149C35.5927 24.3116 36.142 23.765 36.142 23.0906C36.142 22.4162 35.5927 21.8696 34.9149 21.8696H14.9432C14.2655 21.8696 13.7162 22.4162 13.7162 23.0906C13.7162 23.7651 14.2655 24.3116 14.9432 24.3116Z"/>
<path d="M54.8869 37.8437H14.9432C14.2655 37.8437 13.7162 38.3903 13.7162 39.0647C13.7162 39.7391 14.2655 40.2857 14.9432 40.2857H54.887C55.5647 40.2857 56.1141 39.7391 56.1141 39.0647C56.1139 38.3903 55.5646 37.8437 54.8869 37.8437Z"/>
<path d="M24.0422 82.5165H11.2592C9.16104 82.5165 7.45391 80.8179 7.45391 78.7301V14.2284C7.45391 12.1406 9.16104 10.4419 11.2592 10.4419H48.0859C48.2048 10.4419 48.3219 10.4527 48.4378 10.4683V18.0832C48.4378 21.5177 51.2457 24.3116 54.6969 24.3116H62.3493C62.3651 24.427 62.3758 24.5436 62.3758 24.6619V45.4542C62.3758 46.1286 62.9252 46.6753 63.6029 46.6753C64.2806 46.6753 64.8299 46.1286 64.8299 45.4542V24.6621C64.8299 23.3227 64.3057 22.0635 63.3539 21.1163L51.6489 9.46871C50.6972 8.52167 49.4318 8 48.0859 8H11.2592C7.80775 8 5 10.7941 5 14.2284V78.7301C5 82.1644 7.80791 84.9584 11.2592 84.9584H24.0422C24.7199 84.9584 25.2692 84.4117 25.2692 83.7374C25.2692 83.063 24.7199 82.5165 24.0422 82.5165ZM60.6407 21.8698H54.6971C52.599 21.8698 50.8918 20.171 50.8918 18.0832V12.1688L60.6407 21.8698Z"/>
<path d="M78.6723 67.7744L68.2758 50.312C67.5181 49.0388 65.8691 48.618 64.589 49.3726L62.0601 50.8635C60.0972 52.0207 59.2675 54.3623 59.9415 56.4375C59.0894 56.7447 58.1553 56.7398 57.2952 56.409C55.2985 55.7839 53.7805 54.5264 51.2735 55.1573C47.0167 56.2358 47.1461 56.1818 46.7609 56.3131C44.2684 54.901 42.7701 54.4808 40.1242 55.4994L37.7655 56.4067C36.6736 56.8265 35.4703 56.727 34.4612 56.1321L33.8176 55.7545C34.1317 53.8818 33.2971 51.9056 31.5298 50.8638C31.5298 50.8638 31.5298 50.8638 31.5297 50.8637L29.001 49.3729C27.7244 48.6206 26.0706 49.0417 25.3144 50.312L14.9175 67.7746C14.1598 69.0475 14.5814 70.6888 15.8612 71.4431L18.3899 72.9339C19.1551 73.3851 19.996 73.5995 20.8268 73.5995C21.7533 73.5995 22.6667 73.3324 23.4477 72.8292L23.9747 73.1386L22.8621 74.6808C21.5362 76.5188 21.9574 79.0746 23.8048 80.3942C24.6591 81.0044 25.7324 81.283 26.8423 81.1096C27.0184 82.1339 27.5824 83.0926 28.4957 83.7453C29.3534 84.3581 30.4217 84.6371 31.5336 84.4628C31.7102 85.4864 32.2739 86.4443 33.1866 87.0964C34.4134 87.9726 35.9385 88.0739 37.2094 87.5338C37.4875 88.2526 37.9708 88.9017 38.6451 89.3835C40.4058 90.641 42.8312 90.313 44.1993 88.6838L47.1562 90.4268C49.1116 91.5799 51.6345 90.9391 52.794 88.991C53.0905 88.493 53.2744 87.9503 53.3417 87.3924L53.3484 87.3965C55.3008 88.5471 57.8295 87.9029 58.9862 85.9605C59.3211 85.3978 59.5047 84.7875 59.5493 84.1759C61.2703 84.6064 63.1459 83.8871 64.0957 82.292C64.4073 81.7687 64.588 81.2034 64.6474 80.6346C66.4919 81.3548 68.6477 80.6587 69.6893 78.9093C70.2496 77.9682 70.4081 76.8665 70.1355 75.8068C69.9796 75.2005 69.6929 74.6502 69.2993 74.1854L70.9291 73.2379C72.3078 73.801 73.8812 73.7109 75.1998 72.9337L77.7281 71.443C79.0079 70.6892 79.4307 69.0481 78.6723 67.7744ZM19.6407 70.8331L17.112 69.3422C16.9996 69.2759 16.9623 69.131 17.0288 69.0191L27.4257 51.5562C27.4926 51.4439 27.6387 51.4074 27.7505 51.4735L30.279 52.9641C31.4026 53.6267 31.7542 55.0607 31.1006 56.1583L22.8507 70.0154C22.1922 71.1217 20.7524 71.4882 19.6407 70.8331ZM25.2358 78.4104C24.4907 77.8781 24.3203 76.8467 24.8556 76.1049L26.491 73.838C27.012 73.1158 28.0503 72.9182 28.808 73.4595C29.5516 73.9907 29.7222 75.0248 29.1885 75.7648L27.5529 78.0318C27.019 78.7721 25.9792 78.9413 25.2358 78.4104ZM29.9268 81.7617C29.1831 81.2303 29.0126 80.1959 29.5464 79.456L31.1819 77.1893C31.1819 77.1893 31.1819 77.1893 31.1819 77.1891C31.1819 77.1891 31.1819 77.1889 31.182 77.1889L32.9869 74.6873C33.2456 74.3289 33.6289 74.0918 34.0665 74.0205C34.1574 74.0056 34.2485 73.9983 34.3389 73.9983C34.6833 73.9983 35.0184 74.105 35.3038 74.3087C35.6638 74.5662 35.902 74.9475 35.9737 75.3829C36.0455 75.8185 35.9427 76.2557 35.684 76.6141L32.2436 81.383C31.7089 82.1247 30.6723 82.2944 29.9268 81.7617ZM34.6178 85.1127C33.8744 84.5816 33.7037 83.548 34.2366 82.8081C34.2368 82.8078 34.2371 82.8075 34.2372 82.8072L37.6777 78.0384C38.2113 77.2985 39.2513 77.1286 39.9946 77.6597C40.7383 78.1909 40.9089 79.2252 40.375 79.9652L38.8464 82.0842C38.8464 82.0842 38.8464 82.0842 38.8463 82.0843L36.9345 84.7342C36.4007 85.4742 35.3616 85.6443 34.6178 85.1127ZM40.0763 87.3997C39.3331 86.8687 39.1622 85.8355 39.6947 85.0955L40.8398 83.5085C41.3735 82.7683 42.4134 82.599 43.1567 83.1299C43.9002 83.661 44.071 84.6954 43.5371 85.4355L42.393 87.021C41.8593 87.7612 40.8196 87.9311 40.0763 87.3997ZM67.5785 77.6647C67.1116 78.4489 66.0911 78.7089 65.303 78.2444C63.9684 77.4577 55.3596 72.3826 54.4418 71.8414C53.8586 71.4978 53.1061 71.6892 52.7607 72.2694C52.4154 72.8496 52.6078 73.5985 53.1908 73.9422L61.402 78.783L61.4021 78.7831C62.1904 79.2477 62.4534 80.2601 61.9847 81.0476C61.5176 81.8321 60.4967 82.0916 59.7088 81.6275C56.6719 79.8372 54.2059 78.3834 51.4933 76.7842C50.9099 76.4405 50.1576 76.6319 49.8122 77.2121C49.4669 77.7923 49.6593 78.5413 50.2423 78.8849L56.2925 82.4517L56.2938 82.4525C57.0826 82.9185 57.3429 83.9304 56.8752 84.7163C56.4081 85.5008 55.3875 85.7606 54.5992 85.296L51.3522 83.382C51.3519 83.3819 51.3514 83.3817 51.3511 83.3814C51.3507 83.3812 51.3504 83.381 51.3501 83.3809L48.9806 81.9838C48.3974 81.64 47.6449 81.8314 47.2995 82.4118C46.9541 82.992 47.1465 83.7409 47.7296 84.0846L50.0996 85.4818C50.0999 85.482 50.1003 85.4823 50.1006 85.4825C50.8889 85.9471 51.1518 86.9593 50.6831 87.7468C50.2161 88.5313 49.1955 88.7911 48.4071 88.3265L45.6424 86.6968C46.8276 84.877 46.3768 82.4246 44.5879 81.1468C44.0625 80.7717 43.4775 80.5381 42.8791 80.4378C43.5138 78.7491 42.9666 76.7775 41.4256 75.6768C40.5133 75.0248 39.421 74.7996 38.3901 74.9604C38.2067 73.8929 37.6201 72.9579 36.735 72.3258C35.0704 71.1371 32.8082 71.3655 31.4109 72.7721C31.127 72.2759 30.735 71.8307 30.2391 71.4765C28.8558 70.4886 27.0599 70.4794 25.6905 71.3115L25.1283 70.9813L32.8453 58.0192L33.2127 58.2348C34.8353 59.1912 36.8153 59.3906 38.6503 58.6845L41.0089 57.7772C42.3586 57.2581 43.103 57.2242 44.438 57.8511C43.5645 58.8276 43.0459 60.1097 43.0459 61.4916V66.9052C43.0459 68.3431 44.2207 69.5137 45.6645 69.5147H45.6681C47.1164 69.5147 48.4783 68.9536 49.5029 67.9348C50.1001 67.3408 50.5409 66.6327 50.8052 65.8598C52.3895 66.7934 65.4788 74.5064 66.9963 75.401C67.378 75.6261 67.6487 75.9854 67.7587 76.4131C67.8687 76.8403 67.8046 77.2849 67.5785 77.6647ZM76.4779 69.3422L73.9491 70.8331C72.8374 71.488 71.3976 71.1212 70.7394 70.0156L66.8726 63.5207C66.5271 62.9405 65.7741 62.749 65.1916 63.0924C64.6085 63.4361 64.4159 64.185 64.7612 64.7652L68.628 71.2603C68.7008 71.3825 68.7798 71.4987 68.8616 71.6121L67.7865 72.237C67.5692 72.3651 67.3602 72.5061 67.1603 72.6593L50.4909 62.8363C49.6742 62.3553 48.6388 62.9416 48.6388 63.8867C48.6259 63.9597 48.7655 65.2147 47.768 66.207C47.207 66.7648 46.4612 67.0722 45.668 67.0722C45.6673 67.0722 45.6667 67.0722 45.666 67.0722C45.5743 67.0722 45.4997 66.997 45.4997 66.9046V61.4909C45.4997 60.0767 46.4775 58.8836 47.7998 58.5504L51.8752 57.5241C53.3539 57.1522 54.1898 57.938 56.4039 58.6837C57.9409 59.2754 59.6122 59.2389 61.0957 58.6085L61.8363 59.8525C62.1818 60.433 62.9344 60.6243 63.5173 60.2808C64.1004 59.9371 64.2929 59.1882 63.9477 58.608L62.489 56.158C61.8291 55.0495 62.1968 53.621 63.3106 52.964L65.8393 51.4734C65.9497 51.408 66.0959 51.4414 66.1643 51.5562L76.5609 69.0188C76.628 69.1315 76.591 69.2756 76.4779 69.3422Z"/>
</mask>
<path d="M54.8869 30.3393H14.9432C14.2655 30.3393 13.7162 30.886 13.7162 31.5603C13.7162 32.2347 14.2655 32.7813 14.9432 32.7813H54.887C55.5647 32.7813 56.1141 32.2347 56.1141 31.5603C56.1141 30.886 55.5646 30.3393 54.8869 30.3393Z" fill="#FECB2F"/>
<path d="M14.9432 24.3116H34.9149C35.5927 24.3116 36.142 23.765 36.142 23.0906C36.142 22.4162 35.5927 21.8696 34.9149 21.8696H14.9432C14.2655 21.8696 13.7162 22.4162 13.7162 23.0906C13.7162 23.7651 14.2655 24.3116 14.9432 24.3116Z" fill="#FECB2F"/>
<path d="M54.8869 37.8437H14.9432C14.2655 37.8437 13.7162 38.3903 13.7162 39.0647C13.7162 39.7391 14.2655 40.2857 14.9432 40.2857H54.887C55.5647 40.2857 56.1141 39.7391 56.1141 39.0647C56.1139 38.3903 55.5646 37.8437 54.8869 37.8437Z" fill="#FECB2F"/>
<path d="M24.0422 82.5165H11.2592C9.16104 82.5165 7.45391 80.8179 7.45391 78.7301V14.2284C7.45391 12.1406 9.16104 10.4419 11.2592 10.4419H48.0859C48.2048 10.4419 48.3219 10.4527 48.4378 10.4683V18.0832C48.4378 21.5177 51.2457 24.3116 54.6969 24.3116H62.3493C62.3651 24.427 62.3758 24.5436 62.3758 24.6619V45.4542C62.3758 46.1286 62.9252 46.6753 63.6029 46.6753C64.2806 46.6753 64.8299 46.1286 64.8299 45.4542V24.6621C64.8299 23.3227 64.3057 22.0635 63.3539 21.1163L51.6489 9.46871C50.6972 8.52167 49.4318 8 48.0859 8H11.2592C7.80775 8 5 10.7941 5 14.2284V78.7301C5 82.1644 7.80791 84.9584 11.2592 84.9584H24.0422C24.7199 84.9584 25.2692 84.4117 25.2692 83.7374C25.2692 83.063 24.7199 82.5165 24.0422 82.5165ZM60.6407 21.8698H54.6971C52.599 21.8698 50.8918 20.171 50.8918 18.0832V12.1688L60.6407 21.8698Z" fill="#FECB2F"/>
<path d="M78.6723 67.7744L68.2758 50.312C67.5181 49.0388 65.8691 48.618 64.589 49.3726L62.0601 50.8635C60.0972 52.0207 59.2675 54.3623 59.9415 56.4375C59.0894 56.7447 58.1553 56.7398 57.2952 56.409C55.2985 55.7839 53.7805 54.5264 51.2735 55.1573C47.0167 56.2358 47.1461 56.1818 46.7609 56.3131C44.2684 54.901 42.7701 54.4808 40.1242 55.4994L37.7655 56.4067C36.6736 56.8265 35.4703 56.727 34.4612 56.1321L33.8176 55.7545C34.1317 53.8818 33.2971 51.9056 31.5298 50.8638C31.5298 50.8638 31.5298 50.8638 31.5297 50.8637L29.001 49.3729C27.7244 48.6206 26.0706 49.0417 25.3144 50.312L14.9175 67.7746C14.1598 69.0475 14.5814 70.6888 15.8612 71.4431L18.3899 72.9339C19.1551 73.3851 19.996 73.5995 20.8268 73.5995C21.7533 73.5995 22.6667 73.3324 23.4477 72.8292L23.9747 73.1386L22.8621 74.6808C21.5362 76.5188 21.9574 79.0746 23.8048 80.3942C24.6591 81.0044 25.7324 81.283 26.8423 81.1096C27.0184 82.1339 27.5824 83.0926 28.4957 83.7453C29.3534 84.3581 30.4217 84.6371 31.5336 84.4628C31.7102 85.4864 32.2739 86.4443 33.1866 87.0964C34.4134 87.9726 35.9385 88.0739 37.2094 87.5338C37.4875 88.2526 37.9708 88.9017 38.6451 89.3835C40.4058 90.641 42.8312 90.313 44.1993 88.6838L47.1562 90.4268C49.1116 91.5799 51.6345 90.9391 52.794 88.991C53.0905 88.493 53.2744 87.9503 53.3417 87.3924L53.3484 87.3965C55.3008 88.5471 57.8295 87.9029 58.9862 85.9605C59.3211 85.3978 59.5047 84.7875 59.5493 84.1759C61.2703 84.6064 63.1459 83.8871 64.0957 82.292C64.4073 81.7687 64.588 81.2034 64.6474 80.6346C66.4919 81.3548 68.6477 80.6587 69.6893 78.9093C70.2496 77.9682 70.4081 76.8665 70.1355 75.8068C69.9796 75.2005 69.6929 74.6502 69.2993 74.1854L70.9291 73.2379C72.3078 73.801 73.8812 73.7109 75.1998 72.9337L77.7281 71.443C79.0079 70.6892 79.4307 69.0481 78.6723 67.7744ZM19.6407 70.8331L17.112 69.3422C16.9996 69.2759 16.9623 69.131 17.0288 69.0191L27.4257 51.5562C27.4926 51.4439 27.6387 51.4074 27.7505 51.4735L30.279 52.9641C31.4026 53.6267 31.7542 55.0607 31.1006 56.1583L22.8507 70.0154C22.1922 71.1217 20.7524 71.4882 19.6407 70.8331ZM25.2358 78.4104C24.4907 77.8781 24.3203 76.8467 24.8556 76.1049L26.491 73.838C27.012 73.1158 28.0503 72.9182 28.808 73.4595C29.5516 73.9907 29.7222 75.0248 29.1885 75.7648L27.5529 78.0318C27.019 78.7721 25.9792 78.9413 25.2358 78.4104ZM29.9268 81.7617C29.1831 81.2303 29.0126 80.1959 29.5464 79.456L31.1819 77.1893C31.1819 77.1893 31.1819 77.1893 31.1819 77.1891C31.1819 77.1891 31.1819 77.1889 31.182 77.1889L32.9869 74.6873C33.2456 74.3289 33.6289 74.0918 34.0665 74.0205C34.1574 74.0056 34.2485 73.9983 34.3389 73.9983C34.6833 73.9983 35.0184 74.105 35.3038 74.3087C35.6638 74.5662 35.902 74.9475 35.9737 75.3829C36.0455 75.8185 35.9427 76.2557 35.684 76.6141L32.2436 81.383C31.7089 82.1247 30.6723 82.2944 29.9268 81.7617ZM34.6178 85.1127C33.8744 84.5816 33.7037 83.548 34.2366 82.8081C34.2368 82.8078 34.2371 82.8075 34.2372 82.8072L37.6777 78.0384C38.2113 77.2985 39.2513 77.1286 39.9946 77.6597C40.7383 78.1909 40.9089 79.2252 40.375 79.9652L38.8464 82.0842C38.8464 82.0842 38.8464 82.0842 38.8463 82.0843L36.9345 84.7342C36.4007 85.4742 35.3616 85.6443 34.6178 85.1127ZM40.0763 87.3997C39.3331 86.8687 39.1622 85.8355 39.6947 85.0955L40.8398 83.5085C41.3735 82.7683 42.4134 82.599 43.1567 83.1299C43.9002 83.661 44.071 84.6954 43.5371 85.4355L42.393 87.021C41.8593 87.7612 40.8196 87.9311 40.0763 87.3997ZM67.5785 77.6647C67.1116 78.4489 66.0911 78.7089 65.303 78.2444C63.9684 77.4577 55.3596 72.3826 54.4418 71.8414C53.8586 71.4978 53.1061 71.6892 52.7607 72.2694C52.4154 72.8496 52.6078 73.5985 53.1908 73.9422L61.402 78.783L61.4021 78.7831C62.1904 79.2477 62.4534 80.2601 61.9847 81.0476C61.5176 81.8321 60.4967 82.0916 59.7088 81.6275C56.6719 79.8372 54.2059 78.3834 51.4933 76.7842C50.9099 76.4405 50.1576 76.6319 49.8122 77.2121C49.4669 77.7923 49.6593 78.5413 50.2423 78.8849L56.2925 82.4517L56.2938 82.4525C57.0826 82.9185 57.3429 83.9304 56.8752 84.7163C56.4081 85.5008 55.3875 85.7606 54.5992 85.296L51.3522 83.382C51.3519 83.3819 51.3514 83.3817 51.3511 83.3814C51.3507 83.3812 51.3504 83.381 51.3501 83.3809L48.9806 81.9838C48.3974 81.64 47.6449 81.8314 47.2995 82.4118C46.9541 82.992 47.1465 83.7409 47.7296 84.0846L50.0996 85.4818C50.0999 85.482 50.1003 85.4823 50.1006 85.4825C50.8889 85.9471 51.1518 86.9593 50.6831 87.7468C50.2161 88.5313 49.1955 88.7911 48.4071 88.3265L45.6424 86.6968C46.8276 84.877 46.3768 82.4246 44.5879 81.1468C44.0625 80.7717 43.4775 80.5381 42.8791 80.4378C43.5138 78.7491 42.9666 76.7775 41.4256 75.6768C40.5133 75.0248 39.421 74.7996 38.3901 74.9604C38.2067 73.8929 37.6201 72.9579 36.735 72.3258C35.0704 71.1371 32.8082 71.3655 31.4109 72.7721C31.127 72.2759 30.735 71.8307 30.2391 71.4765C28.8558 70.4886 27.0599 70.4794 25.6905 71.3115L25.1283 70.9813L32.8453 58.0192L33.2127 58.2348C34.8353 59.1912 36.8153 59.3906 38.6503 58.6845L41.0089 57.7772C42.3586 57.2581 43.103 57.2242 44.438 57.8511C43.5645 58.8276 43.0459 60.1097 43.0459 61.4916V66.9052C43.0459 68.3431 44.2207 69.5137 45.6645 69.5147H45.6681C47.1164 69.5147 48.4783 68.9536 49.5029 67.9348C50.1001 67.3408 50.5409 66.6327 50.8052 65.8598C52.3895 66.7934 65.4788 74.5064 66.9963 75.401C67.378 75.6261 67.6487 75.9854 67.7587 76.4131C67.8687 76.8403 67.8046 77.2849 67.5785 77.6647ZM76.4779 69.3422L73.9491 70.8331C72.8374 71.488 71.3976 71.1212 70.7394 70.0156L66.8726 63.5207C66.5271 62.9405 65.7741 62.749 65.1916 63.0924C64.6085 63.4361 64.4159 64.185 64.7612 64.7652L68.628 71.2603C68.7008 71.3825 68.7798 71.4987 68.8616 71.6121L67.7865 72.237C67.5692 72.3651 67.3602 72.5061 67.1603 72.6593L50.4909 62.8363C49.6742 62.3553 48.6388 62.9416 48.6388 63.8867C48.6259 63.9597 48.7655 65.2147 47.768 66.207C47.207 66.7648 46.4612 67.0722 45.668 67.0722C45.6673 67.0722 45.6667 67.0722 45.666 67.0722C45.5743 67.0722 45.4997 66.997 45.4997 66.9046V61.4909C45.4997 60.0767 46.4775 58.8836 47.7998 58.5504L51.8752 57.5241C53.3539 57.1522 54.1898 57.938 56.4039 58.6837C57.9409 59.2754 59.6122 59.2389 61.0957 58.6085L61.8363 59.8525C62.1818 60.433 62.9344 60.6243 63.5173 60.2808C64.1004 59.9371 64.2929 59.1882 63.9477 58.608L62.489 56.158C61.8291 55.0495 62.1968 53.621 63.3106 52.964L65.8393 51.4734C65.9497 51.408 66.0959 51.4414 66.1643 51.5562L76.5609 69.0188C76.628 69.1315 76.591 69.2756 76.4779 69.3422Z" fill="#FECB2F"/>
<path d="M54.8869 30.3393H14.9432C14.2655 30.3393 13.7162 30.886 13.7162 31.5603C13.7162 32.2347 14.2655 32.7813 14.9432 32.7813H54.887C55.5647 32.7813 56.1141 32.2347 56.1141 31.5603C56.1141 30.886 55.5646 30.3393 54.8869 30.3393Z" stroke="#F9FBFD" stroke-width="10" mask="url(#path-1-outside-1_15_8141)"/>
<path d="M14.9432 24.3116H34.9149C35.5927 24.3116 36.142 23.765 36.142 23.0906C36.142 22.4162 35.5927 21.8696 34.9149 21.8696H14.9432C14.2655 21.8696 13.7162 22.4162 13.7162 23.0906C13.7162 23.7651 14.2655 24.3116 14.9432 24.3116Z" stroke="#F9FBFD" stroke-width="10" mask="url(#path-1-outside-1_15_8141)"/>
<path d="M54.8869 37.8437H14.9432C14.2655 37.8437 13.7162 38.3903 13.7162 39.0647C13.7162 39.7391 14.2655 40.2857 14.9432 40.2857H54.887C55.5647 40.2857 56.1141 39.7391 56.1141 39.0647C56.1139 38.3903 55.5646 37.8437 54.8869 37.8437Z" stroke="#F9FBFD" stroke-width="10" mask="url(#path-1-outside-1_15_8141)"/>
<path d="M24.0422 82.5165H11.2592C9.16104 82.5165 7.45391 80.8179 7.45391 78.7301V14.2284C7.45391 12.1406 9.16104 10.4419 11.2592 10.4419H48.0859C48.2048 10.4419 48.3219 10.4527 48.4378 10.4683V18.0832C48.4378 21.5177 51.2457 24.3116 54.6969 24.3116H62.3493C62.3651 24.427 62.3758 24.5436 62.3758 24.6619V45.4542C62.3758 46.1286 62.9252 46.6753 63.6029 46.6753C64.2806 46.6753 64.8299 46.1286 64.8299 45.4542V24.6621C64.8299 23.3227 64.3057 22.0635 63.3539 21.1163L51.6489 9.46871C50.6972 8.52167 49.4318 8 48.0859 8H11.2592C7.80775 8 5 10.7941 5 14.2284V78.7301C5 82.1644 7.80791 84.9584 11.2592 84.9584H24.0422C24.7199 84.9584 25.2692 84.4117 25.2692 83.7374C25.2692 83.063 24.7199 82.5165 24.0422 82.5165ZM60.6407 21.8698H54.6971C52.599 21.8698 50.8918 20.171 50.8918 18.0832V12.1688L60.6407 21.8698Z" stroke="#F9FBFD" stroke-width="10" mask="url(#path-1-outside-1_15_8141)"/>
<path d="M78.6723 67.7744L68.2758 50.312C67.5181 49.0388 65.8691 48.618 64.589 49.3726L62.0601 50.8635C60.0972 52.0207 59.2675 54.3623 59.9415 56.4375C59.0894 56.7447 58.1553 56.7398 57.2952 56.409C55.2985 55.7839 53.7805 54.5264 51.2735 55.1573C47.0167 56.2358 47.1461 56.1818 46.7609 56.3131C44.2684 54.901 42.7701 54.4808 40.1242 55.4994L37.7655 56.4067C36.6736 56.8265 35.4703 56.727 34.4612 56.1321L33.8176 55.7545C34.1317 53.8818 33.2971 51.9056 31.5298 50.8638C31.5298 50.8638 31.5298 50.8638 31.5297 50.8637L29.001 49.3729C27.7244 48.6206 26.0706 49.0417 25.3144 50.312L14.9175 67.7746C14.1598 69.0475 14.5814 70.6888 15.8612 71.4431L18.3899 72.9339C19.1551 73.3851 19.996 73.5995 20.8268 73.5995C21.7533 73.5995 22.6667 73.3324 23.4477 72.8292L23.9747 73.1386L22.8621 74.6808C21.5362 76.5188 21.9574 79.0746 23.8048 80.3942C24.6591 81.0044 25.7324 81.283 26.8423 81.1096C27.0184 82.1339 27.5824 83.0926 28.4957 83.7453C29.3534 84.3581 30.4217 84.6371 31.5336 84.4628C31.7102 85.4864 32.2739 86.4443 33.1866 87.0964C34.4134 87.9726 35.9385 88.0739 37.2094 87.5338C37.4875 88.2526 37.9708 88.9017 38.6451 89.3835C40.4058 90.641 42.8312 90.313 44.1993 88.6838L47.1562 90.4268C49.1116 91.5799 51.6345 90.9391 52.794 88.991C53.0905 88.493 53.2744 87.9503 53.3417 87.3924L53.3484 87.3965C55.3008 88.5471 57.8295 87.9029 58.9862 85.9605C59.3211 85.3978 59.5047 84.7875 59.5493 84.1759C61.2703 84.6064 63.1459 83.8871 64.0957 82.292C64.4073 81.7687 64.588 81.2034 64.6474 80.6346C66.4919 81.3548 68.6477 80.6587 69.6893 78.9093C70.2496 77.9682 70.4081 76.8665 70.1355 75.8068C69.9796 75.2005 69.6929 74.6502 69.2993 74.1854L70.9291 73.2379C72.3078 73.801 73.8812 73.7109 75.1998 72.9337L77.7281 71.443C79.0079 70.6892 79.4307 69.0481 78.6723 67.7744ZM19.6407 70.8331L17.112 69.3422C16.9996 69.2759 16.9623 69.131 17.0288 69.0191L27.4257 51.5562C27.4926 51.4439 27.6387 51.4074 27.7505 51.4735L30.279 52.9641C31.4026 53.6267 31.7542 55.0607 31.1006 56.1583L22.8507 70.0154C22.1922 71.1217 20.7524 71.4882 19.6407 70.8331ZM25.2358 78.4104C24.4907 77.8781 24.3203 76.8467 24.8556 76.1049L26.491 73.838C27.012 73.1158 28.0503 72.9182 28.808 73.4595C29.5516 73.9907 29.7222 75.0248 29.1885 75.7648L27.5529 78.0318C27.019 78.7721 25.9792 78.9413 25.2358 78.4104ZM29.9268 81.7617C29.1831 81.2303 29.0126 80.1959 29.5464 79.456L31.1819 77.1893C31.1819 77.1893 31.1819 77.1893 31.1819 77.1891C31.1819 77.1891 31.1819 77.1889 31.182 77.1889L32.9869 74.6873C33.2456 74.3289 33.6289 74.0918 34.0665 74.0205C34.1574 74.0056 34.2485 73.9983 34.3389 73.9983C34.6833 73.9983 35.0184 74.105 35.3038 74.3087C35.6638 74.5662 35.902 74.9475 35.9737 75.3829C36.0455 75.8185 35.9427 76.2557 35.684 76.6141L32.2436 81.383C31.7089 82.1247 30.6723 82.2944 29.9268 81.7617ZM34.6178 85.1127C33.8744 84.5816 33.7037 83.548 34.2366 82.8081C34.2368 82.8078 34.2371 82.8075 34.2372 82.8072L37.6777 78.0384C38.2113 77.2985 39.2513 77.1286 39.9946 77.6597C40.7383 78.1909 40.9089 79.2252 40.375 79.9652L38.8464 82.0842C38.8464 82.0842 38.8464 82.0842 38.8463 82.0843L36.9345 84.7342C36.4007 85.4742 35.3616 85.6443 34.6178 85.1127ZM40.0763 87.3997C39.3331 86.8687 39.1622 85.8355 39.6947 85.0955L40.8398 83.5085C41.3735 82.7683 42.4134 82.599 43.1567 83.1299C43.9002 83.661 44.071 84.6954 43.5371 85.4355L42.393 87.021C41.8593 87.7612 40.8196 87.9311 40.0763 87.3997ZM67.5785 77.6647C67.1116 78.4489 66.0911 78.7089 65.303 78.2444C63.9684 77.4577 55.3596 72.3826 54.4418 71.8414C53.8586 71.4978 53.1061 71.6892 52.7607 72.2694C52.4154 72.8496 52.6078 73.5985 53.1908 73.9422L61.402 78.783L61.4021 78.7831C62.1904 79.2477 62.4534 80.2601 61.9847 81.0476C61.5176 81.8321 60.4967 82.0916 59.7088 81.6275C56.6719 79.8372 54.2059 78.3834 51.4933 76.7842C50.9099 76.4405 50.1576 76.6319 49.8122 77.2121C49.4669 77.7923 49.6593 78.5413 50.2423 78.8849L56.2925 82.4517L56.2938 82.4525C57.0826 82.9185 57.3429 83.9304 56.8752 84.7163C56.4081 85.5008 55.3875 85.7606 54.5992 85.296L51.3522 83.382C51.3519 83.3819 51.3514 83.3817 51.3511 83.3814C51.3507 83.3812 51.3504 83.381 51.3501 83.3809L48.9806 81.9838C48.3974 81.64 47.6449 81.8314 47.2995 82.4118C46.9541 82.992 47.1465 83.7409 47.7296 84.0846L50.0996 85.4818C50.0999 85.482 50.1003 85.4823 50.1006 85.4825C50.8889 85.9471 51.1518 86.9593 50.6831 87.7468C50.2161 88.5313 49.1955 88.7911 48.4071 88.3265L45.6424 86.6968C46.8276 84.877 46.3768 82.4246 44.5879 81.1468C44.0625 80.7717 43.4775 80.5381 42.8791 80.4378C43.5138 78.7491 42.9666 76.7775 41.4256 75.6768C40.5133 75.0248 39.421 74.7996 38.3901 74.9604C38.2067 73.8929 37.6201 72.9579 36.735 72.3258C35.0704 71.1371 32.8082 71.3655 31.4109 72.7721C31.127 72.2759 30.735 71.8307 30.2391 71.4765C28.8558 70.4886 27.0599 70.4794 25.6905 71.3115L25.1283 70.9813L32.8453 58.0192L33.2127 58.2348C34.8353 59.1912 36.8153 59.3906 38.6503 58.6845L41.0089 57.7772C42.3586 57.2581 43.103 57.2242 44.438 57.8511C43.5645 58.8276 43.0459 60.1097 43.0459 61.4916V66.9052C43.0459 68.3431 44.2207 69.5137 45.6645 69.5147H45.6681C47.1164 69.5147 48.4783 68.9536 49.5029 67.9348C50.1001 67.3408 50.5409 66.6327 50.8052 65.8598C52.3895 66.7934 65.4788 74.5064 66.9963 75.401C67.378 75.6261 67.6487 75.9854 67.7587 76.4131C67.8687 76.8403 67.8046 77.2849 67.5785 77.6647ZM76.4779 69.3422L73.9491 70.8331C72.8374 71.488 71.3976 71.1212 70.7394 70.0156L66.8726 63.5207C66.5271 62.9405 65.7741 62.749 65.1916 63.0924C64.6085 63.4361 64.4159 64.185 64.7612 64.7652L68.628 71.2603C68.7008 71.3825 68.7798 71.4987 68.8616 71.6121L67.7865 72.237C67.5692 72.3651 67.3602 72.5061 67.1603 72.6593L50.4909 62.8363C49.6742 62.3553 48.6388 62.9416 48.6388 63.8867C48.6259 63.9597 48.7655 65.2147 47.768 66.207C47.207 66.7648 46.4612 67.0722 45.668 67.0722C45.6673 67.0722 45.6667 67.0722 45.666 67.0722C45.5743 67.0722 45.4997 66.997 45.4997 66.9046V61.4909C45.4997 60.0767 46.4775 58.8836 47.7998 58.5504L51.8752 57.5241C53.3539 57.1522 54.1898 57.938 56.4039 58.6837C57.9409 59.2754 59.6122 59.2389 61.0957 58.6085L61.8363 59.8525C62.1818 60.433 62.9344 60.6243 63.5173 60.2808C64.1004 59.9371 64.2929 59.1882 63.9477 58.608L62.489 56.158C61.8291 55.0495 62.1968 53.621 63.3106 52.964L65.8393 51.4734C65.9497 51.408 66.0959 51.4414 66.1643 51.5562L76.5609 69.0188C76.628 69.1315 76.591 69.2756 76.4779 69.3422Z" stroke="#F9FBFD" stroke-width="10" mask="url(#path-1-outside-1_15_8141)"/>
</svg>
