<svg width="75" height="97" viewBox="0 0 75 97" fill="none" xmlns="http://www.w3.org/2000/svg">
<mask id="path-1-outside-1_15_8143" maskUnits="userSpaceOnUse" x="0" y="0" width="75" height="97" fill="black">
<rect fill="white" width="75" height="97"/>
<path fill-rule="evenodd" clip-rule="evenodd" d="M33.6887 70.2279C33.9476 70.4883 34.2996 70.6342 34.6667 70.6333H34.7289C35.1172 70.6151 35.4803 70.4356 35.7304 70.1381L42.6471 61.8381C42.9639 61.4581 43.0539 60.9379 42.8832 60.4735C42.7125 60.0091 42.307 59.6712 41.8195 59.5867C41.3319 59.5025 40.8365 59.6846 40.5197 60.0646L34.5713 67.2027L34.2587 66.8901C33.7158 66.3659 32.8531 66.3734 32.3195 66.907C31.7859 67.4405 31.7784 68.3033 32.3026 68.8462L33.6887 70.2279Z"/>
<path d="M18.0668 90H56.8002C59.8562 90 62.3336 87.5226 62.3336 84.4667V58.1833C65.3896 58.1833 67.867 55.7059 67.867 52.6499V23.6001C67.867 20.544 65.3896 18.0667 62.3336 18.0667V12.5334C62.3334 9.47738 59.856 7 56.8002 7H18.0668C15.0108 7 12.5334 9.47738 12.5334 12.5334V18.0668C9.47738 18.0668 7 20.5442 7 23.6002V52.6502C7 55.7062 9.47738 58.1836 12.5334 58.1836V84.4669C12.5335 87.5226 15.0108 90 18.0668 90ZM59.5667 84.4666C59.5667 85.9946 58.328 87.2333 56.8 87.2333H18.0668C16.5388 87.2333 15.3001 85.9946 15.3001 84.4666V82.3141C16.1376 82.812 17.0925 83.0775 18.0668 83.0832H56.8002C57.7743 83.0775 58.7294 82.812 59.5669 82.3141L59.5667 84.4666ZM59.5667 77.5499C59.5667 79.0779 58.328 80.3166 56.8 80.3166H18.0668C16.5388 80.3166 15.3001 79.0779 15.3001 77.5499V58.1833H27.0889C23.6105 63.3773 24.523 70.3453 29.2214 74.4685C33.9198 78.5916 40.9473 78.5917 45.6457 74.4685C50.3441 70.3452 51.2566 63.3771 47.7782 58.1833H59.567V77.5499H59.5667ZM27.7502 65.1C27.7502 59.752 32.0856 55.4166 37.4335 55.4166C42.7815 55.4166 47.1169 59.752 47.1169 65.1C47.1169 70.448 42.7815 74.7834 37.4335 74.7834C32.0883 74.7764 27.757 70.4451 27.7502 65.1ZM48.0727 9.7667L46.2978 11.659C45.7752 12.2164 45.0451 12.533 44.2809 12.5333H30.5859C29.8214 12.5323 29.0912 12.216 28.5676 11.659L26.7941 9.7667H48.0727ZM15.3001 12.5334C15.3001 11.0054 16.5388 9.7667 18.0668 9.7667H23.0011L26.5493 13.5502C27.5962 14.6648 29.0567 15.2979 30.5859 15.3001H44.2809C45.8103 15.2987 47.271 14.6655 48.3175 13.5502L51.8657 9.7667H56.8C58.328 9.7667 59.5667 11.0054 59.5667 12.5334V18.0668H15.3001V12.5334ZM9.76683 52.6499V23.6001C9.76683 22.072 11.0055 20.8334 12.5335 20.8334H62.3336C63.8616 20.8334 65.1003 22.072 65.1003 23.6001V52.65C65.1003 54.1781 63.8616 55.4167 62.3336 55.4167H45.2424C40.6898 51.7282 34.1771 51.7282 29.6245 55.4167H12.5335C11.0055 55.4166 9.76683 54.1779 9.76683 52.6499Z"/>
<path fill-rule="evenodd" clip-rule="evenodd" d="M16.6835 35.0556H22.2169C22.9808 35.0556 23.6002 34.4363 23.6002 33.6723C23.6002 32.9084 22.9808 32.2891 22.2169 32.2891H16.6835C15.9196 32.2891 15.3002 32.9084 15.3002 33.6723C15.3002 34.4363 15.9194 35.0556 16.6835 35.0556Z"/>
<path fill-rule="evenodd" clip-rule="evenodd" d="M16.6835 41.9723H41.5835C42.3475 41.9723 42.9668 41.353 42.9668 40.589C42.9668 39.8251 42.3475 39.2057 41.5835 39.2057H16.6835C15.9196 39.2057 15.3002 39.8251 15.3002 40.589C15.3001 41.353 15.9194 41.9723 16.6835 41.9723Z"/>
<path fill-rule="evenodd" clip-rule="evenodd" d="M27.7502 35.0556H33.2836C34.0475 35.0556 34.6668 34.4363 34.6668 33.6723C34.6668 32.9084 34.0475 32.2891 33.2836 32.2891H27.7502C26.9862 32.2891 26.3669 32.9084 26.3669 33.6723C26.3669 34.4363 26.9861 35.0556 27.7502 35.0556Z"/>
<path fill-rule="evenodd" clip-rule="evenodd" d="M38.8168 35.0556H44.3502C45.1142 35.0556 45.7335 34.4363 45.7335 33.6723C45.7335 32.9084 45.1142 32.2891 44.3502 32.2891H38.8168C38.0529 32.2891 37.4335 32.9084 37.4335 33.6723C37.4335 34.4363 38.0527 35.0556 38.8168 35.0556Z"/>
<path fill-rule="evenodd" clip-rule="evenodd" d="M49.8835 35.0556H55.4169C56.1808 35.0556 56.8002 34.4363 56.8002 33.6723C56.8002 32.9084 56.1808 32.2891 55.4169 32.2891H49.8835C49.1195 32.2891 48.5002 32.9084 48.5002 33.6723C48.5002 34.4363 49.1194 35.0556 49.8835 35.0556Z"/>
</mask>
<path fill-rule="evenodd" clip-rule="evenodd" d="M33.6887 70.2279C33.9476 70.4883 34.2996 70.6342 34.6667 70.6333H34.7289C35.1172 70.6151 35.4803 70.4356 35.7304 70.1381L42.6471 61.8381C42.9639 61.4581 43.0539 60.9379 42.8832 60.4735C42.7125 60.0091 42.307 59.6712 41.8195 59.5867C41.3319 59.5025 40.8365 59.6846 40.5197 60.0646L34.5713 67.2027L34.2587 66.8901C33.7158 66.3659 32.8531 66.3734 32.3195 66.907C31.7859 67.4405 31.7784 68.3033 32.3026 68.8462L33.6887 70.2279Z" fill="#FECB2F"/>
<path d="M18.0668 90H56.8002C59.8562 90 62.3336 87.5226 62.3336 84.4667V58.1833C65.3896 58.1833 67.867 55.7059 67.867 52.6499V23.6001C67.867 20.544 65.3896 18.0667 62.3336 18.0667V12.5334C62.3334 9.47738 59.856 7 56.8002 7H18.0668C15.0108 7 12.5334 9.47738 12.5334 12.5334V18.0668C9.47738 18.0668 7 20.5442 7 23.6002V52.6502C7 55.7062 9.47738 58.1836 12.5334 58.1836V84.4669C12.5335 87.5226 15.0108 90 18.0668 90ZM59.5667 84.4666C59.5667 85.9946 58.328 87.2333 56.8 87.2333H18.0668C16.5388 87.2333 15.3001 85.9946 15.3001 84.4666V82.3141C16.1376 82.812 17.0925 83.0775 18.0668 83.0832H56.8002C57.7743 83.0775 58.7294 82.812 59.5669 82.3141L59.5667 84.4666ZM59.5667 77.5499C59.5667 79.0779 58.328 80.3166 56.8 80.3166H18.0668C16.5388 80.3166 15.3001 79.0779 15.3001 77.5499V58.1833H27.0889C23.6105 63.3773 24.523 70.3453 29.2214 74.4685C33.9198 78.5916 40.9473 78.5917 45.6457 74.4685C50.3441 70.3452 51.2566 63.3771 47.7782 58.1833H59.567V77.5499H59.5667ZM27.7502 65.1C27.7502 59.752 32.0856 55.4166 37.4335 55.4166C42.7815 55.4166 47.1169 59.752 47.1169 65.1C47.1169 70.448 42.7815 74.7834 37.4335 74.7834C32.0883 74.7764 27.757 70.4451 27.7502 65.1ZM48.0727 9.7667L46.2978 11.659C45.7752 12.2164 45.0451 12.533 44.2809 12.5333H30.5859C29.8214 12.5323 29.0912 12.216 28.5676 11.659L26.7941 9.7667H48.0727ZM15.3001 12.5334C15.3001 11.0054 16.5388 9.7667 18.0668 9.7667H23.0011L26.5493 13.5502C27.5962 14.6648 29.0567 15.2979 30.5859 15.3001H44.2809C45.8103 15.2987 47.271 14.6655 48.3175 13.5502L51.8657 9.7667H56.8C58.328 9.7667 59.5667 11.0054 59.5667 12.5334V18.0668H15.3001V12.5334ZM9.76683 52.6499V23.6001C9.76683 22.072 11.0055 20.8334 12.5335 20.8334H62.3336C63.8616 20.8334 65.1003 22.072 65.1003 23.6001V52.65C65.1003 54.1781 63.8616 55.4167 62.3336 55.4167H45.2424C40.6898 51.7282 34.1771 51.7282 29.6245 55.4167H12.5335C11.0055 55.4166 9.76683 54.1779 9.76683 52.6499Z" fill="#FECB2F"/>
<path fill-rule="evenodd" clip-rule="evenodd" d="M16.6835 35.0556H22.2169C22.9808 35.0556 23.6002 34.4363 23.6002 33.6723C23.6002 32.9084 22.9808 32.2891 22.2169 32.2891H16.6835C15.9196 32.2891 15.3002 32.9084 15.3002 33.6723C15.3002 34.4363 15.9194 35.0556 16.6835 35.0556Z" fill="#FECB2F"/>
<path fill-rule="evenodd" clip-rule="evenodd" d="M16.6835 41.9723H41.5835C42.3475 41.9723 42.9668 41.353 42.9668 40.589C42.9668 39.8251 42.3475 39.2057 41.5835 39.2057H16.6835C15.9196 39.2057 15.3002 39.8251 15.3002 40.589C15.3001 41.353 15.9194 41.9723 16.6835 41.9723Z" fill="#FECB2F"/>
<path fill-rule="evenodd" clip-rule="evenodd" d="M27.7502 35.0556H33.2836C34.0475 35.0556 34.6668 34.4363 34.6668 33.6723C34.6668 32.9084 34.0475 32.2891 33.2836 32.2891H27.7502C26.9862 32.2891 26.3669 32.9084 26.3669 33.6723C26.3669 34.4363 26.9861 35.0556 27.7502 35.0556Z" fill="#FECB2F"/>
<path fill-rule="evenodd" clip-rule="evenodd" d="M38.8168 35.0556H44.3502C45.1142 35.0556 45.7335 34.4363 45.7335 33.6723C45.7335 32.9084 45.1142 32.2891 44.3502 32.2891H38.8168C38.0529 32.2891 37.4335 32.9084 37.4335 33.6723C37.4335 34.4363 38.0527 35.0556 38.8168 35.0556Z" fill="#FECB2F"/>
<path fill-rule="evenodd" clip-rule="evenodd" d="M49.8835 35.0556H55.4169C56.1808 35.0556 56.8002 34.4363 56.8002 33.6723C56.8002 32.9084 56.1808 32.2891 55.4169 32.2891H49.8835C49.1195 32.2891 48.5002 32.9084 48.5002 33.6723C48.5002 34.4363 49.1194 35.0556 49.8835 35.0556Z" fill="#FECB2F"/>
<path fill-rule="evenodd" clip-rule="evenodd" d="M33.6887 70.2279C33.9476 70.4883 34.2996 70.6342 34.6667 70.6333H34.7289C35.1172 70.6151 35.4803 70.4356 35.7304 70.1381L42.6471 61.8381C42.9639 61.4581 43.0539 60.9379 42.8832 60.4735C42.7125 60.0091 42.307 59.6712 41.8195 59.5867C41.3319 59.5025 40.8365 59.6846 40.5197 60.0646L34.5713 67.2027L34.2587 66.8901C33.7158 66.3659 32.8531 66.3734 32.3195 66.907C31.7859 67.4405 31.7784 68.3033 32.3026 68.8462L33.6887 70.2279Z" stroke="#F9FBFD" stroke-width="14" mask="url(#path-1-outside-1_15_8143)"/>
<path d="M18.0668 90H56.8002C59.8562 90 62.3336 87.5226 62.3336 84.4667V58.1833C65.3896 58.1833 67.867 55.7059 67.867 52.6499V23.6001C67.867 20.544 65.3896 18.0667 62.3336 18.0667V12.5334C62.3334 9.47738 59.856 7 56.8002 7H18.0668C15.0108 7 12.5334 9.47738 12.5334 12.5334V18.0668C9.47738 18.0668 7 20.5442 7 23.6002V52.6502C7 55.7062 9.47738 58.1836 12.5334 58.1836V84.4669C12.5335 87.5226 15.0108 90 18.0668 90ZM59.5667 84.4666C59.5667 85.9946 58.328 87.2333 56.8 87.2333H18.0668C16.5388 87.2333 15.3001 85.9946 15.3001 84.4666V82.3141C16.1376 82.812 17.0925 83.0775 18.0668 83.0832H56.8002C57.7743 83.0775 58.7294 82.812 59.5669 82.3141L59.5667 84.4666ZM59.5667 77.5499C59.5667 79.0779 58.328 80.3166 56.8 80.3166H18.0668C16.5388 80.3166 15.3001 79.0779 15.3001 77.5499V58.1833H27.0889C23.6105 63.3773 24.523 70.3453 29.2214 74.4685C33.9198 78.5916 40.9473 78.5917 45.6457 74.4685C50.3441 70.3452 51.2566 63.3771 47.7782 58.1833H59.567V77.5499H59.5667ZM27.7502 65.1C27.7502 59.752 32.0856 55.4166 37.4335 55.4166C42.7815 55.4166 47.1169 59.752 47.1169 65.1C47.1169 70.448 42.7815 74.7834 37.4335 74.7834C32.0883 74.7764 27.757 70.4451 27.7502 65.1ZM48.0727 9.7667L46.2978 11.659C45.7752 12.2164 45.0451 12.533 44.2809 12.5333H30.5859C29.8214 12.5323 29.0912 12.216 28.5676 11.659L26.7941 9.7667H48.0727ZM15.3001 12.5334C15.3001 11.0054 16.5388 9.7667 18.0668 9.7667H23.0011L26.5493 13.5502C27.5962 14.6648 29.0567 15.2979 30.5859 15.3001H44.2809C45.8103 15.2987 47.271 14.6655 48.3175 13.5502L51.8657 9.7667H56.8C58.328 9.7667 59.5667 11.0054 59.5667 12.5334V18.0668H15.3001V12.5334ZM9.76683 52.6499V23.6001C9.76683 22.072 11.0055 20.8334 12.5335 20.8334H62.3336C63.8616 20.8334 65.1003 22.072 65.1003 23.6001V52.65C65.1003 54.1781 63.8616 55.4167 62.3336 55.4167H45.2424C40.6898 51.7282 34.1771 51.7282 29.6245 55.4167H12.5335C11.0055 55.4166 9.76683 54.1779 9.76683 52.6499Z" stroke="#F9FBFD" stroke-width="14" mask="url(#path-1-outside-1_15_8143)"/>
<path fill-rule="evenodd" clip-rule="evenodd" d="M16.6835 35.0556H22.2169C22.9808 35.0556 23.6002 34.4363 23.6002 33.6723C23.6002 32.9084 22.9808 32.2891 22.2169 32.2891H16.6835C15.9196 32.2891 15.3002 32.9084 15.3002 33.6723C15.3002 34.4363 15.9194 35.0556 16.6835 35.0556Z" stroke="#F9FBFD" stroke-width="14" mask="url(#path-1-outside-1_15_8143)"/>
<path fill-rule="evenodd" clip-rule="evenodd" d="M16.6835 41.9723H41.5835C42.3475 41.9723 42.9668 41.353 42.9668 40.589C42.9668 39.8251 42.3475 39.2057 41.5835 39.2057H16.6835C15.9196 39.2057 15.3002 39.8251 15.3002 40.589C15.3001 41.353 15.9194 41.9723 16.6835 41.9723Z" stroke="#F9FBFD" stroke-width="14" mask="url(#path-1-outside-1_15_8143)"/>
<path fill-rule="evenodd" clip-rule="evenodd" d="M27.7502 35.0556H33.2836C34.0475 35.0556 34.6668 34.4363 34.6668 33.6723C34.6668 32.9084 34.0475 32.2891 33.2836 32.2891H27.7502C26.9862 32.2891 26.3669 32.9084 26.3669 33.6723C26.3669 34.4363 26.9861 35.0556 27.7502 35.0556Z" stroke="#F9FBFD" stroke-width="14" mask="url(#path-1-outside-1_15_8143)"/>
<path fill-rule="evenodd" clip-rule="evenodd" d="M38.8168 35.0556H44.3502C45.1142 35.0556 45.7335 34.4363 45.7335 33.6723C45.7335 32.9084 45.1142 32.2891 44.3502 32.2891H38.8168C38.0529 32.2891 37.4335 32.9084 37.4335 33.6723C37.4335 34.4363 38.0527 35.0556 38.8168 35.0556Z" stroke="#F9FBFD" stroke-width="14" mask="url(#path-1-outside-1_15_8143)"/>
<path fill-rule="evenodd" clip-rule="evenodd" d="M49.8835 35.0556H55.4169C56.1808 35.0556 56.8002 34.4363 56.8002 33.6723C56.8002 32.9084 56.1808 32.2891 55.4169 32.2891H49.8835C49.1195 32.2891 48.5002 32.9084 48.5002 33.6723C48.5002 34.4363 49.1194 35.0556 49.8835 35.0556Z" stroke="#F9FBFD" stroke-width="14" mask="url(#path-1-outside-1_15_8143)"/>
</svg>
