<svg width="32" height="32" viewBox="0 0 32 32" fill="none" xmlns="http://www.w3.org/2000/svg">
<g clip-path="url(#clip0_15_13412)">
<path d="M29.1875 0H7.3125C5.76172 0 4.5 1.26172 4.5 2.8125V7.5625H2.25317C1.01074 7.5625 0 8.57324 0 9.81567V22.1843C0 23.4268 1.01074 24.4375 2.25317 24.4375H4.5V29.1875C4.5 30.7383 5.76172 32 7.3125 32H29.1875C30.7383 32 32 30.7383 32 29.1875V2.8125C32 1.26172 30.7383 0 29.1875 0ZM1.875 22.1843V9.81567C1.875 9.60718 2.04468 9.4375 2.25317 9.4375H25.9968C26.2053 9.4375 26.375 9.60718 26.375 9.81567V22.1843C26.375 22.3928 26.2053 22.5625 25.9968 22.5625H2.25317C2.04468 22.5625 1.875 22.3928 1.875 22.1843V22.1843ZM30.125 29.1875C30.125 29.7043 29.7043 30.125 29.1875 30.125H7.3125C6.79565 30.125 6.375 29.7043 6.375 29.1875V24.4375H25.9968C27.2393 24.4375 28.25 23.4268 28.25 22.1843V9.81567C28.25 8.57324 27.2393 7.5625 25.9968 7.5625H6.375V2.8125C6.375 2.29565 6.79565 1.875 7.3125 1.875H29.1875C29.7043 1.875 30.125 2.29565 30.125 2.8125V29.1875Z" fill="#F3C538"/>
<path d="M5.625 17.5625H6.5625C8.28564 17.5625 9.6875 16.1606 9.6875 14.4375C9.6875 12.7144 8.28564 11.3125 6.5625 11.3125H4.6875C4.16968 11.3125 3.75 11.7322 3.75 12.25V19.75C3.75 20.2678 4.16968 20.6875 4.6875 20.6875C5.20532 20.6875 5.625 20.2678 5.625 19.75V17.5625ZM5.625 13.1875H6.5625C7.25171 13.1875 7.8125 13.7483 7.8125 14.4375C7.8125 15.1267 7.25171 15.6875 6.5625 15.6875H5.625V13.1875Z" fill="#F3C538"/>
<path d="M12.5 20.6875H14.0625C15.958 20.6875 17.5 19.1455 17.5 17.25V14.75C17.5 12.8545 15.958 11.3125 14.0625 11.3125H12.5C11.9822 11.3125 11.5625 11.7322 11.5625 12.25V19.75C11.5625 20.2678 11.9822 20.6875 12.5 20.6875ZM13.4375 13.1875H14.0625C14.9241 13.1875 15.625 13.8884 15.625 14.75V17.25C15.625 18.1116 14.9241 18.8125 14.0625 18.8125H13.4375V13.1875Z" fill="#F3C538"/>
<path d="M20.3125 20.6875C20.8303 20.6875 21.25 20.2678 21.25 19.75V16.9375H23.125C23.6428 16.9375 24.0625 16.5178 24.0625 16C24.0625 15.4822 23.6428 15.0625 23.125 15.0625H21.25V13.1875H23.5625C24.0803 13.1875 24.5 12.7678 24.5 12.25C24.5 11.7322 24.0803 11.3125 23.5625 11.3125H20.3125C19.7947 11.3125 19.375 11.7322 19.375 12.25V19.75C19.375 20.2678 19.7947 20.6875 20.3125 20.6875Z" fill="#F3C538"/>
</g>
<defs>
<clipPath id="clip0_15_13412">
<rect width="32" height="32" fill="white"/>
</clipPath>
</defs>
</svg>
