<svg width="31" height="32" viewBox="0 0 31 32" fill="none" xmlns="http://www.w3.org/2000/svg">
<path d="M23.0562 20.7921C22.0654 19.8139 20.8285 19.8139 19.844 20.7921C19.093 21.5367 18.3421 22.2814 17.6037 23.0386C17.4018 23.2469 17.2314 23.291 16.9852 23.1522C16.4993 22.8872 15.9818 22.6726 15.5148 22.3823C13.3376 21.0129 11.5138 19.2523 9.89829 17.2708C9.09682 16.2863 8.38371 15.2324 7.88516 14.046C7.78419 13.8062 7.80312 13.6485 7.99875 13.4528C8.74973 12.7271 9.48178 11.9825 10.2201 11.2378C11.2488 10.2029 11.2488 8.99127 10.2138 7.95002C9.62693 7.35683 9.04003 6.77625 8.45313 6.18306C7.8473 5.57724 7.24778 4.96511 6.63563 4.36561C5.64485 3.40009 4.40794 3.40009 3.42347 4.37192C2.66618 5.11657 1.94044 5.88015 1.17053 6.61218C0.457419 7.28741 0.0977068 8.1141 0.0219779 9.07962C-0.0979261 10.651 0.287029 12.1339 0.829753 13.5791C1.94044 16.5703 3.63172 19.227 5.68271 21.6629C8.45313 24.957 11.76 27.5633 15.6284 29.4439C17.3702 30.2895 19.1751 30.9395 21.1377 31.0468C22.4882 31.1225 23.662 30.7817 24.6023 29.7278C25.246 29.0084 25.9717 28.3521 26.6533 27.6643C27.663 26.642 27.6693 25.4051 26.6659 24.3954C25.4669 23.1901 24.2615 21.9911 23.0562 20.7921Z" fill="white"/>
<path d="M21.8508 15.7625L24.1795 15.365C23.8135 13.2257 22.8038 11.2883 21.2702 9.74854C19.6484 8.12672 17.5974 7.1044 15.3381 6.78887L15.01 9.1301C16.7581 9.37621 18.3484 10.165 19.6042 11.4208C20.7906 12.6072 21.5668 14.1091 21.8508 15.7625Z" fill="white"/>
<path d="M25.4921 5.64035C22.8038 2.95204 19.4023 1.25449 15.6474 0.730713L15.3192 3.07194C18.5629 3.5263 21.5037 4.99667 23.8261 7.31265C26.0285 9.51504 27.4737 12.298 27.9975 15.3586L30.3262 14.9611C29.714 11.4145 28.0417 8.19613 25.4921 5.64035Z" fill="white"/>
</svg>
