<svg width="22" height="22" viewBox="0 0 22 22" fill="none" xmlns="http://www.w3.org/2000/svg">
<path d="M16.726 14.5534C16.0073 13.8438 15.11 13.8438 14.3958 14.5534C13.851 15.0936 13.3062 15.6338 12.7705 16.1832C12.624 16.3343 12.5004 16.3663 12.3219 16.2656C11.9694 16.0733 11.594 15.9177 11.2552 15.7071C9.67574 14.7137 8.35267 13.4364 7.18068 11.9989C6.59926 11.2847 6.08193 10.5202 5.72026 9.65956C5.64701 9.4856 5.66075 9.37115 5.80267 9.22923C6.34746 8.70276 6.87852 8.16256 7.41416 7.62235C8.16039 6.87156 8.16039 5.99259 7.40958 5.23722C6.98382 4.80689 6.55805 4.38571 6.13229 3.95538C5.69279 3.5159 5.25787 3.07183 4.8138 2.63692C4.09503 1.93649 3.19773 1.93649 2.48354 2.6415C1.93417 3.1817 1.40769 3.73564 0.849159 4.26669C0.331833 4.75653 0.0708811 5.35625 0.0159438 6.05668C-0.0710402 7.1966 0.208224 8.27243 0.601941 9.32079C1.40769 11.4908 2.63462 13.4181 4.1225 15.1852C6.13229 17.5749 8.53122 19.4656 11.3376 20.8299C12.6012 21.4433 13.9105 21.9148 15.3343 21.9927C16.314 22.0476 17.1655 21.8004 17.8477 21.0359C18.3146 20.514 18.8411 20.0379 19.3355 19.5389C20.068 18.7972 20.0726 17.8999 19.3447 17.1675C18.4749 16.2931 17.6004 15.4232 16.726 14.5534Z" fill="#F3C538"/>
<path d="M15.8516 10.9048L17.5409 10.6164C17.2754 9.06442 16.5429 7.65898 15.4304 6.54195C14.2538 5.3654 12.766 4.62377 11.127 4.39487L10.8889 6.0933C12.1571 6.27185 13.3108 6.84409 14.2218 7.75511C15.0825 8.61578 15.6456 9.70534 15.8516 10.9048Z" fill="#F3C538"/>
<path d="M18.4932 3.56168C16.5429 1.61145 14.0753 0.379973 11.3513 0L11.1133 1.69843C13.4664 2.02805 15.5998 3.09472 17.2846 4.77484C18.8823 6.37256 19.9307 8.39146 20.3107 10.6118L22 10.3234C21.5559 7.75054 20.3427 5.41576 18.4932 3.56168Z" fill="#F3C538"/>
</svg>
