<svg width="41" height="41" viewBox="0 0 41 41" fill="none" xmlns="http://www.w3.org/2000/svg">
<g id="Vector">
<path d="M31.1712 27.1223C29.8317 25.7999 28.1595 25.7999 26.8285 27.1223C25.8132 28.129 24.7979 29.1358 23.7996 30.1596C23.5266 30.4411 23.2963 30.5009 22.9635 30.3132C22.3066 29.9548 21.6069 29.6648 20.9756 29.2723C18.0321 27.4209 15.5663 25.0406 13.3822 22.3616C12.2986 21.0307 11.3345 19.6059 10.6605 18.0019C10.524 17.6777 10.5496 17.4644 10.8141 17.1999C11.8294 16.2188 12.8191 15.212 13.8173 14.2053C15.208 12.8061 15.208 11.168 13.8088 9.76028C13.0153 8.95829 12.2218 8.17338 11.4284 7.3714C10.6093 6.55235 9.79876 5.72478 8.97117 4.91426C7.63166 3.60891 5.9594 3.60891 4.62842 4.9228C3.60459 5.92954 2.62342 6.96187 1.58252 7.95155C0.618416 8.86445 0.132097 9.9821 0.0297135 11.2875C-0.132393 13.4118 0.388054 15.4168 1.1218 17.3706C2.62342 21.4146 4.90997 25.0064 7.68285 28.2997C11.4284 32.7532 15.8991 36.2768 21.1292 38.8193C23.484 39.9625 25.9241 40.8413 28.5775 40.9863C30.4034 41.0887 31.9903 40.628 33.2615 39.2032C34.1318 38.2306 35.113 37.3433 36.0344 36.4133C37.3995 35.0312 37.4081 33.359 36.0515 31.9939C34.4304 30.3644 32.8008 28.7433 31.1712 27.1223Z" fill="#323338"/>
<path d="M29.5416 20.3225L32.6899 19.785C32.1951 16.8928 30.8299 14.2735 28.7567 12.1918C26.564 9.99916 23.7911 8.61703 20.7367 8.19044L20.293 11.3557C22.6564 11.6884 24.8064 12.7549 26.5043 14.4527C28.1083 16.0567 29.1577 18.0872 29.5416 20.3225Z" fill="#323338"/>
<path d="M34.4646 6.63767C30.83 3.00316 26.2312 0.708132 21.1548 0L20.7111 3.16526C25.0965 3.77955 29.0724 5.76744 32.2121 8.89857C35.1898 11.8761 37.1436 15.6386 37.8517 19.7765L41 19.239C40.1724 14.4442 37.9114 10.093 34.4646 6.63767Z" fill="#323338"/>
</g>
</svg>
