<svg width="23" height="23" viewBox="0 0 23 23" fill="none" xmlns="http://www.w3.org/2000/svg">
<path d="M23 9.30636V13.6937C23 14.024 22.7324 14.292 22.4017 14.292H14.292V22.4017C14.292 22.7325 14.024 23 13.6937 23H9.30636C8.97628 23 8.70808 22.7324 8.70808 22.4017V14.292H0.598278C0.267739 14.292 0 14.024 0 13.6937V9.30636C0 8.97602 0.267739 8.70808 0.598278 8.70808H8.70808V0.598278C8.70808 0.267607 8.97621 0 9.30636 0H13.6937C14.024 0 14.292 0.267607 14.292 0.598278V8.70808H22.4017C22.7325 8.70808 23 8.97602 23 9.30636Z" fill="white"/>
</svg>
