<svg width="73" height="74" viewBox="0 0 73 74" fill="none" xmlns="http://www.w3.org/2000/svg">
<path d="M66.6319 0.0331712C56.7825 -0.300783 36.0714 1.56659 22.3416 20.579C17.7321 20.9179 13.287 22.4579 9.43723 25.0498C5.58742 27.6417 2.46336 31.1977 0.367782 35.3731C0.15476 35.7288 0.0302041 36.1316 0.00484038 36.5468C-0.0205233 36.9621 0.0540652 37.3774 0.222183 37.7569C0.390301 38.1365 0.646909 38.4689 0.969914 38.7257C1.29292 38.9824 1.67264 39.1557 2.07638 39.2306L12.7854 41.1104C12.4486 42.2621 12.4242 43.4844 12.7147 44.649C13.0052 45.8135 13.5999 46.8771 14.4364 47.728L25.9153 59.3643C26.7544 60.211 27.8029 60.8132 28.9506 61.1078C30.0984 61.4024 31.3033 61.3784 32.4388 61.0384L34.299 71.8962C34.3732 72.3054 34.5443 72.6902 34.7977 73.0175C35.0511 73.3448 35.3792 73.6048 35.7537 73.7751C36.1282 73.9454 36.5379 74.0209 36.9476 73.995C37.3573 73.9692 37.7546 73.8429 38.1054 73.6269C42.2277 71.5018 45.7384 68.3333 48.2973 64.4285C50.8561 60.5236 52.3763 56.0149 52.7105 51.3393C71.452 37.4205 73.2889 16.4306 72.9689 6.45659C72.9111 4.77161 72.225 3.17156 71.0489 1.97938C69.8727 0.787206 68.2942 0.0916752 66.6319 0.0331712ZM2.65501 36.6494C4.38442 33.1882 6.89392 30.1887 9.98017 27.8938C13.0664 25.599 16.6426 24.0734 20.4189 23.4407C18.582 26.3871 16.9979 29.4878 15.6838 32.7087C14.9145 34.5732 14.2107 36.5009 13.5581 38.5636L2.65501 36.6494ZM27.759 57.4955L16.28 45.8593C13.5792 43.0172 16.5486 38.659 17.3171 35.6455L37.8329 56.4411C35.8906 57.1958 33.8406 57.8924 31.6641 58.5164C30.9823 58.7123 30.2614 58.7211 29.5752 58.5417C28.889 58.3623 28.2622 58.0012 27.759 57.4955ZM39.0247 69.9383L36.8449 71.309L34.9514 60.2553C40.2009 58.585 45.2196 56.245 49.8869 53.2916C49.3695 56.6968 48.1308 59.948 46.2557 62.8217C44.3806 65.6954 41.9137 68.1232 39.0247 69.9383ZM40.4464 55.3525L18.3872 32.9923C30.6964 5.34161 53.2354 2.54143 66.5464 2.67348C67.5473 2.70912 68.4977 3.12811 69.2059 3.84598C69.9141 4.56385 70.3274 5.5272 70.3625 6.54179C70.719 17.6489 68.252 43.1041 40.4464 55.3525Z" fill="#F4B434"/>
<path d="M43.7733 16.0717C37.634 22.1315 42.1821 33.0492 50.6503 32.8961C59.1176 33.0487 63.6672 22.1304 57.5267 16.0716C55.7014 14.2257 53.2283 13.1891 50.65 13.1891C48.0716 13.1891 45.5986 14.2258 43.7733 16.0717ZM55.6833 28.1443C48.8205 34.6726 39.1778 24.8951 45.6171 17.9405C52.48 11.4115 62.1222 21.1906 55.6833 28.1443Z" fill="#F4B434"/>
<path d="M2.96313 58.6971C3.13436 58.6973 3.30395 58.6631 3.46214 58.5967C3.62034 58.5302 3.76401 58.4328 3.88492 58.3098L11.0311 51.0669C11.2676 50.8174 11.3982 50.4839 11.3948 50.1379C11.3914 49.7919 11.2543 49.461 11.013 49.2164C10.7716 48.9717 10.4452 48.8328 10.1038 48.8293C9.7625 48.8259 9.43346 48.9583 9.18737 49.1981L2.0413 56.4411C1.86312 56.6275 1.74263 56.8626 1.69466 57.1176C1.64669 57.3725 1.67334 57.6361 1.77132 57.8759C1.8693 58.1157 2.03434 58.3212 2.2461 58.4671C2.45786 58.613 2.70711 58.693 2.96313 58.6971Z" fill="#F4B434"/>
<path d="M22.6221 62.8154L15.4759 70.0584C15.2393 70.3079 15.1087 70.6414 15.112 70.9875C15.1154 71.3335 15.2525 71.6644 15.4939 71.9091C15.7353 72.1538 16.0618 72.2927 16.4031 72.2961C16.7445 72.2995 17.0736 72.167 17.3196 71.9271L24.4657 64.6842C24.702 64.4347 24.8325 64.1013 24.829 63.7554C24.8255 63.4095 24.6885 63.0788 24.4472 62.8342C24.2059 62.5897 23.8796 62.4507 23.5384 62.4472C23.1972 62.4437 22.8682 62.5759 22.6221 62.8154Z" fill="#F4B434"/>
<path d="M17.7958 56.0552C17.6748 55.9324 17.5311 55.835 17.3729 55.7686C17.2148 55.7022 17.0452 55.668 16.874 55.668C16.7028 55.668 16.5333 55.7022 16.3751 55.7686C16.2169 55.835 16.0732 55.9324 15.9522 56.0552L1.75546 70.4456C1.63441 70.5683 1.53838 70.714 1.47286 70.8743C1.40735 71.0346 1.37363 71.2065 1.37363 71.38C1.37363 71.5535 1.40735 71.7254 1.47286 71.8857C1.53838 72.046 1.63441 72.1917 1.75546 72.3144C1.87652 72.4371 2.02023 72.5345 2.1784 72.6009C2.33657 72.6673 2.50609 72.7015 2.67729 72.7015C2.84849 72.7015 3.01802 72.6673 3.17618 72.6009C3.33435 72.5345 3.47807 72.4371 3.59912 72.3144L17.7958 57.924C17.9169 57.8013 18.013 57.6556 18.0785 57.4953C18.1441 57.335 18.1778 57.1631 18.1778 56.9896C18.1778 56.816 18.1441 56.6442 18.0785 56.4839C18.013 56.3235 17.9169 56.1779 17.7958 56.0552Z" fill="#F4B434"/>
</svg>
