<svg width="40" height="40" viewBox="0 0 40 40" fill="none" xmlns="http://www.w3.org/2000/svg">
<path d="M19.325 14.8808C19.5856 15.1453 20.0189 15.0919 20.217 14.7725L24.1168 8.48232C24.2957 8.194 24.2218 7.80522 23.952 7.61409C23.6826 7.42329 23.3188 7.50222 23.14 7.79022L19.6255 13.4588L17.6727 11.4771C17.438 11.239 17.0673 11.2494 16.8442 11.5002C16.6214 11.751 16.6312 12.1473 16.8658 12.3854C16.8655 12.3854 19.3228 14.8789 19.325 14.8808Z" fill="#F4B434"/>
<path d="M19.7247 24.4323C19.8367 24.4871 19.9606 24.5161 20.0839 24.5161H20.0888C20.2142 24.5155 20.34 24.4848 20.4523 24.4274C29.3622 19.8987 30.8722 10.1278 31.1224 7.24097C31.1798 6.58181 30.8325 5.96799 30.2585 5.71359C28.4848 4.92657 27.2791 3.16664 27.1118 1.12067C27.0602 0.490864 26.5567 0 25.9634 0H25.9564L13.9526 0.0753419C13.3475 0.0789295 12.8558 0.570445 12.8094 1.21852C12.6617 3.26514 11.4737 5.03779 9.70886 5.8447C9.14062 6.10432 8.80188 6.72141 8.86658 7.38024C9.14856 10.2638 10.7657 20.0155 19.7247 24.4323ZM10.1697 6.99603C12.3337 6.00713 13.7915 3.83591 13.9767 1.32745L25.946 1.25244C26.1588 3.75535 27.6373 5.90667 29.8093 6.87013C29.9063 6.91351 29.9652 7.01592 29.9557 7.12551C29.7208 9.83097 28.3148 18.9532 20.0818 23.2281C11.8015 19.0572 10.2966 9.95263 10.0317 7.2501C10.0211 7.14084 10.0766 7.03876 10.1697 6.99603Z" fill="#F4B434"/>
<path d="M11.6327 10.4676C11.7035 10.7462 12.034 11.0012 12.352 10.9076C12.6639 10.8156 12.8485 10.4728 12.7637 10.1392C12.6144 9.55146 12.489 8.95557 12.3904 8.36523C13.9822 7.25663 15.1636 5.60204 15.7431 3.66957L24.205 3.61641C24.8056 5.54105 26.0049 7.18128 27.6089 8.26966C27.5171 8.86164 27.3981 9.45948 27.2549 10.0495C27.1738 10.3845 27.3621 10.7263 27.6752 10.813C27.9889 10.8998 28.3084 10.6985 28.3896 10.3636C28.5574 9.67083 28.6942 8.96764 28.7955 8.27358C28.8522 7.88578 28.6862 7.5045 28.3731 7.30229C26.879 6.33785 25.7745 4.82481 25.2634 3.04205C25.1483 2.6412 24.7946 2.36267 24.4022 2.36267H24.3967L15.5374 2.41811C15.1425 2.42072 14.7891 2.7048 14.6783 3.10858C14.187 4.89755 13.0991 6.42428 11.6156 7.40764C11.3046 7.61344 11.1432 7.99667 11.2039 8.38415C11.3132 9.07657 11.4572 9.77748 11.6327 10.4676Z" fill="#F4B434"/>
<path d="M27.2052 12.3244C26.9061 12.192 26.5637 12.3446 26.4401 12.6643C25.0861 16.1718 22.9425 18.8384 20.0671 20.5934C17.1695 18.8723 14.9948 16.2282 13.6026 12.7318C13.4756 12.4138 13.1314 12.2657 12.8339 12.4011C12.536 12.5364 12.3975 12.9043 12.5241 13.2223C14.0436 17.0377 16.4374 19.9141 19.639 21.7709C19.7739 21.8495 19.9216 21.8883 20.069 21.8883C20.22 21.8883 20.3708 21.8475 20.5081 21.7656C23.6856 19.871 26.0458 16.9695 27.5235 13.1418C27.6471 12.8221 27.5046 12.4562 27.2052 12.3244Z" fill="#F4B434"/>
<path d="M3.75946 32.0434C2.61658 32.0434 1.6864 33.0372 1.6864 34.259C1.6864 35.4808 2.61658 36.4746 3.75946 36.4746C4.90265 36.4746 5.83282 35.4808 5.83282 34.259C5.83282 33.0372 4.90295 32.0434 3.75946 32.0434ZM3.75946 35.2222C3.26263 35.2222 2.85828 34.7903 2.85828 34.259C2.85828 33.728 3.26263 33.2959 3.75946 33.2959C4.25659 33.2959 4.66095 33.728 4.66095 34.259C4.66095 34.7903 4.25659 35.2222 3.75946 35.2222Z" fill="#F4B434"/>
<path d="M39.5798 25.9127C38.8287 24.7333 37.3166 24.4209 36.2091 25.216L28.5492 30.6951L26.9141 30.5969L26.8723 30.1495C26.7093 28.397 25.4559 27.0008 23.8245 26.7542C23.8141 26.7526 23.804 26.7513 23.7936 26.7503L15.5399 25.9773C15.2606 25.9306 14.3668 25.6563 11.9107 24.1508C10.6342 23.3684 9.19586 22.9268 7.73468 22.8667V21.2285C7.73468 20.4062 7.10907 19.7376 6.33972 19.7376H1.39496C0.625916 19.7376 0 20.4066 0 21.2285V37.3637C0 38.1856 0.625916 38.8545 1.39496 38.8545H6.33972C7.10876 38.8545 7.73468 38.1856 7.73468 37.3637V36.9191L14.9496 39.8392C14.9655 39.8457 15.5515 40.0799 16.6287 39.9713C16.6318 39.971 28.6169 38.1243 28.6169 38.1243C28.62 38.124 28.6227 38.1233 28.6258 38.1226C29.65 37.9482 30.6158 37.4853 31.4194 36.7851C31.4267 36.7786 31.4337 36.772 31.4407 36.7655L39.1833 29.323C40.0958 28.457 40.2664 26.991 39.5798 25.9127ZM38.4024 28.3892L30.668 35.8239C30.0278 36.3787 29.2593 36.7456 28.4451 36.8852L16.4658 38.7309C16.463 38.7313 16.459 38.7319 16.4554 38.7326C16.4536 38.7329 16.4514 38.7332 16.4496 38.7335C16.0913 38.7939 15.7181 38.7684 15.34 38.6579L7.73468 35.5799V28.4283C7.73468 28.0823 7.47223 27.8021 7.14874 27.8021C6.82495 27.8021 6.56281 28.0823 6.56281 28.4283V37.3637C6.56281 37.4951 6.46271 37.6021 6.33972 37.6021H1.39496C1.27197 37.6021 1.17187 37.4951 1.17187 37.3637V21.2285C1.17187 21.097 1.27197 20.99 1.39496 20.99H6.33972C6.46271 20.99 6.56281 21.097 6.56281 21.2285V25.5996C6.56281 25.9456 6.82526 26.2258 7.14874 26.2258C7.47253 26.2258 7.73468 25.9453 7.73468 25.5996V24.1205C8.9917 24.1798 10.2283 24.5634 11.3275 25.2376C14.2899 27.0533 15.1172 27.1785 15.3891 27.2196C15.3995 27.2212 15.4095 27.2222 15.4199 27.2235L23.6746 27.9965C24.7629 28.1684 25.5972 29.1025 25.7062 30.2734L25.7373 30.6071L14.686 31.3363C14.6783 31.3357 14.6707 31.335 14.664 31.3344C14.3057 31.2998 13.9822 31.1188 13.7524 30.8246C13.5452 30.5588 13.1757 30.5229 12.9272 30.7447C12.6785 30.9662 12.645 31.3611 12.8525 31.6266C13.2825 32.1778 13.8892 32.5076 14.5596 32.5819C14.9216 32.6224 26.3818 31.8194 26.3818 31.8194L28.6792 31.9573C28.8062 31.9652 28.9322 31.928 29.0378 31.8523L36.8619 26.2561C37.4365 25.8436 38.2211 26.0053 38.6108 26.6172C38.967 27.1769 38.8785 27.9375 38.4024 28.3892Z" fill="#F4B434"/>
</svg>
