<svg width="94" height="93" viewBox="0 0 94 93" fill="none" xmlns="http://www.w3.org/2000/svg">
<mask id="path-1-outside-1_15_8144" maskUnits="userSpaceOnUse" x="0" y="0" width="94" height="93" fill="black">
<rect fill="white" width="94" height="93"/>
<path d="M87.8615 24.6713C87.5758 23.6088 86.8787 22.703 85.925 22.1539C84.9706 21.602 83.8358 21.4527 82.7713 21.7385C81.7081 22.0249 80.8023 22.7213 80.2532 23.675L79.5615 24.8787C78.9043 24.5011 78.0647 24.7233 77.6804 25.3771L74.1667 31.3664L72.963 30.6747C72.6442 30.4903 72.2646 30.4404 71.9093 30.5363C71.5533 30.6329 71.2507 30.8666 71.0677 31.1867C70.6928 31.848 70.9211 32.6883 71.5797 33.0679L72.7833 33.7596L61.025 54.136L58.1199 61.897L56.7365 64.4833C55.9267 65.8923 56.0131 67.6438 56.9581 68.9657L53.8456 72.7833L52.9742 70.5982C52.5811 69.6242 51.6713 68.9569 50.625 68.8751C49.5781 68.7927 48.575 69.3101 48.0353 70.2105L47.5375 71.0542L47.0674 65.5208C46.9593 64.2118 45.9454 63.1594 44.6418 63.0014C43.3375 62.844 42.1028 63.6255 41.686 64.871L38.2831 75.0799C38.0453 75.8019 38.4344 76.5801 39.1544 76.8232C39.2895 76.8861 39.4347 76.9239 39.5833 76.9333C40.1777 76.9354 40.7073 76.5564 40.8978 75.9931L44.2865 65.7843L44.7708 71.4C44.8708 72.5983 45.732 73.5946 46.9032 73.8661C48.0745 74.1376 49.2863 73.6216 49.9029 72.5902L50.4149 71.7458L51.2728 73.9181C51.6368 74.8333 52.4602 75.4865 53.4349 75.6317C54.4096 75.777 55.3876 75.3926 56.0037 74.6233L59.2269 70.5428C59.5836 70.6361 59.951 70.6827 60.3198 70.6813C61.8024 70.6928 63.179 69.912 63.9301 68.6333L65.3135 66.3233L70.584 59.9186L82.4667 39.2929L83.6703 39.9846C83.9912 40.1683 84.2249 40.4716 84.3201 40.8289C84.416 41.1835 84.366 41.5617 84.1823 41.8799L78.649 51.4666C78.4403 51.7814 78.3693 52.1678 78.4531 52.5366C78.5369 52.9047 78.7672 53.2228 79.0914 53.4167C79.4102 53.6017 79.7898 53.6517 80.1451 53.5558C80.5011 53.4592 80.8037 53.2255 80.9867 52.9053L86.5201 43.3186C87.0719 42.3642 87.2212 41.2294 86.9348 40.1649C86.6484 39.1017 85.952 38.1959 84.9983 37.6468L83.7946 36.9551L87.2529 30.9652C87.6305 30.308 87.4083 29.4691 86.7551 29.084L87.4468 27.8804C88.0135 26.9111 88.1635 25.7534 87.8615 24.6713ZM82.6463 25.0583C82.8294 24.7382 83.1333 24.5038 83.4906 24.4085C83.8459 24.3207 84.2215 24.37 84.5417 24.547C84.8625 24.7301 85.0962 25.034 85.1921 25.3907C85.2799 25.7459 85.2306 26.1215 85.0537 26.4417L84.362 27.6453L81.9547 26.262L82.6463 25.0583ZM63.7917 63.6816L61.0527 62.0902L63.0169 56.8338L67.3743 59.3512L63.7917 63.6816ZM59.6417 67.6789C59.0574 67.2716 58.8777 66.4881 59.2269 65.8667L59.9186 64.6637L62.3252 66.047L61.6336 67.2365C61.4397 67.5729 61.1142 67.812 60.7352 67.8964C60.3563 67.9802 59.9598 67.9018 59.6417 67.6789ZM68.9515 57.083L64.1652 54.3164L75.2319 35.1429L80.0181 37.9096L68.9515 57.083ZM81.4015 35.5164L76.6152 32.7497L79.3819 27.9635L84.1681 30.7301L81.4015 35.5164Z"/>
<path d="M26.8287 66.9872L21.9323 71.8708L18.9995 68.938C18.4598 68.4017 17.5885 68.4017 17.0488 68.938C16.7867 69.198 16.6395 69.5513 16.6395 69.9201C16.6395 70.2889 16.7867 70.6428 17.0488 70.9022L19.9816 73.835C20.5004 74.3497 21.2015 74.6381 21.9323 74.6375C22.6672 74.6415 23.3744 74.3531 23.8965 73.835L28.7794 68.938C29.2495 68.3888 29.2178 67.5708 28.7071 67.0602C28.1958 66.5489 27.3778 66.5171 26.8287 66.9872Z"/>
<path d="M10.5333 70.7083C10.5333 77.2028 15.7978 82.4667 22.2917 82.4667C28.7855 82.4667 34.05 77.2028 34.05 70.7083C34.05 69.9444 33.4306 69.325 32.6667 69.325C31.9027 69.325 31.2833 69.9444 31.2833 70.7083C31.2833 75.6743 27.2576 79.7 22.2917 79.7C17.3257 79.7 13.3 75.6743 13.3 70.7083C13.3 65.7424 17.3257 61.7167 22.2917 61.7167C24.2383 61.7113 26.133 62.3428 27.6865 63.5154C28.2978 63.974 29.1651 63.8498 29.6231 63.2385C30.0817 62.6272 29.9581 61.7606 29.3468 61.3019C25.7838 58.6298 21.0164 58.2002 17.0332 60.1915C13.0494 62.1834 10.5333 66.2551 10.5333 70.7083Z"/>
<path d="M54.8 16.0667C55.5639 16.0667 56.1833 15.4479 56.1833 14.6833C56.1833 13.9194 55.5639 13.3 54.8 13.3H18.8333C18.0694 13.3 17.45 13.9194 17.45 14.6833V20.2167C17.45 20.9813 18.0694 21.6 18.8333 21.6H54.8C55.5639 21.6 56.1833 20.9813 56.1833 20.2167C56.1833 19.4527 55.5639 18.8333 54.8 18.8333H20.2167V16.0667H54.8Z"/>
<path d="M22.9833 24.3667C22.2194 24.3667 21.6 24.9861 21.6 25.75C21.6 26.5146 22.2194 27.1333 22.9833 27.1333H50.65C51.4139 27.1333 52.0333 26.5146 52.0333 25.75C52.0333 24.9861 51.4139 24.3667 50.65 24.3667H22.9833Z"/>
<path d="M58.95 34.05H28.5167C27.7527 34.05 27.1333 34.6694 27.1333 35.4333C27.1333 36.1979 27.7527 36.8167 28.5167 36.8167H58.95C59.7139 36.8167 60.3333 36.1979 60.3333 35.4333C60.3333 34.6694 59.7139 34.05 58.95 34.05Z"/>
<path d="M45.1167 43.7333C45.1167 42.9694 44.4973 42.35 43.7333 42.35H16.0667C15.3027 42.35 14.6833 42.9694 14.6833 43.7333C14.6833 44.498 15.3027 45.1167 16.0667 45.1167H43.7333C44.4973 45.1167 45.1167 44.498 45.1167 43.7333Z"/>
<path d="M58.95 42.35H49.2667C48.5027 42.35 47.8833 42.9694 47.8833 43.7333C47.8833 44.498 48.5027 45.1167 49.2667 45.1167H58.95C59.7139 45.1167 60.3333 44.498 60.3333 43.7333C60.3333 42.9694 59.7139 42.35 58.95 42.35Z"/>
<path d="M29.9 52.0333C30.6639 52.0333 31.2833 51.4146 31.2833 50.65C31.2833 49.8861 30.6639 49.2667 29.9 49.2667H16.0667C15.3027 49.2667 14.6833 49.8861 14.6833 50.65C14.6833 51.4146 15.3027 52.0333 16.0667 52.0333H29.9Z"/>
<path d="M35.4333 52.0333H45.1167C45.8806 52.0333 46.5 51.4146 46.5 50.65C46.5 49.8861 45.8806 49.2667 45.1167 49.2667H35.4333C34.6694 49.2667 34.05 49.8861 34.05 50.65C34.05 51.4146 34.6694 52.0333 35.4333 52.0333Z"/>
<path d="M67.25 68.6333C66.4861 68.6333 65.8667 69.2527 65.8667 70.0167V83.85C65.8667 84.6146 65.2473 85.2333 64.4833 85.2333H9.15C8.38606 85.2333 7.76667 84.6146 7.76667 83.85V9.15C7.76667 8.38606 8.38606 7.76667 9.15 7.76667H64.4833C65.2473 7.76667 65.8667 8.38606 65.8667 9.15V35.1294C65.8667 35.8933 66.4861 36.5127 67.25 36.5127C68.0139 36.5127 68.6333 35.8933 68.6333 35.1294V9.15C68.6333 6.85818 66.7752 5 64.4833 5H9.15C6.85818 5 5 6.85818 5 9.15V83.85C5 86.1425 6.85818 88 9.15 88H64.4833C66.7752 88 68.6333 86.1425 68.6333 83.85V70.0167C68.6333 69.2527 68.0139 68.6333 67.25 68.6333Z"/>
</mask>
<path d="M87.8615 24.6713C87.5758 23.6088 86.8787 22.703 85.925 22.1539C84.9706 21.602 83.8358 21.4527 82.7713 21.7385C81.7081 22.0249 80.8023 22.7213 80.2532 23.675L79.5615 24.8787C78.9043 24.5011 78.0647 24.7233 77.6804 25.3771L74.1667 31.3664L72.963 30.6747C72.6442 30.4903 72.2646 30.4404 71.9093 30.5363C71.5533 30.6329 71.2507 30.8666 71.0677 31.1867C70.6928 31.848 70.9211 32.6883 71.5797 33.0679L72.7833 33.7596L61.025 54.136L58.1199 61.897L56.7365 64.4833C55.9267 65.8923 56.0131 67.6438 56.9581 68.9657L53.8456 72.7833L52.9742 70.5982C52.5811 69.6242 51.6713 68.9569 50.625 68.8751C49.5781 68.7927 48.575 69.3101 48.0353 70.2105L47.5375 71.0542L47.0674 65.5208C46.9593 64.2118 45.9454 63.1594 44.6418 63.0014C43.3375 62.844 42.1028 63.6255 41.686 64.871L38.2831 75.0799C38.0453 75.8019 38.4344 76.5801 39.1544 76.8232C39.2895 76.8861 39.4347 76.9239 39.5833 76.9333C40.1777 76.9354 40.7073 76.5564 40.8978 75.9931L44.2865 65.7843L44.7708 71.4C44.8708 72.5983 45.732 73.5946 46.9032 73.8661C48.0745 74.1376 49.2863 73.6216 49.9029 72.5902L50.4149 71.7458L51.2728 73.9181C51.6368 74.8333 52.4602 75.4865 53.4349 75.6317C54.4096 75.777 55.3876 75.3926 56.0037 74.6233L59.2269 70.5428C59.5836 70.6361 59.951 70.6827 60.3198 70.6813C61.8024 70.6928 63.179 69.912 63.9301 68.6333L65.3135 66.3233L70.584 59.9186L82.4667 39.2929L83.6703 39.9846C83.9912 40.1683 84.2249 40.4716 84.3201 40.8289C84.416 41.1835 84.366 41.5617 84.1823 41.8799L78.649 51.4666C78.4403 51.7814 78.3693 52.1678 78.4531 52.5366C78.5369 52.9047 78.7672 53.2228 79.0914 53.4167C79.4102 53.6017 79.7898 53.6517 80.1451 53.5558C80.5011 53.4592 80.8037 53.2255 80.9867 52.9053L86.5201 43.3186C87.0719 42.3642 87.2212 41.2294 86.9348 40.1649C86.6484 39.1017 85.952 38.1959 84.9983 37.6468L83.7946 36.9551L87.2529 30.9652C87.6305 30.308 87.4083 29.4691 86.7551 29.084L87.4468 27.8804C88.0135 26.9111 88.1635 25.7534 87.8615 24.6713ZM82.6463 25.0583C82.8294 24.7382 83.1333 24.5038 83.4906 24.4085C83.8459 24.3207 84.2215 24.37 84.5417 24.547C84.8625 24.7301 85.0962 25.034 85.1921 25.3907C85.2799 25.7459 85.2306 26.1215 85.0537 26.4417L84.362 27.6453L81.9547 26.262L82.6463 25.0583ZM63.7917 63.6816L61.0527 62.0902L63.0169 56.8338L67.3743 59.3512L63.7917 63.6816ZM59.6417 67.6789C59.0574 67.2716 58.8777 66.4881 59.2269 65.8667L59.9186 64.6637L62.3252 66.047L61.6336 67.2365C61.4397 67.5729 61.1142 67.812 60.7352 67.8964C60.3563 67.9802 59.9598 67.9018 59.6417 67.6789ZM68.9515 57.083L64.1652 54.3164L75.2319 35.1429L80.0181 37.9096L68.9515 57.083ZM81.4015 35.5164L76.6152 32.7497L79.3819 27.9635L84.1681 30.7301L81.4015 35.5164Z" fill="#FECB2F"/>
<path d="M26.8287 66.9872L21.9323 71.8708L18.9995 68.938C18.4598 68.4017 17.5885 68.4017 17.0488 68.938C16.7867 69.198 16.6395 69.5513 16.6395 69.9201C16.6395 70.2889 16.7867 70.6428 17.0488 70.9022L19.9816 73.835C20.5004 74.3497 21.2015 74.6381 21.9323 74.6375C22.6672 74.6415 23.3744 74.3531 23.8965 73.835L28.7794 68.938C29.2495 68.3888 29.2178 67.5708 28.7071 67.0602C28.1958 66.5489 27.3778 66.5171 26.8287 66.9872Z" fill="#FECB2F"/>
<path d="M10.5333 70.7083C10.5333 77.2028 15.7978 82.4667 22.2917 82.4667C28.7855 82.4667 34.05 77.2028 34.05 70.7083C34.05 69.9444 33.4306 69.325 32.6667 69.325C31.9027 69.325 31.2833 69.9444 31.2833 70.7083C31.2833 75.6743 27.2576 79.7 22.2917 79.7C17.3257 79.7 13.3 75.6743 13.3 70.7083C13.3 65.7424 17.3257 61.7167 22.2917 61.7167C24.2383 61.7113 26.133 62.3428 27.6865 63.5154C28.2978 63.974 29.1651 63.8498 29.6231 63.2385C30.0817 62.6272 29.9581 61.7606 29.3468 61.3019C25.7838 58.6298 21.0164 58.2002 17.0332 60.1915C13.0494 62.1834 10.5333 66.2551 10.5333 70.7083Z" fill="#FECB2F"/>
<path d="M54.8 16.0667C55.5639 16.0667 56.1833 15.4479 56.1833 14.6833C56.1833 13.9194 55.5639 13.3 54.8 13.3H18.8333C18.0694 13.3 17.45 13.9194 17.45 14.6833V20.2167C17.45 20.9813 18.0694 21.6 18.8333 21.6H54.8C55.5639 21.6 56.1833 20.9813 56.1833 20.2167C56.1833 19.4527 55.5639 18.8333 54.8 18.8333H20.2167V16.0667H54.8Z" fill="#FECB2F"/>
<path d="M22.9833 24.3667C22.2194 24.3667 21.6 24.9861 21.6 25.75C21.6 26.5146 22.2194 27.1333 22.9833 27.1333H50.65C51.4139 27.1333 52.0333 26.5146 52.0333 25.75C52.0333 24.9861 51.4139 24.3667 50.65 24.3667H22.9833Z" fill="#FECB2F"/>
<path d="M58.95 34.05H28.5167C27.7527 34.05 27.1333 34.6694 27.1333 35.4333C27.1333 36.1979 27.7527 36.8167 28.5167 36.8167H58.95C59.7139 36.8167 60.3333 36.1979 60.3333 35.4333C60.3333 34.6694 59.7139 34.05 58.95 34.05Z" fill="#FECB2F"/>
<path d="M45.1167 43.7333C45.1167 42.9694 44.4973 42.35 43.7333 42.35H16.0667C15.3027 42.35 14.6833 42.9694 14.6833 43.7333C14.6833 44.498 15.3027 45.1167 16.0667 45.1167H43.7333C44.4973 45.1167 45.1167 44.498 45.1167 43.7333Z" fill="#FECB2F"/>
<path d="M58.95 42.35H49.2667C48.5027 42.35 47.8833 42.9694 47.8833 43.7333C47.8833 44.498 48.5027 45.1167 49.2667 45.1167H58.95C59.7139 45.1167 60.3333 44.498 60.3333 43.7333C60.3333 42.9694 59.7139 42.35 58.95 42.35Z" fill="#FECB2F"/>
<path d="M29.9 52.0333C30.6639 52.0333 31.2833 51.4146 31.2833 50.65C31.2833 49.8861 30.6639 49.2667 29.9 49.2667H16.0667C15.3027 49.2667 14.6833 49.8861 14.6833 50.65C14.6833 51.4146 15.3027 52.0333 16.0667 52.0333H29.9Z" fill="#FECB2F"/>
<path d="M35.4333 52.0333H45.1167C45.8806 52.0333 46.5 51.4146 46.5 50.65C46.5 49.8861 45.8806 49.2667 45.1167 49.2667H35.4333C34.6694 49.2667 34.05 49.8861 34.05 50.65C34.05 51.4146 34.6694 52.0333 35.4333 52.0333Z" fill="#FECB2F"/>
<path d="M67.25 68.6333C66.4861 68.6333 65.8667 69.2527 65.8667 70.0167V83.85C65.8667 84.6146 65.2473 85.2333 64.4833 85.2333H9.15C8.38606 85.2333 7.76667 84.6146 7.76667 83.85V9.15C7.76667 8.38606 8.38606 7.76667 9.15 7.76667H64.4833C65.2473 7.76667 65.8667 8.38606 65.8667 9.15V35.1294C65.8667 35.8933 66.4861 36.5127 67.25 36.5127C68.0139 36.5127 68.6333 35.8933 68.6333 35.1294V9.15C68.6333 6.85818 66.7752 5 64.4833 5H9.15C6.85818 5 5 6.85818 5 9.15V83.85C5 86.1425 6.85818 88 9.15 88H64.4833C66.7752 88 68.6333 86.1425 68.6333 83.85V70.0167C68.6333 69.2527 68.0139 68.6333 67.25 68.6333Z" fill="#FECB2F"/>
<path d="M87.8615 24.6713C87.5758 23.6088 86.8787 22.703 85.925 22.1539C84.9706 21.602 83.8358 21.4527 82.7713 21.7385C81.7081 22.0249 80.8023 22.7213 80.2532 23.675L79.5615 24.8787C78.9043 24.5011 78.0647 24.7233 77.6804 25.3771L74.1667 31.3664L72.963 30.6747C72.6442 30.4903 72.2646 30.4404 71.9093 30.5363C71.5533 30.6329 71.2507 30.8666 71.0677 31.1867C70.6928 31.848 70.9211 32.6883 71.5797 33.0679L72.7833 33.7596L61.025 54.136L58.1199 61.897L56.7365 64.4833C55.9267 65.8923 56.0131 67.6438 56.9581 68.9657L53.8456 72.7833L52.9742 70.5982C52.5811 69.6242 51.6713 68.9569 50.625 68.8751C49.5781 68.7927 48.575 69.3101 48.0353 70.2105L47.5375 71.0542L47.0674 65.5208C46.9593 64.2118 45.9454 63.1594 44.6418 63.0014C43.3375 62.844 42.1028 63.6255 41.686 64.871L38.2831 75.0799C38.0453 75.8019 38.4344 76.5801 39.1544 76.8232C39.2895 76.8861 39.4347 76.9239 39.5833 76.9333C40.1777 76.9354 40.7073 76.5564 40.8978 75.9931L44.2865 65.7843L44.7708 71.4C44.8708 72.5983 45.732 73.5946 46.9032 73.8661C48.0745 74.1376 49.2863 73.6216 49.9029 72.5902L50.4149 71.7458L51.2728 73.9181C51.6368 74.8333 52.4602 75.4865 53.4349 75.6317C54.4096 75.777 55.3876 75.3926 56.0037 74.6233L59.2269 70.5428C59.5836 70.6361 59.951 70.6827 60.3198 70.6813C61.8024 70.6928 63.179 69.912 63.9301 68.6333L65.3135 66.3233L70.584 59.9186L82.4667 39.2929L83.6703 39.9846C83.9912 40.1683 84.2249 40.4716 84.3201 40.8289C84.416 41.1835 84.366 41.5617 84.1823 41.8799L78.649 51.4666C78.4403 51.7814 78.3693 52.1678 78.4531 52.5366C78.5369 52.9047 78.7672 53.2228 79.0914 53.4167C79.4102 53.6017 79.7898 53.6517 80.1451 53.5558C80.5011 53.4592 80.8037 53.2255 80.9867 52.9053L86.5201 43.3186C87.0719 42.3642 87.2212 41.2294 86.9348 40.1649C86.6484 39.1017 85.952 38.1959 84.9983 37.6468L83.7946 36.9551L87.2529 30.9652C87.6305 30.308 87.4083 29.4691 86.7551 29.084L87.4468 27.8804C88.0135 26.9111 88.1635 25.7534 87.8615 24.6713ZM82.6463 25.0583C82.8294 24.7382 83.1333 24.5038 83.4906 24.4085C83.8459 24.3207 84.2215 24.37 84.5417 24.547C84.8625 24.7301 85.0962 25.034 85.1921 25.3907C85.2799 25.7459 85.2306 26.1215 85.0537 26.4417L84.362 27.6453L81.9547 26.262L82.6463 25.0583ZM63.7917 63.6816L61.0527 62.0902L63.0169 56.8338L67.3743 59.3512L63.7917 63.6816ZM59.6417 67.6789C59.0574 67.2716 58.8777 66.4881 59.2269 65.8667L59.9186 64.6637L62.3252 66.047L61.6336 67.2365C61.4397 67.5729 61.1142 67.812 60.7352 67.8964C60.3563 67.9802 59.9598 67.9018 59.6417 67.6789ZM68.9515 57.083L64.1652 54.3164L75.2319 35.1429L80.0181 37.9096L68.9515 57.083ZM81.4015 35.5164L76.6152 32.7497L79.3819 27.9635L84.1681 30.7301L81.4015 35.5164Z" stroke="#F9FBFD" stroke-width="10" mask="url(#path-1-outside-1_15_8144)"/>
<path d="M26.8287 66.9872L21.9323 71.8708L18.9995 68.938C18.4598 68.4017 17.5885 68.4017 17.0488 68.938C16.7867 69.198 16.6395 69.5513 16.6395 69.9201C16.6395 70.2889 16.7867 70.6428 17.0488 70.9022L19.9816 73.835C20.5004 74.3497 21.2015 74.6381 21.9323 74.6375C22.6672 74.6415 23.3744 74.3531 23.8965 73.835L28.7794 68.938C29.2495 68.3888 29.2178 67.5708 28.7071 67.0602C28.1958 66.5489 27.3778 66.5171 26.8287 66.9872Z" stroke="#F9FBFD" stroke-width="10" mask="url(#path-1-outside-1_15_8144)"/>
<path d="M10.5333 70.7083C10.5333 77.2028 15.7978 82.4667 22.2917 82.4667C28.7855 82.4667 34.05 77.2028 34.05 70.7083C34.05 69.9444 33.4306 69.325 32.6667 69.325C31.9027 69.325 31.2833 69.9444 31.2833 70.7083C31.2833 75.6743 27.2576 79.7 22.2917 79.7C17.3257 79.7 13.3 75.6743 13.3 70.7083C13.3 65.7424 17.3257 61.7167 22.2917 61.7167C24.2383 61.7113 26.133 62.3428 27.6865 63.5154C28.2978 63.974 29.1651 63.8498 29.6231 63.2385C30.0817 62.6272 29.9581 61.7606 29.3468 61.3019C25.7838 58.6298 21.0164 58.2002 17.0332 60.1915C13.0494 62.1834 10.5333 66.2551 10.5333 70.7083Z" stroke="#F9FBFD" stroke-width="10" mask="url(#path-1-outside-1_15_8144)"/>
<path d="M54.8 16.0667C55.5639 16.0667 56.1833 15.4479 56.1833 14.6833C56.1833 13.9194 55.5639 13.3 54.8 13.3H18.8333C18.0694 13.3 17.45 13.9194 17.45 14.6833V20.2167C17.45 20.9813 18.0694 21.6 18.8333 21.6H54.8C55.5639 21.6 56.1833 20.9813 56.1833 20.2167C56.1833 19.4527 55.5639 18.8333 54.8 18.8333H20.2167V16.0667H54.8Z" stroke="#F9FBFD" stroke-width="10" mask="url(#path-1-outside-1_15_8144)"/>
<path d="M22.9833 24.3667C22.2194 24.3667 21.6 24.9861 21.6 25.75C21.6 26.5146 22.2194 27.1333 22.9833 27.1333H50.65C51.4139 27.1333 52.0333 26.5146 52.0333 25.75C52.0333 24.9861 51.4139 24.3667 50.65 24.3667H22.9833Z" stroke="#F9FBFD" stroke-width="10" mask="url(#path-1-outside-1_15_8144)"/>
<path d="M58.95 34.05H28.5167C27.7527 34.05 27.1333 34.6694 27.1333 35.4333C27.1333 36.1979 27.7527 36.8167 28.5167 36.8167H58.95C59.7139 36.8167 60.3333 36.1979 60.3333 35.4333C60.3333 34.6694 59.7139 34.05 58.95 34.05Z" stroke="#F9FBFD" stroke-width="10" mask="url(#path-1-outside-1_15_8144)"/>
<path d="M45.1167 43.7333C45.1167 42.9694 44.4973 42.35 43.7333 42.35H16.0667C15.3027 42.35 14.6833 42.9694 14.6833 43.7333C14.6833 44.498 15.3027 45.1167 16.0667 45.1167H43.7333C44.4973 45.1167 45.1167 44.498 45.1167 43.7333Z" stroke="#F9FBFD" stroke-width="10" mask="url(#path-1-outside-1_15_8144)"/>
<path d="M58.95 42.35H49.2667C48.5027 42.35 47.8833 42.9694 47.8833 43.7333C47.8833 44.498 48.5027 45.1167 49.2667 45.1167H58.95C59.7139 45.1167 60.3333 44.498 60.3333 43.7333C60.3333 42.9694 59.7139 42.35 58.95 42.35Z" stroke="#F9FBFD" stroke-width="10" mask="url(#path-1-outside-1_15_8144)"/>
<path d="M29.9 52.0333C30.6639 52.0333 31.2833 51.4146 31.2833 50.65C31.2833 49.8861 30.6639 49.2667 29.9 49.2667H16.0667C15.3027 49.2667 14.6833 49.8861 14.6833 50.65C14.6833 51.4146 15.3027 52.0333 16.0667 52.0333H29.9Z" stroke="#F9FBFD" stroke-width="10" mask="url(#path-1-outside-1_15_8144)"/>
<path d="M35.4333 52.0333H45.1167C45.8806 52.0333 46.5 51.4146 46.5 50.65C46.5 49.8861 45.8806 49.2667 45.1167 49.2667H35.4333C34.6694 49.2667 34.05 49.8861 34.05 50.65C34.05 51.4146 34.6694 52.0333 35.4333 52.0333Z" stroke="#F9FBFD" stroke-width="10" mask="url(#path-1-outside-1_15_8144)"/>
<path d="M67.25 68.6333C66.4861 68.6333 65.8667 69.2527 65.8667 70.0167V83.85C65.8667 84.6146 65.2473 85.2333 64.4833 85.2333H9.15C8.38606 85.2333 7.76667 84.6146 7.76667 83.85V9.15C7.76667 8.38606 8.38606 7.76667 9.15 7.76667H64.4833C65.2473 7.76667 65.8667 8.38606 65.8667 9.15V35.1294C65.8667 35.8933 66.4861 36.5127 67.25 36.5127C68.0139 36.5127 68.6333 35.8933 68.6333 35.1294V9.15C68.6333 6.85818 66.7752 5 64.4833 5H9.15C6.85818 5 5 6.85818 5 9.15V83.85C5 86.1425 6.85818 88 9.15 88H64.4833C66.7752 88 68.6333 86.1425 68.6333 83.85V70.0167C68.6333 69.2527 68.0139 68.6333 67.25 68.6333Z" stroke="#F9FBFD" stroke-width="10" mask="url(#path-1-outside-1_15_8144)"/>
</svg>
