<svg width="21" height="22" viewBox="0 0 21 22" fill="none" xmlns="http://www.w3.org/2000/svg">
<path d="M10.5 0.885986C8.4233 0.885986 6.39323 1.5018 4.66652 2.65555C2.9398 3.80931 1.59399 5.44919 0.799269 7.36781C0.00454955 9.28643 -0.203386 11.3976 0.201759 13.4344C0.606904 15.4712 1.60693 17.3422 3.07538 18.8106C4.54383 20.2791 6.41475 21.2791 8.45155 21.6842C10.4884 22.0894 12.5996 21.8814 14.5182 21.0867C16.4368 20.292 18.0767 18.9462 19.2304 17.2195C20.3842 15.4928 21 13.4627 21 11.386C20.9967 8.60222 19.8894 5.93341 17.921 3.96499C15.9526 1.99657 13.2838 0.88927 10.5 0.885986ZM14.0385 14.9245C13.8595 15.1034 13.6167 15.204 13.3636 15.204C13.1105 15.204 12.8678 15.1034 12.6888 14.9245L9.82514 12.0608C9.64611 11.8819 9.54551 11.6391 9.54546 11.386V5.65871C9.54546 5.40555 9.64602 5.16276 9.82504 4.98375C10.004 4.80474 10.2468 4.70417 10.5 4.70417C10.7532 4.70417 10.996 4.80474 11.175 4.98375C11.354 5.16276 11.4545 5.40555 11.4545 5.65871V10.9908L14.0385 13.5748C14.2175 13.7538 14.318 13.9965 14.318 14.2496C14.318 14.5027 14.2175 14.7455 14.0385 14.9245Z" fill="#F4B434"/>
</svg>
