<svg width="81" height="72" viewBox="0 0 81 72" fill="none" xmlns="http://www.w3.org/2000/svg">
<path d="M41.1922 0.00603093C18.8286 -0.376045 0.38811 17.444 0.00603492 39.8076C-0.210984 52.4879 5.44068 63.8845 14.4393 71.4633C15.0277 70.9498 15.6589 70.4791 16.3604 70.097L28.4447 63.5054C30.0295 62.6404 31.0168 60.9792 31.0168 59.1727V54.221C31.0168 54.221 27.4696 49.9784 26.1171 44.0838C24.9953 43.3578 24.2434 42.1031 24.2434 40.6741V35.2548C24.2434 34.0627 24.7737 32.9975 25.5974 32.2517V24.4176C25.5974 24.4176 23.9881 12.2263 40.4984 12.2263C57.0086 12.2263 55.3993 24.4176 55.3993 24.4176V32.2517C56.2246 32.9975 56.7534 34.0627 56.7534 35.2548V40.6741C56.7534 42.4959 55.5308 44.0288 53.871 44.5407C52.9464 47.4155 51.6122 50.1557 49.8485 52.6469C49.4038 53.275 48.9881 53.8068 48.6244 54.221V59.298C48.6244 61.1671 49.6804 62.8773 51.3524 63.7118L64.2925 70.1811C65.0689 70.5693 65.7704 71.0598 66.4169 71.6054C75.1435 64.3277 80.7814 53.4462 80.9908 41.1922C81.3759 18.8286 63.5574 0.388106 41.1922 0.00603093Z" fill="#FECB2F"/>
</svg>
