<svg width="90" height="93" viewBox="0 0 90 93" fill="none" xmlns="http://www.w3.org/2000/svg">
<mask id="path-1-outside-1_15_8142" maskUnits="userSpaceOnUse" x="0" y="0" width="90" height="93" fill="black">
<rect fill="white" width="90" height="93"/>
<path d="M82.3546 53.6156H81.1187V42.4276C81.1187 40.6564 80.2416 39.0882 78.902 38.1353V36.6119C78.902 34.4022 77.1134 32.6046 74.9148 32.6046H73.992L77.5226 27.3976C78.7061 25.6524 78.2561 23.2647 76.5195 22.0751L52.5621 5.66639C51.721 5.09009 50.7071 4.8774 49.7064 5.06821C48.7062 5.25869 47.8395 5.82915 47.2663 6.67471L26.588 37.1712H20.8338L22.222 23.0466C22.2377 22.8874 22.3406 22.7495 22.4841 22.6952C24.2728 22.0174 25.8228 20.7516 26.8487 19.1312C26.9295 19.0036 27.0819 18.9307 27.2396 18.9467L36.2649 19.8429C36.9121 19.9059 37.4877 19.4322 37.5516 18.7822C37.6155 18.1321 37.143 17.5532 36.4962 17.489L27.4709 16.5929C26.4233 16.4898 25.4242 16.975 24.8629 17.8614C24.1087 19.0529 22.969 19.9834 21.654 20.4817C20.6641 20.8569 19.9844 21.7504 19.8799 22.814L18.4688 37.1711H16.9683L19.1639 14.8317C19.2429 14.0277 19.957 13.4369 20.758 13.5175L38.9963 15.3283C39.6431 15.391 40.2191 14.9177 40.283 14.2676C40.3469 13.6175 39.8744 13.0386 39.2276 12.9744L20.9893 11.1637C18.8982 10.9563 17.0283 12.4972 16.8217 14.5991L15.052 32.6046H12.0381C9.83968 32.6046 8.05091 34.4022 8.05091 36.6119V37.6511C6.2523 38.4833 5 40.3106 5 42.4276V82.7434C5 85.642 7.34621 88 10.2303 88H75.8886C78.7725 88 81.1187 85.642 81.1187 82.7434V71.5556H82.3546C83.8133 71.5556 85 70.363 85 68.897V56.2744C85.0002 54.8083 83.8133 53.6156 82.3546 53.6156ZM74.9148 34.9701C75.8158 34.9699 76.5486 35.7066 76.5486 36.6121V37.2147C76.3321 37.1871 76.1123 37.1714 75.8886 37.1714H70.8956L72.3881 34.9701H74.9148ZM49.211 8.0066C49.4304 7.68319 49.7619 7.46499 50.1445 7.39205C50.2359 7.3747 50.3277 7.36595 50.4188 7.36595C50.7087 7.36595 50.9919 7.45316 51.2367 7.62078L75.1942 24.0295C75.8584 24.4845 76.0307 25.3979 75.5781 26.0654L68.0478 37.1709H66.2406L69.9325 31.7261C70.5313 30.8431 70.5806 29.7194 70.0609 28.7932C69.3703 27.5628 69.0903 26.1141 69.2725 24.7136C69.408 23.6717 68.9519 22.6547 68.0822 22.0591L55.6627 13.5529C54.7928 12.9571 53.6841 12.9025 52.7689 13.4104C51.539 14.0928 50.0949 14.3608 48.7029 14.165C47.6707 14.0194 46.6237 14.4879 46.0338 15.3576L31.2432 37.1711H29.436L49.211 8.0066ZM49.7293 28.0905C44.6047 28.0905 40.3981 32.1064 40.0554 37.1711H34.0908L47.9782 16.6897H47.9784C48.0573 16.5731 48.1881 16.5037 48.3225 16.5037C48.3404 16.5037 48.3583 16.505 48.3762 16.5075C50.2695 16.7736 52.2332 16.4095 53.9062 15.4811C54.0378 15.4079 54.2068 15.4184 54.3372 15.5076L66.7568 24.0139C66.8868 24.1031 66.9583 24.2574 66.9389 24.4072C66.691 26.3118 67.072 28.2821 68.0112 29.9554C68.0865 30.0898 68.0773 30.262 67.988 30.3941L63.393 37.1709H59.4036C59.0606 32.1064 54.8541 28.0905 49.7293 28.0905ZM57.0437 37.1712H42.415C42.7521 33.4121 45.9029 30.456 49.7293 30.456C53.5559 30.4558 56.7068 33.4121 57.0437 37.1712ZM10.4044 36.6119C10.4044 35.7064 11.1371 34.9698 12.0381 34.9698H14.8195L14.6032 37.1711H10.4044V36.6119ZM7.35347 42.4276C7.35347 40.8334 8.644 39.5364 10.2303 39.5364H75.8886C77.4749 39.5364 78.7653 40.8334 78.7653 42.4276V45.7094H7.35347V42.4276ZM78.7653 82.7434C78.7653 84.3376 77.4749 85.6347 75.8886 85.6347H10.2303C8.644 85.6347 7.35347 84.3376 7.35347 82.7434V79.4617H13.6992C14.3492 79.4617 14.8758 78.9322 14.8758 78.2791C14.8758 77.626 14.349 77.0965 13.6992 77.0965H7.35347V48.0747H78.7653V53.6156H67.5767C64.0514 53.6156 60.9977 55.6809 59.5485 58.6703C59.5436 58.6804 59.5382 58.6901 59.5332 58.7002C59.5209 58.7256 59.5103 58.752 59.4983 58.7777C59.3257 59.1461 59.1757 59.5276 59.0536 59.9212C59.0533 59.9223 59.053 59.9233 59.0527 59.9244C58.7922 60.7656 58.6517 61.6593 58.6517 62.5856C58.6517 67.5317 62.6554 71.5556 67.5765 71.5556H78.7651V77.0965H21.2339C20.5839 77.0965 20.0573 77.626 20.0573 78.2791C20.0573 78.9322 20.5841 79.4617 21.2339 79.4617H78.7653V82.7434ZM82.6467 68.8969C82.6467 69.0586 82.5157 69.1903 82.3546 69.1903H67.577C65.0858 69.1903 62.9138 67.7898 61.7997 65.7312C61.749 65.6377 61.7007 65.5427 61.6544 65.4465C61.5619 65.2541 61.4785 65.0565 61.4048 64.8542C61.1464 64.1464 61.0055 63.3822 61.0055 62.5856C61.0055 61.789 61.1466 61.0248 61.4048 60.3171C61.4787 60.1149 61.5621 59.9173 61.6544 59.7247C61.7007 59.6286 61.749 59.5336 61.7997 59.44C62.9138 57.3814 65.0858 55.9809 67.577 55.9809H82.3546C82.5156 55.9809 82.6467 56.1126 82.6467 56.2744V68.8969Z"/>
<path d="M67.8526 57.7872C65.22 57.7872 63.0783 59.9398 63.0783 62.5856C63.0783 65.2314 65.22 67.3839 67.8526 67.3839C70.4853 67.3839 72.627 65.2314 72.627 62.5856C72.627 59.9398 70.4853 57.7872 67.8526 57.7872ZM67.8526 65.0186C66.5178 65.0186 65.4317 63.9271 65.4317 62.5856C65.4317 61.2442 66.5178 60.1525 67.8526 60.1525C69.1875 60.1525 70.2735 61.244 70.2735 62.5856C70.2735 63.9272 69.1875 65.0186 67.8526 65.0186Z"/>
</mask>
<path d="M82.3546 53.6156H81.1187V42.4276C81.1187 40.6564 80.2416 39.0882 78.902 38.1353V36.6119C78.902 34.4022 77.1134 32.6046 74.9148 32.6046H73.992L77.5226 27.3976C78.7061 25.6524 78.2561 23.2647 76.5195 22.0751L52.5621 5.66639C51.721 5.09009 50.7071 4.8774 49.7064 5.06821C48.7062 5.25869 47.8395 5.82915 47.2663 6.67471L26.588 37.1712H20.8338L22.222 23.0466C22.2377 22.8874 22.3406 22.7495 22.4841 22.6952C24.2728 22.0174 25.8228 20.7516 26.8487 19.1312C26.9295 19.0036 27.0819 18.9307 27.2396 18.9467L36.2649 19.8429C36.9121 19.9059 37.4877 19.4322 37.5516 18.7822C37.6155 18.1321 37.143 17.5532 36.4962 17.489L27.4709 16.5929C26.4233 16.4898 25.4242 16.975 24.8629 17.8614C24.1087 19.0529 22.969 19.9834 21.654 20.4817C20.6641 20.8569 19.9844 21.7504 19.8799 22.814L18.4688 37.1711H16.9683L19.1639 14.8317C19.2429 14.0277 19.957 13.4369 20.758 13.5175L38.9963 15.3283C39.6431 15.391 40.2191 14.9177 40.283 14.2676C40.3469 13.6175 39.8744 13.0386 39.2276 12.9744L20.9893 11.1637C18.8982 10.9563 17.0283 12.4972 16.8217 14.5991L15.052 32.6046H12.0381C9.83968 32.6046 8.05091 34.4022 8.05091 36.6119V37.6511C6.2523 38.4833 5 40.3106 5 42.4276V82.7434C5 85.642 7.34621 88 10.2303 88H75.8886C78.7725 88 81.1187 85.642 81.1187 82.7434V71.5556H82.3546C83.8133 71.5556 85 70.363 85 68.897V56.2744C85.0002 54.8083 83.8133 53.6156 82.3546 53.6156ZM74.9148 34.9701C75.8158 34.9699 76.5486 35.7066 76.5486 36.6121V37.2147C76.3321 37.1871 76.1123 37.1714 75.8886 37.1714H70.8956L72.3881 34.9701H74.9148ZM49.211 8.0066C49.4304 7.68319 49.7619 7.46499 50.1445 7.39205C50.2359 7.3747 50.3277 7.36595 50.4188 7.36595C50.7087 7.36595 50.9919 7.45316 51.2367 7.62078L75.1942 24.0295C75.8584 24.4845 76.0307 25.3979 75.5781 26.0654L68.0478 37.1709H66.2406L69.9325 31.7261C70.5313 30.8431 70.5806 29.7194 70.0609 28.7932C69.3703 27.5628 69.0903 26.1141 69.2725 24.7136C69.408 23.6717 68.9519 22.6547 68.0822 22.0591L55.6627 13.5529C54.7928 12.9571 53.6841 12.9025 52.7689 13.4104C51.539 14.0928 50.0949 14.3608 48.7029 14.165C47.6707 14.0194 46.6237 14.4879 46.0338 15.3576L31.2432 37.1711H29.436L49.211 8.0066ZM49.7293 28.0905C44.6047 28.0905 40.3981 32.1064 40.0554 37.1711H34.0908L47.9782 16.6897H47.9784C48.0573 16.5731 48.1881 16.5037 48.3225 16.5037C48.3404 16.5037 48.3583 16.505 48.3762 16.5075C50.2695 16.7736 52.2332 16.4095 53.9062 15.4811C54.0378 15.4079 54.2068 15.4184 54.3372 15.5076L66.7568 24.0139C66.8868 24.1031 66.9583 24.2574 66.9389 24.4072C66.691 26.3118 67.072 28.2821 68.0112 29.9554C68.0865 30.0898 68.0773 30.262 67.988 30.3941L63.393 37.1709H59.4036C59.0606 32.1064 54.8541 28.0905 49.7293 28.0905ZM57.0437 37.1712H42.415C42.7521 33.4121 45.9029 30.456 49.7293 30.456C53.5559 30.4558 56.7068 33.4121 57.0437 37.1712ZM10.4044 36.6119C10.4044 35.7064 11.1371 34.9698 12.0381 34.9698H14.8195L14.6032 37.1711H10.4044V36.6119ZM7.35347 42.4276C7.35347 40.8334 8.644 39.5364 10.2303 39.5364H75.8886C77.4749 39.5364 78.7653 40.8334 78.7653 42.4276V45.7094H7.35347V42.4276ZM78.7653 82.7434C78.7653 84.3376 77.4749 85.6347 75.8886 85.6347H10.2303C8.644 85.6347 7.35347 84.3376 7.35347 82.7434V79.4617H13.6992C14.3492 79.4617 14.8758 78.9322 14.8758 78.2791C14.8758 77.626 14.349 77.0965 13.6992 77.0965H7.35347V48.0747H78.7653V53.6156H67.5767C64.0514 53.6156 60.9977 55.6809 59.5485 58.6703C59.5436 58.6804 59.5382 58.6901 59.5332 58.7002C59.5209 58.7256 59.5103 58.752 59.4983 58.7777C59.3257 59.1461 59.1757 59.5276 59.0536 59.9212C59.0533 59.9223 59.053 59.9233 59.0527 59.9244C58.7922 60.7656 58.6517 61.6593 58.6517 62.5856C58.6517 67.5317 62.6554 71.5556 67.5765 71.5556H78.7651V77.0965H21.2339C20.5839 77.0965 20.0573 77.626 20.0573 78.2791C20.0573 78.9322 20.5841 79.4617 21.2339 79.4617H78.7653V82.7434ZM82.6467 68.8969C82.6467 69.0586 82.5157 69.1903 82.3546 69.1903H67.577C65.0858 69.1903 62.9138 67.7898 61.7997 65.7312C61.749 65.6377 61.7007 65.5427 61.6544 65.4465C61.5619 65.2541 61.4785 65.0565 61.4048 64.8542C61.1464 64.1464 61.0055 63.3822 61.0055 62.5856C61.0055 61.789 61.1466 61.0248 61.4048 60.3171C61.4787 60.1149 61.5621 59.9173 61.6544 59.7247C61.7007 59.6286 61.749 59.5336 61.7997 59.44C62.9138 57.3814 65.0858 55.9809 67.577 55.9809H82.3546C82.5156 55.9809 82.6467 56.1126 82.6467 56.2744V68.8969Z" fill="#FECB2F"/>
<path d="M67.8526 57.7872C65.22 57.7872 63.0783 59.9398 63.0783 62.5856C63.0783 65.2314 65.22 67.3839 67.8526 67.3839C70.4853 67.3839 72.627 65.2314 72.627 62.5856C72.627 59.9398 70.4853 57.7872 67.8526 57.7872ZM67.8526 65.0186C66.5178 65.0186 65.4317 63.9271 65.4317 62.5856C65.4317 61.2442 66.5178 60.1525 67.8526 60.1525C69.1875 60.1525 70.2735 61.244 70.2735 62.5856C70.2735 63.9272 69.1875 65.0186 67.8526 65.0186Z" fill="#FECB2F"/>
<path d="M82.3546 53.6156H81.1187V42.4276C81.1187 40.6564 80.2416 39.0882 78.902 38.1353V36.6119C78.902 34.4022 77.1134 32.6046 74.9148 32.6046H73.992L77.5226 27.3976C78.7061 25.6524 78.2561 23.2647 76.5195 22.0751L52.5621 5.66639C51.721 5.09009 50.7071 4.8774 49.7064 5.06821C48.7062 5.25869 47.8395 5.82915 47.2663 6.67471L26.588 37.1712H20.8338L22.222 23.0466C22.2377 22.8874 22.3406 22.7495 22.4841 22.6952C24.2728 22.0174 25.8228 20.7516 26.8487 19.1312C26.9295 19.0036 27.0819 18.9307 27.2396 18.9467L36.2649 19.8429C36.9121 19.9059 37.4877 19.4322 37.5516 18.7822C37.6155 18.1321 37.143 17.5532 36.4962 17.489L27.4709 16.5929C26.4233 16.4898 25.4242 16.975 24.8629 17.8614C24.1087 19.0529 22.969 19.9834 21.654 20.4817C20.6641 20.8569 19.9844 21.7504 19.8799 22.814L18.4688 37.1711H16.9683L19.1639 14.8317C19.2429 14.0277 19.957 13.4369 20.758 13.5175L38.9963 15.3283C39.6431 15.391 40.2191 14.9177 40.283 14.2676C40.3469 13.6175 39.8744 13.0386 39.2276 12.9744L20.9893 11.1637C18.8982 10.9563 17.0283 12.4972 16.8217 14.5991L15.052 32.6046H12.0381C9.83968 32.6046 8.05091 34.4022 8.05091 36.6119V37.6511C6.2523 38.4833 5 40.3106 5 42.4276V82.7434C5 85.642 7.34621 88 10.2303 88H75.8886C78.7725 88 81.1187 85.642 81.1187 82.7434V71.5556H82.3546C83.8133 71.5556 85 70.363 85 68.897V56.2744C85.0002 54.8083 83.8133 53.6156 82.3546 53.6156ZM74.9148 34.9701C75.8158 34.9699 76.5486 35.7066 76.5486 36.6121V37.2147C76.3321 37.1871 76.1123 37.1714 75.8886 37.1714H70.8956L72.3881 34.9701H74.9148ZM49.211 8.0066C49.4304 7.68319 49.7619 7.46499 50.1445 7.39205C50.2359 7.3747 50.3277 7.36595 50.4188 7.36595C50.7087 7.36595 50.9919 7.45316 51.2367 7.62078L75.1942 24.0295C75.8584 24.4845 76.0307 25.3979 75.5781 26.0654L68.0478 37.1709H66.2406L69.9325 31.7261C70.5313 30.8431 70.5806 29.7194 70.0609 28.7932C69.3703 27.5628 69.0903 26.1141 69.2725 24.7136C69.408 23.6717 68.9519 22.6547 68.0822 22.0591L55.6627 13.5529C54.7928 12.9571 53.6841 12.9025 52.7689 13.4104C51.539 14.0928 50.0949 14.3608 48.7029 14.165C47.6707 14.0194 46.6237 14.4879 46.0338 15.3576L31.2432 37.1711H29.436L49.211 8.0066ZM49.7293 28.0905C44.6047 28.0905 40.3981 32.1064 40.0554 37.1711H34.0908L47.9782 16.6897H47.9784C48.0573 16.5731 48.1881 16.5037 48.3225 16.5037C48.3404 16.5037 48.3583 16.505 48.3762 16.5075C50.2695 16.7736 52.2332 16.4095 53.9062 15.4811C54.0378 15.4079 54.2068 15.4184 54.3372 15.5076L66.7568 24.0139C66.8868 24.1031 66.9583 24.2574 66.9389 24.4072C66.691 26.3118 67.072 28.2821 68.0112 29.9554C68.0865 30.0898 68.0773 30.262 67.988 30.3941L63.393 37.1709H59.4036C59.0606 32.1064 54.8541 28.0905 49.7293 28.0905ZM57.0437 37.1712H42.415C42.7521 33.4121 45.9029 30.456 49.7293 30.456C53.5559 30.4558 56.7068 33.4121 57.0437 37.1712ZM10.4044 36.6119C10.4044 35.7064 11.1371 34.9698 12.0381 34.9698H14.8195L14.6032 37.1711H10.4044V36.6119ZM7.35347 42.4276C7.35347 40.8334 8.644 39.5364 10.2303 39.5364H75.8886C77.4749 39.5364 78.7653 40.8334 78.7653 42.4276V45.7094H7.35347V42.4276ZM78.7653 82.7434C78.7653 84.3376 77.4749 85.6347 75.8886 85.6347H10.2303C8.644 85.6347 7.35347 84.3376 7.35347 82.7434V79.4617H13.6992C14.3492 79.4617 14.8758 78.9322 14.8758 78.2791C14.8758 77.626 14.349 77.0965 13.6992 77.0965H7.35347V48.0747H78.7653V53.6156H67.5767C64.0514 53.6156 60.9977 55.6809 59.5485 58.6703C59.5436 58.6804 59.5382 58.6901 59.5332 58.7002C59.5209 58.7256 59.5103 58.752 59.4983 58.7777C59.3257 59.1461 59.1757 59.5276 59.0536 59.9212C59.0533 59.9223 59.053 59.9233 59.0527 59.9244C58.7922 60.7656 58.6517 61.6593 58.6517 62.5856C58.6517 67.5317 62.6554 71.5556 67.5765 71.5556H78.7651V77.0965H21.2339C20.5839 77.0965 20.0573 77.626 20.0573 78.2791C20.0573 78.9322 20.5841 79.4617 21.2339 79.4617H78.7653V82.7434ZM82.6467 68.8969C82.6467 69.0586 82.5157 69.1903 82.3546 69.1903H67.577C65.0858 69.1903 62.9138 67.7898 61.7997 65.7312C61.749 65.6377 61.7007 65.5427 61.6544 65.4465C61.5619 65.2541 61.4785 65.0565 61.4048 64.8542C61.1464 64.1464 61.0055 63.3822 61.0055 62.5856C61.0055 61.789 61.1466 61.0248 61.4048 60.3171C61.4787 60.1149 61.5621 59.9173 61.6544 59.7247C61.7007 59.6286 61.749 59.5336 61.7997 59.44C62.9138 57.3814 65.0858 55.9809 67.577 55.9809H82.3546C82.5156 55.9809 82.6467 56.1126 82.6467 56.2744V68.8969Z" stroke="#F9FBFD" stroke-width="10" mask="url(#path-1-outside-1_15_8142)"/>
<path d="M67.8526 57.7872C65.22 57.7872 63.0783 59.9398 63.0783 62.5856C63.0783 65.2314 65.22 67.3839 67.8526 67.3839C70.4853 67.3839 72.627 65.2314 72.627 62.5856C72.627 59.9398 70.4853 57.7872 67.8526 57.7872ZM67.8526 65.0186C66.5178 65.0186 65.4317 63.9271 65.4317 62.5856C65.4317 61.2442 66.5178 60.1525 67.8526 60.1525C69.1875 60.1525 70.2735 61.244 70.2735 62.5856C70.2735 63.9272 69.1875 65.0186 67.8526 65.0186Z" stroke="#F9FBFD" stroke-width="10" mask="url(#path-1-outside-1_15_8142)"/>
</svg>
