<svg width="21" height="21" viewBox="0 0 21 21" fill="none" xmlns="http://www.w3.org/2000/svg">
<path d="M10.5 0C4.69875 0 0 4.69875 0 10.5C0 12.81 0.735 14.9363 1.995 16.6688L0.55125 20.475L4.725 19.2675C6.37875 20.37 8.37375 21 10.5 21C16.3013 21 21 16.3013 21 10.5C21 4.69875 16.3013 0 10.5 0ZM16.0913 14.8575L14.9625 15.96C13.7813 17.1413 10.6575 15.855 7.90125 13.0725C5.145 10.3163 3.91125 7.1925 5.01375 6.0375L6.1425 4.90875C6.5625 4.48875 7.27125 4.48875 7.7175 4.90875L9.37125 6.5625C9.94875 7.14 9.7125 8.1375 8.95125 8.37375C8.42625 8.5575 8.05875 9.135 8.2425 9.66C8.53125 10.8937 10.1325 12.4163 11.3137 12.705C11.8387 12.8363 12.4425 12.5213 12.6 11.9963C12.8363 11.235 13.8338 10.9988 14.4113 11.5763L16.065 13.23C16.485 13.6763 16.485 14.385 16.0913 14.8575Z" fill="#F3C538"/>
</svg>
