<svg width="58" height="58" viewBox="0 0 58 58" fill="none" xmlns="http://www.w3.org/2000/svg">
<path d="M55.3681 3.09552C53.5023 1.09939 50.9702 0 48.2384 0H9.7604C4.18062 0 -0.355671 4.86237 0.0219941 10.4257L1.72483 35.5146C1.79894 36.6074 3.49475 36.4929 3.42064 35.3995L1.71781 10.3107C1.40575 5.71493 5.15272 1.69922 9.7604 1.69922H48.2384C52.8461 1.69922 56.593 5.71493 56.281 10.3107L53.6699 48.7822C53.3838 52.9982 49.851 56.3008 45.6273 56.3008H12.3716C8.14787 56.3008 4.61517 52.9982 4.32895 48.7821L3.73588 40.044C3.66154 38.951 1.96596 39.0658 2.04006 40.1591L2.63313 48.8972C2.97964 54.0016 7.25724 58 12.3715 58H45.6272C50.7416 58 55.0192 54.0016 55.3656 48.8972L57.9767 10.4257C58.1621 7.69667 57.2356 5.09346 55.3681 3.09552Z" fill="#F0C73E"/>
<path d="M37.5543 19.7676C37.5543 20.2368 37.9348 20.6172 38.4042 20.6172H41.8035C42.2728 20.6172 42.6533 20.2368 42.6533 19.7676C42.6533 12.2407 36.5282 6.11719 28.9994 6.11719C21.4705 6.11719 15.3454 12.2407 15.3454 19.7676C15.3454 20.2368 15.7259 20.6172 16.1952 20.6172H33.7584C34.8545 20.6172 34.8545 18.918 33.7584 18.918H29.6422L25.9446 12.3285C25.4084 11.3729 23.9261 12.2042 24.4623 13.1599L27.6933 18.918H17.075C17.259 16.3102 18.2838 13.9309 19.8791 12.0496L21.0455 13.2156C21.8203 13.9906 23.0224 12.7889 22.2473 12.0142L21.0671 10.8342C22.1984 9.82907 23.5213 9.03531 24.9733 8.51456L25.3975 10.0972C25.6803 11.152 27.3231 10.7164 27.0393 9.65734L26.6103 8.0569C28.1008 7.75342 29.6482 7.73779 31.1447 8.01L30.726 9.57193C30.4423 10.631 32.085 11.0666 32.3678 10.0118L32.7909 8.43334C34.2478 8.92169 35.5805 9.68294 36.7275 10.6569L35.6034 11.7808C34.8283 12.5555 36.0302 13.7571 36.8051 12.9823L37.9423 11.8454C39.6388 13.7573 40.7329 16.215 40.9238 18.918H38.4042C37.9348 18.918 37.5543 19.2984 37.5543 19.7676Z" fill="#F0C73E"/>
<path d="M8.54672 5.4375C6.89102 5.4375 5.54398 6.78419 5.54398 8.43945C5.54398 10.0947 6.89102 11.4414 8.54672 11.4414C10.2024 11.4414 11.5495 10.0947 11.5495 8.43945C11.5495 6.78419 10.2025 5.4375 8.54672 5.4375ZM8.54672 9.74219C7.82822 9.74219 7.24364 9.15777 7.24364 8.43945C7.24364 7.72114 7.82822 7.13672 8.54672 7.13672C9.26523 7.13672 9.8498 7.72114 9.8498 8.43945C9.8498 9.15777 9.26534 9.74219 8.54672 9.74219Z" fill="#F0C73E"/>
<path d="M49.452 11.4414C51.1077 11.4414 52.4547 10.0947 52.4547 8.43945C52.4547 6.78419 51.1078 5.4375 49.452 5.4375C47.7962 5.4375 46.4493 6.78419 46.4493 8.43945C46.4493 10.0947 47.7963 11.4414 49.452 11.4414ZM49.452 7.13672C50.1705 7.13672 50.7551 7.72114 50.7551 8.43945C50.7551 9.15777 50.1705 9.74219 49.452 9.74219C48.7335 9.74219 48.1489 9.15777 48.1489 8.43945C48.1489 7.72114 48.7335 7.13672 49.452 7.13672Z" fill="#F0C73E"/>
<path d="M8.15013 49.1074C8.15013 50.7627 9.49717 52.1094 11.1529 52.1094C12.8086 52.1094 14.1556 50.7627 14.1556 49.1074C14.1556 47.4522 12.8086 46.1055 11.1529 46.1055C9.49717 46.1055 8.15013 47.4522 8.15013 49.1074ZM11.1529 47.8047C11.8714 47.8047 12.456 48.3891 12.456 49.1074C12.456 49.8257 11.8714 50.4102 11.1529 50.4102C10.4344 50.4102 9.8498 49.8257 9.8498 49.1074C9.8498 48.3891 10.4344 47.8047 11.1529 47.8047Z" fill="#F0C73E"/>
<path d="M43.8431 49.1074C43.8431 50.7627 45.1901 52.1094 46.8458 52.1094C48.5015 52.1094 49.8486 50.7627 49.8486 49.1074C49.8486 47.4522 48.5015 46.1055 46.8458 46.1055C45.1901 46.1055 43.8431 47.4522 43.8431 49.1074ZM46.8458 47.8047C47.5643 47.8047 48.1489 48.3891 48.1489 49.1074C48.1489 49.8257 47.5643 50.4102 46.8458 50.4102C46.1273 50.4102 45.5428 49.8257 45.5428 49.1074C45.5428 48.3891 46.1273 47.8047 46.8458 47.8047Z" fill="#F0C73E"/>
</svg>
