<svg width="40" height="44" viewBox="0 0 40 44" fill="none" xmlns="http://www.w3.org/2000/svg">
<path d="M27.4899 18.3742C28.2412 17.6485 28.7074 16.6426 28.7074 15.532C28.7074 13.3261 26.8681 11.5316 24.6073 11.5316C22.8652 11.5316 21.3211 12.6093 20.7446 14.1886C20.5029 14.1451 20.2543 14.1212 19.9999 14.1212C19.7455 14.1212 19.497 14.1451 19.2553 14.1886C18.6787 12.6092 17.1346 11.5316 15.3925 11.5316C13.1317 11.5316 11.2924 13.3261 11.2924 15.532C11.2924 16.6426 11.7588 17.6485 12.51 18.3742C10.7079 19.376 9.54782 21.273 9.54782 23.3361C9.54782 23.6921 9.84353 23.9806 10.2083 23.9806C10.573 23.9806 10.8687 23.6921 10.8687 23.3361C10.8687 21.5139 12.0378 19.8593 13.7801 19.2104C14.2754 19.4179 14.8204 19.5332 15.3926 19.5332C15.6447 19.5332 15.8942 19.5095 16.1385 19.4655C16.3473 20.0354 16.6846 20.5458 17.1166 20.9635C15.2981 21.9683 14.1554 23.8513 14.1554 25.926C14.1554 26.282 14.4511 26.5705 14.8158 26.5705C15.1806 26.5705 15.4763 26.282 15.4763 25.926C15.4763 24.1477 16.5609 22.5509 18.2393 21.858C18.2842 21.8395 18.3257 21.8164 18.3639 21.79C18.8654 22.0039 19.4185 22.1233 19.9999 22.1233C20.5723 22.1233 21.1174 22.0079 21.6127 21.8003C23.3543 22.4492 24.5236 24.1056 24.5236 25.926C24.5236 26.282 24.8193 26.5705 25.184 26.5705C25.5488 26.5705 25.8445 26.282 25.8445 25.926C25.8445 23.8648 24.6841 21.9662 22.8825 20.9641C23.3149 20.5464 23.6525 20.0356 23.8613 19.4655C24.1057 19.5095 24.3552 19.5332 24.6072 19.5332C25.1794 19.5332 25.7245 19.4179 26.2196 19.2104C27.962 19.8593 29.131 21.5138 29.131 23.3361C29.131 23.6921 29.4267 23.9806 29.7915 23.9806C30.1562 23.9806 30.4519 23.6921 30.4519 23.3361C30.4521 21.2729 29.292 19.376 27.4899 18.3742ZM15.9001 18.1223C15.9001 18.1477 15.9016 18.1726 15.9021 18.1978C15.7357 18.228 15.5653 18.2442 15.3926 18.2442C13.8602 18.2442 12.6134 17.0276 12.6134 15.532C12.6134 14.037 13.8602 12.8206 15.3926 12.8206C16.575 12.8206 17.6223 13.5527 18.012 14.6247C16.7536 15.3086 15.9001 16.6198 15.9001 18.1223ZM17.2211 18.1223C17.2211 16.627 18.4677 15.4104 20 15.4104C21.5324 15.4104 22.779 16.6269 22.779 18.1223C22.779 19.6177 21.5324 20.8343 20 20.8343C18.4677 20.8343 17.2211 19.6176 17.2211 18.1223ZM24.0979 18.1978C24.0983 18.1726 24.0998 18.1476 24.0998 18.1223C24.0998 16.6198 23.2463 15.3087 21.9879 14.6248C22.3777 13.5528 23.425 12.8207 24.6073 12.8207C26.1397 12.8207 27.3865 14.037 27.3865 15.5321C27.3865 17.0276 26.1397 18.2443 24.6073 18.2443C24.4346 18.2442 24.2642 18.228 24.0979 18.1978Z" fill="#F4B434"/>
<path d="M37.1042 27.8556V16.14C38.7505 15.8368 39.9999 14.4236 39.9999 12.7302C39.9999 10.8164 38.4045 9.25946 36.4434 9.25946C35.3656 9.25946 34.3989 9.7304 33.7462 10.4717L23.3561 4.61718C23.4853 4.25805 23.5565 3.87236 23.5565 3.4706C23.5565 1.55694 21.961 0 20 0C18.039 0 16.4435 1.55694 16.4435 3.47069C16.4435 3.87245 16.5145 4.25805 16.6438 4.61727L6.25369 10.4717C5.60098 9.7304 4.63432 9.25946 3.55654 9.25946C1.59541 9.25946 0 10.8164 0 12.7302C0 14.4236 1.24942 15.8367 2.89573 16.14V27.8556C1.24942 28.1588 0 29.572 0 31.2654C0 33.1792 1.59541 34.7362 3.55654 34.7362C4.63265 34.7362 5.59789 34.2667 6.2506 33.5274L16.6437 39.383C16.5145 39.742 16.4435 40.1276 16.4435 40.5292C16.4435 42.4431 18.0389 44 20 44C21.9611 44 23.5565 42.4431 23.5565 40.5292C23.5565 40.1276 23.4855 39.742 23.3563 39.383L33.7494 33.5274C34.4021 34.2668 35.3673 34.7362 36.4435 34.7362C38.4046 34.7362 40 33.1792 40 31.2654C39.9999 29.5719 38.7504 28.1588 37.1042 27.8556ZM36.4434 10.5485C37.6761 10.5485 38.679 11.5273 38.679 12.7302C38.679 13.9332 37.6761 14.9119 36.4434 14.9119C35.2107 14.9119 34.2078 13.9332 34.2078 12.7302C34.2078 11.5273 35.2107 10.5485 36.4434 10.5485ZM20 1.28907C21.2327 1.28907 22.2356 2.26773 22.2356 3.47069C22.2356 4.67253 21.2345 5.6505 20.0034 5.6523C20.0023 5.6523 20.0011 5.65213 20 5.65213C19.9989 5.65213 19.9977 5.6523 19.9966 5.6523C18.7655 5.6505 17.7644 4.67253 17.7644 3.47069C17.7644 2.26773 18.7672 1.28907 20 1.28907ZM1.32092 12.7302C1.32092 11.5273 2.32386 10.5485 3.55654 10.5485C4.78923 10.5485 5.79216 11.5273 5.79216 12.7302C5.79216 13.9332 4.78923 14.9119 3.55654 14.9119C2.32386 14.9119 1.32092 13.9332 1.32092 12.7302ZM3.55654 33.447C2.32386 33.447 1.32092 32.4683 1.32092 31.2653C1.32092 30.0623 2.32386 29.0836 3.55654 29.0836C4.78923 29.0836 5.79216 30.0623 5.79216 31.2653C5.79216 32.4683 4.78923 33.447 3.55654 33.447ZM20 42.7108C18.7673 42.7108 17.7644 41.7321 17.7644 40.5291C17.7644 39.3262 18.7673 38.3474 20 38.3474C21.2327 38.3474 22.2356 39.3262 22.2356 40.5291C22.2356 41.7321 21.2327 42.7108 20 42.7108ZM22.6942 38.2674C22.1785 37.6831 21.4674 37.2679 20.6604 37.1194V34.6363C20.6604 34.2803 20.3647 33.9918 19.9999 33.9918C19.6352 33.9918 19.3395 34.2803 19.3395 34.6363V37.1194C18.5325 37.268 17.8214 37.6831 17.3056 38.2674L6.91265 32.412C7.04193 32.0528 7.11299 31.6671 7.11299 31.2654C7.11299 30.8633 7.04175 30.4773 6.9123 30.1178L9.11648 28.8755C9.43236 28.6975 9.54049 28.3033 9.35812 27.995C9.17574 27.6868 8.77181 27.5813 8.45584 27.7592L6.24972 29.0026C5.73395 28.4187 5.02312 28.004 4.21656 27.8555V16.1401C5.02338 15.9917 5.73439 15.5767 6.25016 14.9925L8.45928 16.2375C8.56328 16.2961 8.67688 16.324 8.78898 16.324C9.01715 16.324 9.23915 16.2084 9.36147 16.0017C9.54393 15.6935 9.4357 15.2992 9.11983 15.1212L6.91239 13.8772C7.04166 13.5179 7.11282 13.1321 7.11282 12.7302C7.11282 12.3301 7.04228 11.946 6.91397 11.588L17.3056 5.73266C17.8214 6.31686 18.5324 6.73194 19.3392 6.88044V9.36379C19.3392 9.71983 19.6349 10.0083 19.9996 10.0083C20.3644 10.0083 20.6601 9.71983 20.6601 9.36379V6.88044C21.4669 6.73194 22.1779 6.31686 22.6937 5.73266L33.0853 11.588C32.9571 11.946 32.8865 12.3301 32.8865 12.7302C32.8865 13.1321 32.9576 13.5179 33.0869 13.8772L30.8795 15.1212C30.5636 15.2992 30.4554 15.6935 30.6378 16.0017C30.7601 16.2084 30.9821 16.324 31.2103 16.324C31.3223 16.324 31.436 16.2961 31.54 16.2375L33.7491 14.9925C34.265 15.5767 34.976 15.9917 35.7827 16.1401V27.8555C34.9762 28.004 34.2654 28.4187 33.7496 29.0026L31.5435 27.7592C31.2276 27.5815 30.8236 27.6868 30.6412 27.995C30.4587 28.3033 30.5669 28.6975 30.8828 28.8755L33.087 30.1178C32.9575 30.4773 32.8863 30.8633 32.8863 31.2654C32.8863 31.6671 32.9574 32.0528 33.0866 32.412L22.6942 38.2674ZM36.4434 33.447C35.2107 33.447 34.2078 32.4683 34.2078 31.2653C34.2078 30.0623 35.2107 29.0836 36.4434 29.0836C37.6761 29.0836 38.679 30.0623 38.679 31.2653C38.679 32.4683 37.6761 33.447 36.4434 33.447Z" fill="#F4B434"/>
<path d="M25.5318 28.6594H23.5663C23.2016 28.6594 22.9059 28.9479 22.9059 29.3039C22.9059 29.66 23.2016 29.9485 23.5663 29.9485H25.5318C25.8966 29.9485 26.1923 29.66 26.1923 29.3039C26.1923 28.9479 25.8966 28.6594 25.5318 28.6594Z" fill="#F4B434"/>
<path d="M25.5318 31.1838H14.4681C14.1033 31.1838 13.8076 31.4723 13.8076 31.8284C13.8076 32.1844 14.1033 32.4729 14.4681 32.4729H25.5319C25.8966 32.4729 26.1923 32.1844 26.1923 31.8284C26.1923 31.4723 25.8965 31.1838 25.5318 31.1838Z" fill="#F4B434"/>
<path d="M14.4681 29.9485H14.4772C14.842 29.9485 15.1377 29.66 15.1377 29.3039C15.1377 28.9479 14.842 28.6594 14.4772 28.6594H14.4681C14.1033 28.6594 13.8076 28.9479 13.8076 29.3039C13.8076 29.66 14.1033 29.9485 14.4681 29.9485Z" fill="#F4B434"/>
<path d="M16.7649 29.9485C17.1296 29.9485 17.4254 29.66 17.4254 29.3039C17.4254 28.9479 17.1296 28.6594 16.7649 28.6594H16.7557C16.391 28.6594 16.0953 28.9479 16.0953 29.3039C16.0953 29.66 16.391 29.9485 16.7557 29.9485H16.7649Z" fill="#F4B434"/>
<path d="M19.0526 29.9485C19.4173 29.9485 19.713 29.66 19.713 29.3039C19.713 28.9479 19.4173 28.6594 19.0526 28.6594H19.0434C18.6787 28.6594 18.3829 28.9479 18.3829 29.3039C18.3829 29.66 18.6787 29.9485 19.0434 29.9485H19.0526Z" fill="#F4B434"/>
</svg>
