<svg width="59" height="59" viewBox="0 0 59 59" fill="none" xmlns="http://www.w3.org/2000/svg">
<path d="M56.1178 53.2482H52.7941L53.1005 52.8841C54.6697 51.0192 55.1576 48.5227 54.4057 46.2061L51.4029 36.9545C50.6495 34.6335 48.7847 32.8907 46.4145 32.2924L44.9222 31.9158C44.3359 31.0944 43.4144 30.527 42.3581 30.4158L42.359 26.731C42.3592 26.254 41.9717 25.8672 41.4937 25.8671C41.4936 25.8671 41.4936 25.8671 41.4935 25.8671C41.0155 25.8671 40.6281 26.2536 40.628 26.7306L40.6271 30.3954H38.8988L36.7579 29.855C36.2161 29.7181 35.8127 29.2733 35.7305 28.7217L35.2386 25.4254C37.2226 23.867 38.6923 21.7677 39.1361 19.2594H39.8501C40.1223 19.2594 40.3843 19.2153 40.6299 19.1351L40.629 22.6858C40.6289 23.1629 41.0163 23.5496 41.4943 23.5498H41.4946C41.9725 23.5498 42.36 23.1633 42.3601 22.6863C42.3605 21.9976 42.363 13.9281 42.363 11.269C42.3684 5.04266 37.3205 0 31.0797 0H27.9202L27.8831 0.000115234C27.8763 0.000115234 27.8696 0.000691406 27.8627 0.000691406C21.6432 0.031459 16.6315 5.06663 16.6368 11.2685C16.6368 14.1691 16.6351 11.1888 16.6418 30.4157C15.5855 30.527 14.6639 31.0943 14.0776 31.9157L12.5854 32.2922C10.2152 32.8905 8.35039 34.6333 7.597 36.9544L4.59416 46.206C3.84227 48.5227 4.33017 51.0191 5.89932 52.8838L6.2058 53.2481H2.88205C1.29292 53.2481 0 54.5382 0 56.124C0 57.7098 1.2928 59 2.88205 59H56.118C57.7071 59 59 57.7098 59 56.1241C58.9999 54.5384 57.7071 53.2482 56.1178 53.2482ZM49.756 37.4865L52.7589 46.7381C53.3259 48.4849 52.9579 50.3671 51.7747 51.7732L50.5338 53.2482H48.9391C49.1152 52.7762 49.2083 52.2728 49.2083 51.7568C49.2083 50.7693 48.4032 49.9659 47.4135 49.9659H45.5919V34.0036C45.5919 33.9574 45.5902 33.9115 45.5884 33.8657C45.703 33.9252 48.7192 34.2923 49.756 37.4865ZM47.4136 51.6932C47.4487 51.6932 47.4772 51.7217 47.4772 51.7567C47.4772 52.2981 47.3047 52.8156 46.9904 53.2481H12.0095C11.6952 52.8155 11.5226 52.298 11.5226 51.7567C11.5226 51.7216 11.5512 51.6932 11.5863 51.6932H47.4136ZM40.6305 16.7796C40.6156 17.1969 40.2717 17.5319 39.8501 17.5319H39.2721L39.2809 14.0309H39.8514C40.2758 14.0309 40.6215 14.3709 40.6311 14.7921L40.6305 16.7796ZM25.5117 4.14083C25.5117 2.82013 26.5688 1.74211 27.8773 1.72852C27.8916 1.72852 27.9058 1.72748 27.9202 1.72748H31.0797C36.3619 1.72748 40.6365 5.99518 40.6319 11.2681L40.6317 12.3036C39.4415 12.3036 37.1823 12.3036 33.6404 12.3036C29.1582 12.3036 25.5118 8.66482 25.5118 4.19223L25.5117 4.14083ZM25.7793 10.1225C27.5811 12.495 30.4339 14.0309 33.6403 14.0309H37.5496L37.5404 17.7141C37.5404 20.6453 35.8203 22.8728 33.881 24.2953C33.8683 24.3025 31.5566 26.0578 29.4998 26.115C27.5998 26.0621 25.2186 24.352 25.1206 24.2964C23.1805 22.8733 21.4593 20.6445 21.4593 17.71C21.4396 13.3882 21.4587 17.5724 21.4383 13.0733C21.4363 12.6315 21.7939 12.2728 22.2369 12.2728C23.7759 12.2729 25.1134 11.3989 25.7793 10.1225ZM34.6162 30.3954H24.3837C24.6924 29.9887 24.903 29.5046 24.9819 28.9761L25.3521 26.4947C26.9223 27.3883 28.4505 27.8206 29.4815 27.8426C29.4877 27.8427 29.4938 27.8428 29.5001 27.8428C29.5063 27.8428 29.5124 27.8427 29.5186 27.8426C30.5497 27.8206 32.0778 27.3884 33.648 26.4947L34.0182 28.9761C34.0969 29.5046 34.3075 29.9887 34.6162 30.3954ZM19.1499 19.2594H19.8641C20.3076 21.7651 21.7748 23.8648 23.7614 25.4254L23.2695 28.7217C23.1873 29.2733 22.7839 29.7181 22.2422 29.8549L20.1011 30.3953H18.3728L18.3699 19.1351C18.6157 19.2154 18.8776 19.2594 19.1499 19.2594ZM18.3694 16.7796L18.3689 14.7921C18.3785 14.3709 18.7242 14.0309 19.1486 14.0309H19.7116L19.7275 17.5319H19.1499C18.7282 17.532 18.3843 17.1969 18.3694 16.7796ZM24.1125 2.51453C23.8993 3.0143 23.7807 3.56397 23.7807 4.14072C23.7923 4.25906 23.699 5.89873 24.4977 7.86901V8.28961C24.4977 9.53345 23.4835 10.5454 22.237 10.5454C21.0989 10.5454 20.1497 11.2895 19.8271 12.3035H19.1486C18.8762 12.3035 18.6141 12.3475 18.3683 12.4279L18.368 11.2675C18.3645 7.31104 20.7595 3.96925 24.1125 2.51453ZM6.24114 46.7383L9.24398 37.4867C10.2803 34.2938 13.2948 33.9264 13.4116 33.8658C13.4098 33.9116 13.4081 33.9574 13.4081 34.0037V39.1225C13.4081 39.5996 13.7956 39.9862 14.2736 39.9862C14.7517 39.9862 15.1391 39.5996 15.1391 39.1225V34.0037C15.1391 32.9666 15.9847 32.1228 17.024 32.1228H41.9761C43.0154 32.1228 43.861 32.9666 43.861 34.0037V49.9659H15.139V43.1603C15.139 42.6833 14.7515 42.2967 14.2735 42.2967C13.7954 42.2967 13.408 42.6833 13.408 43.1603V49.9659H11.5864C10.5967 49.9659 9.79159 50.7693 9.79159 51.7568C9.79159 52.2728 9.88478 52.7763 10.0608 53.2482H8.46622L7.22515 51.7731C6.04205 50.3672 5.67413 48.4849 6.24114 46.7383ZM56.1178 57.2725H2.88205C2.24737 57.2725 1.73117 56.7573 1.73117 56.1241C1.73117 55.4908 2.24748 54.9757 2.88205 54.9757H56.118C56.7526 54.9757 57.2688 55.4909 57.2688 56.1241C57.2688 56.7573 56.7525 57.2725 56.1178 57.2725Z" fill="#F0C73E"/>
<path d="M29.4999 45.0946C31.6854 45.0946 33.4633 43.3203 33.4633 41.1396C33.4633 38.9589 31.6854 37.1845 29.4999 37.1845C27.3145 37.1845 25.5365 38.9588 25.5365 41.1395C25.5365 43.3202 27.3145 45.0946 29.4999 45.0946ZM29.4999 38.912C30.7308 38.912 31.7323 39.9112 31.7323 41.1396C31.7323 42.368 30.7308 43.3672 29.4999 43.3672C28.269 43.3672 27.2676 42.368 27.2676 41.1396C27.2676 39.9112 28.269 38.912 29.4999 38.912Z" fill="#F0C73E"/>
</svg>
